<svg width="23" height="22" viewBox="0 0 23 22" fill="none" xmlns="http://www.w3.org/2000/svg">
<path fill-rule="evenodd" clip-rule="evenodd" d="M20.6007 20.1636V17.9682V11.5939V9.66362H21.0781C21.6053 9.66362 22.0327 9.31807 22.0327 8.79093V6.3671C22.0327 6.11557 21.9403 5.87431 21.7633 5.69557L19.6463 3.55047V1.07271C19.6463 0.545562 19.2051 0.118164 18.6779 0.118164H3.43288C2.90573 0.118164 2.46449 0.545562 2.46449 1.07271V3.55047L0.347545 5.69557C0.170477 5.87431 0.078125 6.11557 0.078125 6.3671V8.79093C0.078125 9.31807 0.505523 9.66362 1.03267 9.66362H1.50977V11.5939V17.9682V20.1636C1.50977 20.6899 1.95331 21.1167 2.47928 21.1182C2.48018 21.1182 2.48107 21.1182 2.48197 21.1182H12.2305C12.231 21.1182 12.2315 21.1182 12.232 21.1182C12.7585 21.1173 13.2029 20.6903 13.2029 20.1636V17.9682V15.1523H15.4161L15.4165 20.2078C15.4165 20.734 15.8425 21.1169 16.3684 21.1182C16.3693 21.1182 16.3702 21.1182 16.3711 21.1182H19.6447C19.6452 21.1182 19.6457 21.1182 19.6462 21.1182C20.1727 21.1173 20.6007 20.6903 20.6007 20.1636ZM3.41886 9.66362V11.5939V19.2091H11.2939V14.1097V14.1097C11.2939 13.5825 11.7034 13.2432 12.2305 13.2432H16.3706C16.6517 13.2432 16.8859 13.3397 17.0432 13.5097C17.1809 13.6585 17.2598 13.8636 17.2598 14.1097C17.2598 14.1097 17.2598 14.1097 17.2598 14.1097V19.2091H18.6916V11.5939V9.66362H3.41886ZM1.98633 7.75438H20.1227V6.75951L18.1609 4.89075H3.94816L1.98633 6.75951V7.75438ZM17.7386 3.22053H4.375V2.02734H17.7386V3.22053Z" fill="white"/>
</svg>
