<svg width="16" height="10" viewBox="0 0 16 10" fill="none" xmlns="http://www.w3.org/2000/svg">
<path d="M7.92582 7.70356C8.55082 6.99257 9.1495 6.31712 9.74819 5.63575C11.1758 4.01232 12.6035 2.38295 14.0442 0.771368C14.189 0.611394 14.439 0.492895 14.6627 0.445495C14.9521 0.386246 15.1956 0.53437 15.3337 0.777293C15.4916 1.04392 15.4324 1.29276 15.235 1.52384C14.5311 2.3237 13.8206 3.1295 13.11 3.93529C11.6298 5.61205 10.1561 7.28881 8.67582 8.9715C8.63635 9.0189 8.59687 9.0663 8.55082 9.10777C8.15608 9.53437 7.66266 9.53437 7.28108 9.09592C5.90608 7.53766 4.53108 5.97347 3.15608 4.40929C2.31398 3.44944 1.46529 2.49553 0.623189 1.53569C0.386347 1.26314 0.360031 0.99059 0.537662 0.741742C0.715294 0.486969 0.985031 0.374395 1.30082 0.457345C1.48503 0.504744 1.67582 0.623243 1.79424 0.759517C3.72845 2.9399 5.65608 5.13213 7.58372 7.31844C7.6824 7.43101 7.78766 7.54951 7.92582 7.70356Z" fill="black"/>
</svg>
