<svg width="23" height="23" viewBox="0 0 23 23" fill="none" xmlns="http://www.w3.org/2000/svg">
<path fill-rule="evenodd" clip-rule="evenodd" d="M0.93934 1.36707C0.353554 1.95286 0.353554 2.90261 0.93934 3.48839L9.14273 11.6918L0.939339 19.8952C0.353553 20.481 0.353553 21.4307 0.939339 22.0165C1.52513 22.6023 2.47487 22.6023 3.06066 22.0165L11.2641 13.8131L19.4674 22.0165C20.0532 22.6023 21.003 22.6023 21.5888 22.0165C22.1745 21.4307 22.1745 20.481 21.5888 19.8952L13.3854 11.6918L21.5888 3.48841C22.1745 2.90262 22.1745 1.95287 21.5888 1.36709C21.003 0.781301 20.0532 0.781301 19.4674 1.36709L11.2641 9.57047L3.06066 1.36707C2.47487 0.781288 1.52513 0.781288 0.93934 1.36707Z" fill="white"/>
</svg>
