<svg width="41" height="43" viewBox="0 0 41 43" fill="none" xmlns="http://www.w3.org/2000/svg">
<g clip-path="url(#clip0_50_179)">
<path d="M39.9573 13.1518C39.9573 13.0699 39.9573 12.9881 39.8754 12.9881C37.5831 8.81263 35.2088 4.71906 32.7526 0.707368C32.6708 0.625497 32.6708 0.625497 32.5889 0.543626C32.5889 0.543626 32.5889 0.543626 32.507 0.543626C32.507 0.543626 32.4252 0.543626 32.4252 0.461754C32.4252 0.379883 32.3433 0.379883 32.1795 0.379883C27.1854 1.68982 22.1912 2.83602 17.1971 3.81848C16.9515 3.90035 16.8696 3.98222 16.7877 4.14597C16.5421 4.39158 16.5421 4.80094 16.8696 4.96468C20.2263 6.84772 23.5012 8.56702 26.8579 10.0407C26.4486 11.105 26.0392 12.0875 25.6298 13.1518C22.2731 12.4968 18.7526 12.6606 15.3959 12.9881C15.2322 12.415 15.1503 11.8419 14.9866 11.2688C14.4135 9.14012 14.0041 6.35649 12.5304 4.55532C10.0743 1.52608 4.34329 3.98222 1.39592 4.88281C1.06843 5.04655 0.90469 5.29216 0.986562 5.61965C1.1503 6.27462 1.31405 6.92959 1.47779 7.58456C1.47779 7.83018 1.64153 7.91205 1.80528 7.91205C1.88715 7.91205 1.96902 7.99392 2.13276 7.91205C3.68832 7.50269 5.24387 7.09333 6.71756 6.76585C8.6006 6.35649 9.25557 6.43836 10.238 8.23953C10.6474 8.8945 10.7293 9.95883 10.9749 10.6957C11.2205 11.5963 11.548 12.5787 11.7936 13.4793C9.66492 13.8887 6.96317 14.3799 5.65323 16.0992C5.40761 16.4267 5.24387 16.836 5.162 17.1635C4.09767 19.2103 3.4427 21.9939 3.27896 24.6957C3.11522 24.6957 2.95147 24.6138 2.78773 24.6138C2.46025 24.5319 2.21463 24.6957 2.05089 25.0232C1.96902 25.2688 2.13276 25.6781 2.46025 25.76C2.70586 25.8419 2.95147 25.8419 3.27896 25.9237C3.27896 27.643 3.4427 29.3623 3.85206 30.9179C3.52457 30.9998 3.19709 31.1635 2.95147 31.3273C2.37837 31.7366 2.95147 32.7191 3.52457 32.3097C3.68832 32.146 3.93393 32.0641 4.17954 31.9822C4.26142 32.3097 4.34329 32.6372 4.50703 32.9647C5.162 34.4384 6.06259 35.7483 7.12691 36.8126C7.04504 36.8945 6.96317 36.9764 6.8813 37.1401C6.47194 37.7951 7.4544 38.3682 7.86375 37.7132L7.94563 37.6313C9.33744 38.8594 10.9749 39.76 12.776 40.415C12.6942 40.5787 12.6942 40.7425 12.6123 40.9881C12.3667 41.7249 13.5129 41.9705 13.7585 41.3156C13.8404 41.1518 13.8404 40.9881 13.9222 40.8243C15.3959 41.3156 16.9515 41.643 18.507 41.7249C19.9807 41.8887 21.3725 41.8068 22.7643 41.5612C22.7643 41.7249 22.8462 41.8887 22.8462 42.0524C23.01 42.7892 24.1562 42.4618 23.9924 41.7249C23.9924 41.5612 23.9105 41.3974 23.9105 41.3156C25.7936 40.8243 27.5129 40.0056 29.0684 38.8594C29.1503 38.9413 29.2322 39.0232 29.314 39.105C29.8053 39.5963 30.624 38.7775 30.1328 38.2863C30.0509 38.2044 30.0509 38.2044 29.969 38.1226C31.279 37.0582 32.3433 35.8302 33.3257 34.3565C33.6532 33.8653 33.9807 33.2922 34.2263 32.8009C34.4719 33.0466 34.7994 33.2103 35.045 33.374C35.7 33.7015 36.2731 32.7191 35.6181 32.3916C35.2907 32.2278 35.045 31.9822 34.7994 31.7366C34.7994 31.7366 34.7176 31.7366 34.7176 31.6547C36.0275 28.7892 36.4369 25.76 35.9456 22.8126C36.1912 22.8126 36.355 22.8126 36.6006 22.7308C37.3374 22.567 37.01 21.4208 36.2731 21.5846C36.1094 21.6664 35.8638 21.6664 35.7 21.5846C35.3725 20.1109 34.7994 18.6372 33.9807 17.1635C33.8988 16.7542 33.7351 16.3448 33.4895 15.9354C32.2614 14.298 28.8228 13.7249 26.776 13.2337C27.1035 12.2512 27.5129 11.2688 27.9222 10.3682C31.5246 11.9237 35.2907 13.1518 39.3842 13.8887C39.8754 14.1343 40.2029 13.5612 39.9573 13.1518ZM25.2205 14.3799C25.0567 14.7892 24.893 15.2805 24.7293 15.6898C24.3199 15.608 23.9105 15.608 23.5831 15.5261C21.045 15.1986 18.5889 15.2805 16.0509 15.5261C15.969 15.0349 15.8053 14.5436 15.7234 14.0524C18.9164 13.8068 22.1094 13.8068 25.2205 14.3799ZM25.4661 16.9179C26.4485 17.0816 27.5129 17.4091 27.6766 17.9822C27.8404 18.8828 25.2205 19.5378 24.3199 19.7834C24.7293 18.8828 25.1386 17.9004 25.4661 16.9179ZM22.9281 20.029C22.9281 20.029 22.9281 20.1109 22.9281 20.029C21.045 20.2746 18.9983 20.1928 17.1971 19.9471C16.8696 18.8828 16.5421 17.7366 16.2965 16.5904C18.9983 16.3448 21.7 16.2629 24.3199 16.6723C23.9105 17.9004 23.5012 18.9647 22.9281 20.029ZM10.893 6.43836C9.33744 3.98222 4.91639 5.86526 2.46025 6.68398C2.37837 6.43836 2.2965 6.11088 2.21463 5.86526C3.19709 5.53778 4.17954 5.21029 5.24387 5.04655C6.3082 4.80094 8.27311 4.30971 9.25557 4.39158C12.0392 4.63719 12.4485 6.60211 13.0216 8.56702C14.1678 12.3331 14.9047 16.1811 15.969 19.9471C15.6415 19.8653 15.314 19.8653 14.9866 19.7834C14.3316 17.491 13.5947 15.1986 12.9398 12.9062C12.2848 10.9413 11.9573 8.15766 10.893 6.43836ZM13.6766 19.4559C13.431 19.374 13.1854 19.374 12.9398 19.2922C12.5304 19.2103 11.7936 19.1284 11.548 18.8009C10.6474 17.9004 12.0392 17.4091 13.0216 17.2454C13.1854 17.9822 13.431 18.7191 13.6766 19.4559ZM32.507 33.374C29.314 38.3682 23.9924 41.1518 18.0977 40.4968C12.9398 39.8419 7.70001 37.3857 5.57136 32.3916C4.09767 29.0349 4.09767 23.3039 5.48949 19.374C5.81697 20.029 6.3082 20.6021 6.8813 21.0115C11.1386 24.4501 19.162 24.2863 24.1562 23.6313C25.8754 23.3857 31.8521 21.5027 33.5714 18.9647C35.7819 23.7132 35.4544 28.7892 32.507 33.374ZM28.9866 15.1986C29.8053 15.4442 31.8521 15.8536 32.3433 16.6723C32.9164 17.5729 32.0977 18.8009 31.279 19.5378C29.6415 20.9296 27.1854 21.912 25.1386 22.4033C20.8813 23.3857 15.3959 22.9764 11.2205 21.8302C9.25557 21.2571 4.67077 19.2922 6.8813 16.5904C7.86375 15.3623 10.4836 14.953 12.2029 14.6255C12.3667 15.1167 12.5304 15.608 12.6123 16.0992C11.3842 16.3448 9.58305 16.836 9.50118 18.146C9.41931 19.2103 10.7293 19.7834 11.548 20.1109C15.0684 21.5027 20.3082 21.7483 23.9924 21.0933C25.548 20.8477 31.0333 19.2922 28.5772 16.9998C27.9222 16.3448 26.9398 16.0992 25.8755 15.8536C26.0392 15.4442 26.2029 15.0349 26.3667 14.5436C27.2673 14.7074 28.086 14.953 28.9866 15.1986ZM38.4836 12.6606C36.5187 12.2512 34.5538 11.6781 32.7526 11.105C32.7526 8.3214 32.9164 5.53778 32.9164 2.83602C33.8988 3.98222 34.5538 5.86526 35.2088 6.84772C36.355 8.81263 37.4193 10.6957 38.4836 12.6606ZM24.0743 7.50269C26.6942 5.78339 29.1503 3.73661 31.7702 2.01731C31.8521 4.88281 31.6064 7.83018 31.6064 10.6957C28.9866 9.79509 26.5304 8.64889 24.0743 7.50269ZM28.1678 2.59041C28.4953 2.50854 28.9866 2.3448 29.4778 2.18105C27.2673 3.73661 25.0567 5.45591 22.7643 6.92959C21.3725 6.19275 19.9807 5.45591 18.5889 4.71906C20.5538 4.30971 22.4369 3.90035 24.4018 3.49099C25.7117 3.16351 26.9398 2.83602 28.1678 2.59041Z" fill="white"/>
<path d="M15.4778 27.3156C15.1504 27.6431 14.9047 27.8887 14.5773 28.2162C14.086 28.7074 14.9047 29.5261 15.396 29.0349C15.7234 28.7074 15.9691 28.4618 16.2965 28.1343C16.7878 27.5612 15.9691 26.7425 15.4778 27.3156Z" fill="white"/>
<path d="M9.09182 27.0699C9.33743 27.0699 9.66492 27.0699 9.91053 27.0699C10.6474 27.0699 10.6474 25.9237 9.91053 25.9237C9.66492 25.9237 9.33743 25.9237 9.09182 25.9237C8.35497 25.9237 8.35497 27.0699 9.09182 27.0699Z" fill="white"/>
<path d="M9.99238 31.0817C9.58302 31.4091 9.09179 31.8185 8.68243 32.146C8.10933 32.6372 8.92805 33.4559 9.50115 32.9647C9.9105 32.6372 10.4017 32.2279 10.8111 31.9004C11.3842 31.491 10.5655 30.6723 9.99238 31.0817Z" fill="white"/>
<path d="M11.5479 34.1109C11.466 34.5203 11.3842 34.9296 11.2204 35.2571C11.0567 35.9939 12.121 36.2396 12.2848 35.5846C12.3666 35.1752 12.4485 34.7659 12.6122 34.4384C12.8579 33.7015 11.7935 33.3741 11.5479 34.1109Z" fill="white"/>
<path d="M16.9514 36.1577C16.9514 35.8302 16.624 35.5846 16.3783 35.5846C16.0509 35.5846 15.8052 35.8302 15.8052 36.1577C15.7234 36.7308 15.7234 37.3039 15.8871 37.9589C16.0509 38.6957 17.1152 38.3682 16.9514 37.6314C16.8696 37.1402 16.8696 36.6489 16.9514 36.1577Z" fill="white"/>
<path d="M24.893 35.4208C24.7293 34.684 23.665 35.0115 23.8287 35.7483C23.9925 36.3214 24.1562 36.8945 24.4018 37.3857C24.7293 38.0407 25.7118 37.4676 25.3843 36.8126C25.1387 36.4033 24.9749 35.9121 24.893 35.4208Z" fill="white"/>
<path d="M29.5597 33.0466C29.3141 32.8828 28.9866 32.8009 28.741 32.6372C28.086 32.3097 27.5129 33.2922 28.1679 33.6197C28.4135 33.7834 28.741 33.8653 28.9866 34.029C29.6416 34.2746 30.2147 33.2922 29.5597 33.0466Z" fill="white"/>
<path d="M31.934 27.6431C31.4428 27.6431 30.9515 27.7249 30.5422 27.8887C29.8053 28.1343 30.1328 29.1986 30.8697 29.0349C31.1971 28.953 31.6065 28.8711 31.934 28.8711C32.6708 28.7893 32.6708 27.6431 31.934 27.6431Z" fill="white"/>
<path d="M32.6708 23.6313C32.4252 23.7132 32.0977 23.795 31.8521 23.8769C31.1153 24.0407 31.4428 25.1869 32.1796 25.0231C32.4252 24.9412 32.7527 24.8594 32.9983 24.7775C33.7351 24.5319 33.4077 23.4676 32.6708 23.6313Z" fill="white"/>
<path d="M21.2906 31.4091C21.2087 31.0816 20.8813 30.9179 20.5538 30.9997C20.2263 31.0816 20.1444 31.4091 20.1444 31.7366C20.2263 32.1459 20.3082 32.5553 20.4719 32.9647C20.7175 33.6196 21.8637 33.374 21.6181 32.6372C21.4544 32.2278 21.3725 31.8185 21.2906 31.4091Z" fill="white"/>
<path d="M23.1737 26.9881C22.7644 26.9881 22.2732 26.9881 21.8638 26.9062C21.127 26.7425 20.7995 27.8887 21.5363 27.9706C22.1094 28.0524 22.6006 28.1343 23.1737 28.1343C23.9106 28.0524 23.9106 26.9062 23.1737 26.9881Z" fill="white"/>
<path d="M27.0217 29.7717C26.5304 29.7717 26.1211 29.7717 25.7117 29.6079C25.0568 29.3623 24.7293 30.4267 25.3842 30.6723C25.8755 30.836 26.4486 30.9179 27.0217 30.9179C27.7585 30.9179 27.7585 29.7717 27.0217 29.7717Z" fill="white"/>
<path d="M27.1036 26.9062C27.4311 26.8244 27.7585 26.6606 28.086 26.5788C28.8229 26.3331 28.4954 25.2688 27.7585 25.5144C27.4311 25.5963 27.1036 25.7601 26.7761 25.8419C26.1211 26.0875 26.4486 27.1519 27.1036 26.9062Z" fill="white"/>
</g>
<defs>
<clipPath id="clip0_50_179">
<rect width="39.0526" height="42" fill="white" transform="translate(0.986572 0.379883)"/>
</clipPath>
</defs>
</svg>
