<svg width="42" height="41" viewBox="0 0 42 41" fill="none" xmlns="http://www.w3.org/2000/svg">
<g clip-path="url(#clip0_48_147)">
<path d="M21.5462 7.91619C21.3461 9.6809 20.9458 11.7724 19.7451 13.6025C18.9446 14.9097 18.0107 15.4979 16.9433 15.5633C15.8093 15.6286 14.6085 15.4979 13.5412 15.3018C13.0742 15.2365 12.6073 15.2365 12.207 15.8247C11.4732 16.9358 10.7394 18.0469 10.0057 19.0927C8.7382 21.0534 7.40403 23.0142 6.13657 25.0404C4.53557 27.6548 2.66774 30.5959 1.93394 33.9946H0.866611C0.933319 33.7985 0.933319 33.6678 1.00003 33.4717C1.13344 32.8835 1.26686 32.3606 1.46698 31.8378L1.93394 30.8574C3.06799 28.5698 4.20203 26.1515 5.5362 23.9293C6.80365 21.707 8.27124 19.5502 9.67211 17.4587C10.2725 16.5436 10.9396 15.5633 11.5399 14.6482L11.7401 14.5175L11.6067 14.3868C10.6727 13.4064 10.4059 12.1646 10.8062 10.4652C11.2731 8.30835 12.0069 6.54364 13.1409 4.97502C15.1422 2.16456 17.3436 0.66129 19.8785 0.399852C22.8804 0.138414 25.949 0.203774 28.7507 0.399852C30.752 0.530571 32.2863 1.70704 33.1535 3.79855C33.2869 4.12534 33.7538 4.45214 34.1541 4.45214C35.1547 4.58286 36.222 4.64822 37.2227 4.71358C38.4234 4.77894 39.6242 4.8443 40.8916 5.04038C41.1585 5.04038 41.5587 5.36717 41.5587 5.49789C42.1591 7.52403 42.0257 9.55018 41.1585 10.9227C40.358 12.1646 39.0905 12.8835 37.2894 13.2103C36.689 13.341 36.0219 13.4064 35.4215 13.4717C34.4876 13.6025 33.487 13.7332 32.4864 13.9293C30.0849 14.4521 29.3511 15.1711 29.151 17.5894H28.1503C28.0836 15.2365 29.0175 13.8639 31.2856 13.145C32.1528 12.8835 33.02 12.6874 33.8205 12.5567C34.3542 12.4914 34.8879 12.3606 35.4215 12.2953C36.222 12.1646 37.0893 12.0992 37.9565 11.9031C39.4908 11.5763 40.4247 10.5959 40.8249 9.09266L40.8916 8.76587L40.2245 8.70051C40.0244 8.70051 39.8243 8.70051 39.6242 8.63515C38.29 8.43907 37.0225 8.17763 36.689 7.06652C36.222 5.56325 35.2214 5.49789 34.2208 5.43253H34.0207C33.8205 5.43253 33.6204 5.43253 33.4203 5.36717H33.02C32.5531 5.36717 32.353 5.17109 32.2863 4.71358C31.886 2.68743 30.5518 1.4456 28.5506 1.31488C27.1497 1.24953 25.7488 1.24953 24.4147 1.18417C23.4807 1.18417 22.6135 1.18417 21.6796 1.11881C19.7451 1.11881 18.0774 1.64168 16.6098 2.75279C13.8747 4.77894 12.2737 7.72012 11.7401 11.3802C11.5399 12.8182 12.207 13.7985 13.6746 14.2561C14.2083 14.3868 14.7419 14.4521 15.3423 14.5175L15.8093 14.5829C17.2102 14.7789 18.3442 14.1253 19.0113 12.8835C19.545 11.9031 19.9452 10.9227 20.1453 10.0731C20.4122 9.0273 20.5456 7.98155 20.679 6.9358C20.7457 6.54364 20.8124 6.21685 20.8124 5.82469H21.813C21.813 6.02077 21.813 6.15149 21.7463 6.34756C21.6796 6.87044 21.6129 7.39332 21.5462 7.91619ZM37.4228 6.15149C37.6896 7.06652 38.6235 7.65475 39.8243 7.65475C40.0244 7.65475 40.2913 7.65475 40.5581 7.58939L40.7582 7.52404V7.32796C40.8916 7.06652 40.8916 6.609 40.6248 6.28221C40.4247 6.02077 40.0911 5.89005 39.6242 5.89005C39.2239 5.89005 38.8237 5.82469 38.3567 5.82469C38.1566 5.82469 37.9565 5.75933 37.7563 5.75933H37.3561L37.4228 6.15149Z" fill="white"/>
<path d="M23.6142 17.9816C23.3474 18.1123 23.1473 18.243 22.9472 18.3737C20.8125 19.877 19.2782 22.0339 18.0107 25.1711C16.2096 29.6809 15.8094 34.3868 15.6759 37.9816C15.6759 38.5044 15.6759 39.0273 15.6759 39.5502C15.6759 39.6809 15.6759 39.8116 15.6759 40.0077H14.5419C14.5419 39.9423 14.5419 39.877 14.5419 39.877C14.5419 35.3672 15.0089 31.6417 15.8761 28.3084C16.9434 24.1254 18.411 21.2495 20.6791 18.962C22.2801 17.328 23.7477 16.4783 25.5488 16.2169V21.1842H25.8156C26.0824 21.1842 26.3493 21.1842 26.5494 21.1842C27.0831 21.1842 27.55 21.1842 28.0837 21.1842C30.3518 21.3803 32.2863 22.8835 32.6866 24.9097C32.82 25.694 33.2869 26.0208 34.0874 25.8901C34.9547 25.7593 35.6884 26.0861 36.2221 26.8705C37.0893 28.1776 37.2227 30.0731 36.5557 31.5763C35.9553 32.9489 34.7545 33.7986 33.2202 34.06C32.8867 34.1254 32.5532 34.1254 32.2196 34.1254C32.0862 34.1254 31.8861 34.1254 31.7527 34.1254C30.5519 34.1907 29.618 34.6482 29.0843 35.3672C28.5507 36.0861 28.3505 37.0012 28.5507 38.1123C28.6174 38.6352 28.8175 39.0927 28.9509 39.5502C29.0176 39.6809 29.0176 39.8116 29.0843 39.877C27.9503 40.0731 27.8836 39.9423 27.6167 38.7005C27.6167 38.6352 27.6167 38.5698 27.55 38.5044C27.55 38.4391 27.4833 38.3737 27.4833 38.3084C26.9497 35.5633 28.2838 33.6025 30.9522 33.145C31.4858 33.0796 32.0195 33.0142 32.4864 33.0142C33.6872 33.0142 34.7545 32.426 35.3549 31.4456C36.022 30.3345 36.0887 28.8966 35.4883 27.6548C35.2215 27.1319 34.7545 26.8705 34.1542 26.8705C33.6205 26.8705 33.0201 26.8705 32.4197 26.8705C32.2863 26.8705 32.0862 26.8705 31.9528 26.8705C31.9528 26.8051 31.9528 26.8051 31.9528 26.7397C31.8194 23.4064 30.2851 22.0339 26.8829 22.0339H24.5482V17.328L24.0812 17.5894C23.8811 17.8508 23.7477 17.9162 23.6142 17.9816Z" fill="white"/>
<path d="M28.7507 4.90964C28.7507 5.43252 28.6173 6.28219 29.5512 6.28219C30.5518 6.28219 30.3517 5.43252 30.3517 4.84428C30.3517 4.6482 30.3517 4.45212 30.3517 4.3214C30.3517 3.79853 30.1516 3.40637 29.5512 3.40637C28.9508 3.40637 28.7507 3.79853 28.7507 4.3214C28.7507 4.45212 28.7507 4.6482 28.7507 4.90964Z" fill="white"/>
<path d="M30.3517 26.2822C30.285 25.6286 30.5518 24.9097 29.5512 24.8443C28.9508 24.7789 28.684 25.2365 28.684 26.2822C28.684 27.3933 28.9508 27.8508 29.5512 27.7855C30.6185 27.6548 30.285 26.8705 30.3517 26.2822Z" fill="white"/>
</g>
<defs>
<clipPath id="clip0_48_147">
<rect width="41.0256" height="40" fill="white" transform="matrix(-1 0 0 1 41.959 0.138428)"/>
</clipPath>
</defs>
</svg>
