<svg width="168" height="51" viewBox="0 0 168 51" fill="none" xmlns="http://www.w3.org/2000/svg">
<path d="M7.85139 0.421387L16.6663 9.23629H41.2456V33.8522L50.0605 42.6671V0.421387H7.85139Z" fill="white"/>
<path d="M0.425781 9.23621V50.0554H41.245V33.8521L16.6657 9.23621H0.425781ZM33.4908 44.0935H6.8998V16.6246H8.76519V42.1915H33.4908V44.0935Z" fill="white"/>
<path d="M72.6278 24.2692C73.0301 23.5742 73.4325 22.8793 73.8348 22.1843C75.7734 18.7096 77.7119 15.2348 79.687 11.76C79.7968 11.5406 80.1991 11.3211 80.4551 11.3211C81.845 11.2846 83.2715 11.3211 84.6614 11.2846C85.1369 11.2846 85.3198 11.3943 85.3198 11.9063C85.3198 17.978 85.3198 24.0131 85.2832 30.0848C85.2832 30.2677 85.0638 30.67 84.9175 30.67C83.6739 30.7066 82.3937 30.7066 81.0404 30.7066C81.0404 26.2809 81.0404 21.9648 81.0404 17.6488C81.0038 17.6488 80.9306 17.6123 80.8941 17.6123C80.3088 18.6364 79.7236 19.6971 79.1384 20.7213C77.4193 23.8302 75.6636 26.9392 73.9445 30.0482C73.6885 30.5237 73.3959 30.7066 72.8473 30.7066C71.4939 30.67 70.1772 30.67 68.8239 30.7066C68.3118 30.7066 68.1289 30.5603 68.1289 30.0117C68.1289 24.0131 68.1289 17.978 68.1289 11.9795C68.1289 11.3943 68.3484 11.248 68.8604 11.2846C69.8114 11.3211 70.799 11.3211 71.75 11.2846C72.4083 11.248 72.5181 11.504 72.5181 12.0892C72.4815 15.8566 72.5181 19.6605 72.5181 23.4279C72.5181 23.6839 72.5181 23.9766 72.5181 24.2326C72.5181 24.2326 72.5546 24.2692 72.6278 24.2692Z" fill="white"/>
<path d="M92.2324 22.1112C92.2324 24.7081 92.2324 27.3051 92.2324 29.9386C92.2324 30.5238 92.0495 30.7067 91.4643 30.7067C90.4036 30.6701 89.3063 30.7067 88.209 30.7067C88.209 25.7323 88.209 20.9042 88.209 15.9664C88.465 15.9298 88.7211 15.9298 88.9771 15.9298C90.2938 15.9298 91.6106 15.9664 92.9273 15.9298C93.5491 15.8932 93.7686 16.1493 93.9515 16.6979C94.8293 19.1851 95.7437 21.6723 96.6581 24.1595C96.6947 24.2692 96.7313 24.379 96.841 24.5984C97.0605 24.0498 97.2068 23.6474 97.3531 23.2451C98.1578 21.0139 98.9624 18.7828 99.7671 16.5882C99.9134 16.1859 100.096 15.9664 100.572 15.9664C102.035 16.003 103.498 16.003 104.924 15.9664C105.363 15.9664 105.546 16.1127 105.546 16.5882C105.546 21.1237 105.546 25.6591 105.546 30.1946C105.546 30.6701 105.363 30.8164 104.924 30.7798C104.047 30.7432 103.169 30.7432 102.327 30.7798C101.706 30.8164 101.486 30.5969 101.486 29.9386C101.523 27.4148 101.486 24.9276 101.486 22.4038C101.486 22.3307 101.486 22.221 101.486 22.1478C101.45 22.1478 101.413 22.1112 101.34 22.1112C100.791 23.6109 100.243 25.0739 99.7305 26.5735C99.2916 27.7806 98.8161 28.9876 98.4138 30.1946C98.2675 30.6335 98.048 30.7432 97.6091 30.7798C95.4877 30.8164 95.4877 30.8164 94.7562 28.8047C94.0246 26.7198 93.2565 24.6716 92.4884 22.5867C92.4518 22.4404 92.3787 22.2941 92.3055 22.1478C92.3055 22.0747 92.269 22.1112 92.2324 22.1112Z" fill="white"/>
<path d="M139.746 36.1198C139.746 29.3532 139.746 22.6597 139.746 15.8931C140.807 15.8931 141.831 15.8931 142.855 15.8931C143.001 15.8931 143.184 16.1126 143.257 16.2954C143.404 16.6246 143.44 16.9904 143.55 17.3927C143.696 17.3196 143.769 17.283 143.843 17.2464C147.427 14.2106 152.402 15.6371 153.755 20.1725C154.523 22.7329 154.45 25.2932 153.243 27.7804C151.524 31.4015 146.44 32.0233 144.026 29.5727C143.989 29.5361 143.916 29.4995 143.769 29.3898C143.733 29.6092 143.733 29.7555 143.733 29.9384C143.733 31.7307 143.696 33.5229 143.733 35.2786C143.733 35.8638 143.587 36.1198 142.965 36.0833C141.941 36.0833 140.88 36.1198 139.746 36.1198ZM143.66 23.5741C143.806 24.1959 143.952 25.0372 144.282 25.8419C144.72 26.9757 145.708 27.4147 146.842 27.4512C147.939 27.4878 148.927 27.0855 149.512 26.0613C150.353 24.5983 150.39 23.0255 149.914 21.4527C149.475 19.9897 148.342 19.185 146.952 19.2215C145.525 19.2581 144.391 20.0994 143.989 21.5624C143.806 22.1477 143.806 22.7329 143.66 23.5741Z" fill="white"/>
<path d="M123.286 23.5012C123.249 20.9774 123.834 18.856 125.736 17.2466C128.626 14.8326 134.954 14.9789 137.038 19.4778C138.428 22.5136 137.916 26.9394 135.795 29.0608C133.929 30.9262 131.625 31.2919 129.138 30.9628C125.517 30.4507 123.139 27.6709 123.286 23.5012ZM133.82 23.5012C133.747 22.8794 133.71 22.3307 133.6 21.8187C133.271 20.319 132.101 19.3315 130.638 19.2583C129.174 19.1852 128.004 20.063 127.565 21.5626C127.236 22.6965 127.236 23.8669 127.529 25.0374C127.931 26.6102 128.992 27.488 130.455 27.5246C131.881 27.5612 133.015 26.7931 133.49 25.2934C133.673 24.6716 133.71 24.0132 133.82 23.5012Z" fill="white"/>
<path d="M108.289 15.93C108.545 15.93 108.801 15.8934 109.057 15.8934C112.861 15.8934 116.665 15.8934 120.469 15.8934C121.164 15.8934 121.383 16.0763 121.383 16.8078C121.347 21.1604 121.347 25.513 121.383 29.829C121.383 30.524 121.201 30.7434 120.506 30.7069C119.701 30.6703 118.896 30.6703 118.128 30.7069C117.506 30.7434 117.323 30.524 117.323 29.9022C117.36 26.7932 117.323 23.6476 117.323 20.5386C117.323 20.246 117.323 19.99 117.323 19.6608C115.641 19.6608 114.032 19.6608 112.312 19.6608C112.312 19.8803 112.312 20.1363 112.312 20.3923C112.312 23.5379 112.276 26.6835 112.312 29.829C112.312 30.524 112.13 30.7434 111.435 30.7069C110.41 30.6703 109.386 30.7069 108.289 30.7069C108.289 25.7691 108.289 20.9044 108.289 15.93Z" fill="white"/>
<path d="M163.336 19.6239C163.336 23.3181 163.336 26.9392 163.336 30.67C162.056 30.67 160.849 30.7066 159.642 30.6334C159.496 30.6334 159.276 30.1945 159.276 29.975C159.24 27.3415 159.276 24.6715 159.276 22.038C159.276 21.2699 159.276 20.5018 159.276 19.6239C157.996 19.6239 156.789 19.5874 155.582 19.6239C154.924 19.6605 154.631 19.4776 154.704 18.7461C154.741 18.0877 154.741 17.3928 154.704 16.6978C154.668 16.0394 154.887 15.8566 155.546 15.8566C158.179 15.8931 160.849 15.8566 163.483 15.8566C164.726 15.8566 165.97 15.8566 167.213 15.8566C167.726 15.8566 167.982 16.0029 167.945 16.5515C167.908 17.3196 167.908 18.0877 167.945 18.8558C167.982 19.4411 167.726 19.5874 167.177 19.5508C165.933 19.5874 164.653 19.6239 163.336 19.6239Z" fill="white"/>
<path d="M76.1389 40.2164H70.1404V50.4212H68.4944V38.7899H76.1389V40.2164Z" fill="white"/>
<path d="M83.9289 47.4951H77.7475L76.4673 50.4212H74.7482L80.0152 38.7899H81.6611L86.9647 50.4212H85.209L83.9289 47.4951ZM83.3436 46.1418L80.8199 40.4359L78.2961 46.1418H83.3436Z" fill="white"/>
<path d="M97.4624 39.8508C98.3403 40.5824 98.7426 41.5699 98.7426 42.8135C98.7426 44.0571 98.3037 45.0813 97.4624 45.7762C96.5846 46.5077 95.4142 46.8735 93.9145 46.8735H91.025V50.3848H89.3791V38.7535H93.9145C95.4142 38.7535 96.6212 39.1193 97.4624 39.8508ZM96.292 44.7521C96.8406 44.3131 97.1332 43.6548 97.1332 42.8135C97.1332 41.9723 96.8406 41.3139 96.292 40.875C95.7434 40.4361 94.9387 40.2166 93.878 40.2166H91.0616V45.4104H93.878C94.9021 45.4104 95.7068 45.191 96.292 44.7521Z" fill="white"/>
<path d="M108.509 47.4951H102.328L101.047 50.4212H99.3283L104.595 38.7899H106.241L111.545 50.4212H109.789L108.509 47.4951ZM107.924 46.1418L105.4 40.4359L102.876 46.1418H107.924Z" fill="white"/>
<path d="M123.982 38.7535V50.3848H122.336V45.191H115.642V50.3848H113.996V38.7535H115.642V43.7645H122.336V38.7535H123.982Z" fill="white"/>
<path d="M136.014 40.2166H132.027V50.4214H130.382V40.2166H126.395V38.7535H136.014V40.2166Z" fill="white"/>
</svg>
