<svg width="39" height="41" viewBox="0 0 39 41" fill="none" xmlns="http://www.w3.org/2000/svg">
<mask id="path-1-inside-1_3_920" fill="white">
<path d="M38.4678 28.7584L38.2633 27.5425C38.0997 27.5678 37.9361 27.6016 37.7806 27.6269C36.7744 27.8042 35.8255 27.9647 34.8602 28.1505C34.2139 28.2687 33.6985 28.1842 33.1913 27.8634C32.1033 27.1878 30.9826 26.5207 29.8946 25.879C29.4446 25.6088 28.9865 25.3385 28.5366 25.0683C28.4466 25.0177 28.373 24.9586 28.2912 24.8995C28.2584 24.8741 28.2175 24.8488 28.1766 24.8235L27.1377 24.0973L34.942 20.5423L27.1213 16.9788L28.1848 16.2526C28.2421 16.2189 28.283 16.1851 28.3321 16.1513C28.422 16.0837 28.512 16.0246 28.602 15.974L29.4692 15.4589C30.7617 14.6905 32.0951 13.8883 33.4204 13.1114C33.7231 12.9341 34.1157 12.8581 34.4839 12.9087C34.942 12.9679 35.3919 13.0438 35.8255 13.1283C35.9973 13.1621 36.1609 13.1874 36.3327 13.2212L38.2715 13.5589L38.476 12.343L34.6557 11.659L35.9809 7.90135L34.8602 7.4707C34.8029 7.63114 34.7456 7.78313 34.6884 7.94357C34.3039 9.01598 33.9358 10.0293 33.5758 11.0595C33.4204 11.5155 33.1504 11.8363 32.7332 12.0812C31.6207 12.7399 30.4836 13.4154 29.3955 14.0656C28.962 14.3189 28.5366 14.5807 28.103 14.834C27.9967 14.8931 27.8985 14.9522 27.7758 15.0198C27.7185 15.0536 27.6449 15.0958 27.5713 15.1296L26.4014 15.7966L27.3259 6.96405L20.3315 12.2417V9.67463C20.3315 8.15468 20.3315 6.71917 20.3396 5.26677C20.3396 4.91212 20.5196 4.60813 20.6669 4.42236C20.945 4.05926 21.2395 3.7046 21.5176 3.35839C21.6649 3.18107 21.804 3.00374 21.9512 2.82641C22.3193 2.36198 22.6956 1.89755 23.0719 1.42468L23.1292 1.34868L22.2048 0.554932L19.7261 3.62861L17.2392 0.554932L16.323 1.34868C16.4048 1.45001 16.4866 1.55134 16.5684 1.65267C17.321 2.58997 18.0327 3.47661 18.7526 4.38858C18.9653 4.65879 19.1044 5.04723 19.1044 5.39344C19.1207 6.80361 19.1125 8.23068 19.1125 9.61552V10.4262C19.1125 10.5359 19.1044 10.6288 19.088 10.7301C19.0798 10.7724 19.0798 10.8146 19.0716 10.8653L18.9571 12.1234L12.1181 6.96405L13.0507 15.8135L11.8809 15.1549C11.8155 15.1127 11.7582 15.0873 11.7009 15.0536C11.5946 14.9945 11.5128 14.9522 11.4392 14.9016C11.0547 14.6736 10.6702 14.4371 10.3021 14.2091C9.46764 13.694 8.6005 13.1536 7.72518 12.7145C6.51445 12.1065 5.79456 11.2115 5.44279 9.90262C5.25464 9.20175 4.99286 8.52622 4.7229 7.80002C4.682 7.69025 4.6411 7.58892 4.60019 7.47915L3.47127 7.9098L4.81289 11.659L0.984375 12.343L1.18889 13.5674C1.41795 13.5252 1.63882 13.4914 1.86788 13.4492C2.88227 13.2718 3.92938 13.0861 4.96014 12.9087C5.3119 12.8496 5.71275 12.9256 6.01543 13.103C7.37341 13.8967 8.74775 14.7158 10.073 15.5095L10.9074 16.0077C10.9974 16.0584 11.0792 16.1175 11.161 16.1766C11.2019 16.202 11.2346 16.2357 11.2837 16.2611L12.3308 16.9873L4.53475 20.5423L12.4699 24.1564L10.3593 25.4145C8.80501 26.3434 7.34069 27.2132 5.85182 28.0913C5.59004 28.2518 5.29554 28.2433 5.09103 28.2096C4.77198 28.1589 4.45294 28.0998 4.15026 28.0491C3.97847 28.0154 3.80668 27.99 3.63488 27.9562C2.90681 27.8296 2.17874 27.7029 1.44249 27.5763L1.19707 27.534L0.984375 28.7584L4.80471 29.4424L3.47127 33.1916L4.59201 33.6223L4.6411 33.4872C4.86197 32.8707 5.08285 32.2712 5.29554 31.6717C5.36099 31.4943 5.41825 31.3001 5.47551 31.089C5.62277 30.557 5.79456 29.9575 6.18723 29.4846C6.58807 28.9949 7.14435 28.7078 7.63519 28.4544C7.81516 28.3616 7.99513 28.2687 8.15057 28.1758C9.00135 27.6691 9.84395 27.1625 10.7356 26.6305C11.1119 26.411 11.4882 26.183 11.8727 25.955L13.0589 25.2457L12.1263 34.1458L19.1207 28.8682V30.2784C19.1207 30.7259 19.1125 31.1735 19.1044 31.6041C19.088 32.5668 19.0716 33.4787 19.1371 34.3738C19.2353 35.7333 18.8508 36.8142 17.9264 37.7852C17.4355 38.3003 16.9938 38.8745 16.5193 39.491C16.4539 39.5754 16.3802 39.6683 16.3148 39.7612L17.2392 40.5549L19.7261 37.4813L22.2048 40.5549L23.121 39.7612C23.0392 39.6598 22.9492 39.5501 22.8674 39.4487C22.1148 38.5199 21.4031 37.6333 20.6914 36.7213C20.4705 36.4426 20.3315 36.0457 20.3315 35.6742C20.3151 34.3485 20.3233 33.0059 20.3233 31.697V30.7259C20.3233 30.6246 20.3315 30.5317 20.3315 30.4304C20.3315 30.3797 20.3396 30.3206 20.3396 30.2531L20.4051 28.9189L27.3177 34.1374L26.4096 25.4737L27.4976 25.9465C27.5385 25.9634 27.5631 25.9719 27.5958 25.9888C27.6694 26.0225 27.7512 26.0563 27.8412 26.107L28.4875 26.4954C29.9355 27.3567 31.4325 28.2433 32.8968 29.13C33.265 29.358 33.4449 29.738 33.5022 29.89C33.674 30.3291 33.8294 30.7766 33.9767 31.2072C34.0503 31.4183 34.1239 31.6295 34.1975 31.8406C34.4021 32.4063 34.6066 32.9636 34.8111 33.5294L34.8438 33.6223L35.9645 33.1916L34.6311 29.434L38.4678 28.7584ZM13.8442 11.0595C13.8442 11.051 13.8524 11.0341 13.8524 11.0173L14.1142 10.004L16.4293 11.7519C16.6093 11.887 16.7893 12.0221 16.9774 12.1657C17.501 12.5625 18.0491 12.9679 18.5808 13.3901C18.818 13.5758 19.0962 13.9474 19.1044 14.378C19.1207 15.3491 19.1207 16.3371 19.1125 17.2913C19.1125 17.5868 19.1125 17.8739 19.1125 18.1695V19.0476L18.2618 18.8703C18.1881 18.8619 18.0573 18.845 17.9182 18.7605L17.7873 18.6845C16.822 18.1103 15.8158 17.5193 14.8341 16.9282C14.6132 16.7931 14.3351 16.4975 14.2942 16.1091C14.1306 14.6736 13.9833 13.2212 13.8361 11.811L13.8033 11.4563C13.7788 11.2706 13.8279 11.1355 13.8442 11.0595ZM13.2552 23.16C12.1018 22.6449 10.932 22.1129 9.80304 21.5978L9.18132 21.3191C9.09133 21.2769 9.02589 21.2347 8.9768 21.1925C8.96044 21.184 8.94408 21.1671 8.91954 21.1502L7.90515 20.4578L9.00135 19.9005C9.05043 19.8752 9.09951 19.8498 9.14042 19.8245C9.2304 19.7738 9.32039 19.7316 9.41856 19.6894C9.78668 19.5205 10.1548 19.3516 10.5229 19.1912C11.3737 18.8028 12.249 18.4059 13.0998 18.009C13.3861 17.8739 13.8361 17.7304 14.376 18.0681C14.9977 18.4566 15.644 18.8365 16.2657 19.2081C16.552 19.377 16.8302 19.5459 17.1165 19.7147C17.2065 19.7654 17.2883 19.8245 17.3701 19.8836C17.411 19.909 17.4519 19.9427 17.501 19.9765L18.4254 20.6183L16.9856 21.488C16.6338 21.6991 16.2902 21.9102 15.9548 22.1129L15.6522 22.2987C15.2022 22.5689 14.7441 22.8475 14.2778 23.1008C14.1224 23.1853 13.9097 23.2528 13.6725 23.2528C13.5252 23.236 13.3861 23.2191 13.2552 23.16ZM19.1125 26.6812C19.1044 26.9767 18.9817 27.4158 18.6544 27.6607C17.64 28.446 16.5929 29.2229 15.5867 29.9828L15.0223 30.405C14.8586 30.5317 14.6869 30.5486 14.6214 30.5486C14.6132 30.5486 14.605 30.5486 14.5887 30.5486L13.697 30.6837L13.8933 28.8007C13.9833 27.9478 14.0733 27.1034 14.1633 26.259C14.1797 26.1407 14.196 26.0225 14.2124 25.9212C14.2369 25.7439 14.2615 25.5834 14.2615 25.4483C14.2287 24.5026 14.9077 24.1141 15.1286 23.9875C15.8158 23.5991 16.4948 23.1937 17.2147 22.7631C17.501 22.5942 17.7873 22.4169 18.09 22.2395L19.1289 21.6231V24.2155C19.1289 24.4181 19.1289 24.6292 19.1289 24.8319C19.1207 25.4483 19.1207 26.0647 19.1125 26.6812ZM20.3396 14.3189C20.3396 14.0065 20.5114 13.6603 20.7568 13.4745C21.7631 12.7061 22.7693 11.9461 23.8246 11.1439L25.7797 9.66618L25.6488 11.2452C25.6407 11.3888 25.6243 11.5155 25.6161 11.6421C25.5916 11.9039 25.5752 12.1488 25.5507 12.3936C25.4361 13.5083 25.2971 14.7749 25.1498 15.9993C25.1171 16.3033 24.9535 16.7002 24.6263 16.9028C23.8082 17.4095 22.982 17.8992 22.1148 18.4143C21.8694 18.5579 21.624 18.7099 21.3704 18.8619L20.3233 19.4867V17.4348C20.3315 16.354 20.3315 15.3407 20.3396 14.3189ZM22.3521 28.8429C22.2212 28.75 22.0985 28.6487 21.9676 28.5558C21.5913 28.2771 21.1986 27.9816 20.8223 27.6776C20.5932 27.4918 20.3396 27.154 20.3396 26.7572C20.3233 25.7692 20.3315 24.7897 20.3315 23.7679C20.3315 23.4808 20.3315 23.1937 20.3315 22.9066V21.7836L21.3213 22.2564C21.3622 22.2733 21.3949 22.2902 21.4277 22.3071C21.5095 22.3409 21.5994 22.3831 21.6894 22.4338C22.0003 22.6195 22.3112 22.8053 22.6302 22.9911C23.2437 23.3626 23.89 23.7426 24.5199 24.1057C24.9289 24.3421 25.1416 24.6968 25.1907 25.1866C25.2889 26.2083 25.4034 27.2554 25.5179 28.2602C25.5588 28.6571 25.6079 29.0455 25.6488 29.4424C25.657 29.5269 25.6652 29.6029 25.6652 29.6957C25.6652 29.7464 25.6734 29.8055 25.6734 29.8731L25.7552 31.393L22.3521 28.8429ZM25.8124 23.1937C25.4689 23.1937 25.1253 23.084 24.7817 22.856C24.1681 22.4506 23.5301 22.0791 22.8674 21.6907C22.5893 21.5302 22.303 21.3613 22.0248 21.1925L21.1004 20.6352L21.9676 19.985C22.0085 19.9596 22.0412 19.9343 22.0657 19.909C22.1394 19.8498 22.2212 19.7907 22.3112 19.7316L22.5157 19.6134C23.3746 19.0983 24.2663 18.5663 25.1498 18.0512C25.4116 17.8992 25.7961 17.7557 26.1642 17.9161C27.3095 18.4228 28.4384 18.9379 29.6328 19.4867L31.9642 20.5507L30.5245 21.2094C30.1318 21.3867 29.7473 21.564 29.3628 21.7329C28.4302 22.1551 27.5467 22.552 26.6796 22.9742C26.3769 23.1262 26.0906 23.1937 25.8124 23.1937Z"/>
</mask>
<path d="M38.4678 28.7584L38.2633 27.5425C38.0997 27.5678 37.9361 27.6016 37.7806 27.6269C36.7744 27.8042 35.8255 27.9647 34.8602 28.1505C34.2139 28.2687 33.6985 28.1842 33.1913 27.8634C32.1033 27.1878 30.9826 26.5207 29.8946 25.879C29.4446 25.6088 28.9865 25.3385 28.5366 25.0683C28.4466 25.0177 28.373 24.9586 28.2912 24.8995C28.2584 24.8741 28.2175 24.8488 28.1766 24.8235L27.1377 24.0973L34.942 20.5423L27.1213 16.9788L28.1848 16.2526C28.2421 16.2189 28.283 16.1851 28.3321 16.1513C28.422 16.0837 28.512 16.0246 28.602 15.974L29.4692 15.4589C30.7617 14.6905 32.0951 13.8883 33.4204 13.1114C33.7231 12.9341 34.1157 12.8581 34.4839 12.9087C34.942 12.9679 35.3919 13.0438 35.8255 13.1283C35.9973 13.1621 36.1609 13.1874 36.3327 13.2212L38.2715 13.5589L38.476 12.343L34.6557 11.659L35.9809 7.90135L34.8602 7.4707C34.8029 7.63114 34.7456 7.78313 34.6884 7.94357C34.3039 9.01598 33.9358 10.0293 33.5758 11.0595C33.4204 11.5155 33.1504 11.8363 32.7332 12.0812C31.6207 12.7399 30.4836 13.4154 29.3955 14.0656C28.962 14.3189 28.5366 14.5807 28.103 14.834C27.9967 14.8931 27.8985 14.9522 27.7758 15.0198C27.7185 15.0536 27.6449 15.0958 27.5713 15.1296L26.4014 15.7966L27.3259 6.96405L20.3315 12.2417V9.67463C20.3315 8.15468 20.3315 6.71917 20.3396 5.26677C20.3396 4.91212 20.5196 4.60813 20.6669 4.42236C20.945 4.05926 21.2395 3.7046 21.5176 3.35839C21.6649 3.18107 21.804 3.00374 21.9512 2.82641C22.3193 2.36198 22.6956 1.89755 23.0719 1.42468L23.1292 1.34868L22.2048 0.554932L19.7261 3.62861L17.2392 0.554932L16.323 1.34868C16.4048 1.45001 16.4866 1.55134 16.5684 1.65267C17.321 2.58997 18.0327 3.47661 18.7526 4.38858C18.9653 4.65879 19.1044 5.04723 19.1044 5.39344C19.1207 6.80361 19.1125 8.23068 19.1125 9.61552V10.4262C19.1125 10.5359 19.1044 10.6288 19.088 10.7301C19.0798 10.7724 19.0798 10.8146 19.0716 10.8653L18.9571 12.1234L12.1181 6.96405L13.0507 15.8135L11.8809 15.1549C11.8155 15.1127 11.7582 15.0873 11.7009 15.0536C11.5946 14.9945 11.5128 14.9522 11.4392 14.9016C11.0547 14.6736 10.6702 14.4371 10.3021 14.2091C9.46764 13.694 8.6005 13.1536 7.72518 12.7145C6.51445 12.1065 5.79456 11.2115 5.44279 9.90262C5.25464 9.20175 4.99286 8.52622 4.7229 7.80002C4.682 7.69025 4.6411 7.58892 4.60019 7.47915L3.47127 7.9098L4.81289 11.659L0.984375 12.343L1.18889 13.5674C1.41795 13.5252 1.63882 13.4914 1.86788 13.4492C2.88227 13.2718 3.92938 13.0861 4.96014 12.9087C5.3119 12.8496 5.71275 12.9256 6.01543 13.103C7.37341 13.8967 8.74775 14.7158 10.073 15.5095L10.9074 16.0077C10.9974 16.0584 11.0792 16.1175 11.161 16.1766C11.2019 16.202 11.2346 16.2357 11.2837 16.2611L12.3308 16.9873L4.53475 20.5423L12.4699 24.1564L10.3593 25.4145C8.80501 26.3434 7.34069 27.2132 5.85182 28.0913C5.59004 28.2518 5.29554 28.2433 5.09103 28.2096C4.77198 28.1589 4.45294 28.0998 4.15026 28.0491C3.97847 28.0154 3.80668 27.99 3.63488 27.9562C2.90681 27.8296 2.17874 27.7029 1.44249 27.5763L1.19707 27.534L0.984375 28.7584L4.80471 29.4424L3.47127 33.1916L4.59201 33.6223L4.6411 33.4872C4.86197 32.8707 5.08285 32.2712 5.29554 31.6717C5.36099 31.4943 5.41825 31.3001 5.47551 31.089C5.62277 30.557 5.79456 29.9575 6.18723 29.4846C6.58807 28.9949 7.14435 28.7078 7.63519 28.4544C7.81516 28.3616 7.99513 28.2687 8.15057 28.1758C9.00135 27.6691 9.84395 27.1625 10.7356 26.6305C11.1119 26.411 11.4882 26.183 11.8727 25.955L13.0589 25.2457L12.1263 34.1458L19.1207 28.8682V30.2784C19.1207 30.7259 19.1125 31.1735 19.1044 31.6041C19.088 32.5668 19.0716 33.4787 19.1371 34.3738C19.2353 35.7333 18.8508 36.8142 17.9264 37.7852C17.4355 38.3003 16.9938 38.8745 16.5193 39.491C16.4539 39.5754 16.3802 39.6683 16.3148 39.7612L17.2392 40.5549L19.7261 37.4813L22.2048 40.5549L23.121 39.7612C23.0392 39.6598 22.9492 39.5501 22.8674 39.4487C22.1148 38.5199 21.4031 37.6333 20.6914 36.7213C20.4705 36.4426 20.3315 36.0457 20.3315 35.6742C20.3151 34.3485 20.3233 33.0059 20.3233 31.697V30.7259C20.3233 30.6246 20.3315 30.5317 20.3315 30.4304C20.3315 30.3797 20.3396 30.3206 20.3396 30.2531L20.4051 28.9189L27.3177 34.1374L26.4096 25.4737L27.4976 25.9465C27.5385 25.9634 27.5631 25.9719 27.5958 25.9888C27.6694 26.0225 27.7512 26.0563 27.8412 26.107L28.4875 26.4954C29.9355 27.3567 31.4325 28.2433 32.8968 29.13C33.265 29.358 33.4449 29.738 33.5022 29.89C33.674 30.3291 33.8294 30.7766 33.9767 31.2072C34.0503 31.4183 34.1239 31.6295 34.1975 31.8406C34.4021 32.4063 34.6066 32.9636 34.8111 33.5294L34.8438 33.6223L35.9645 33.1916L34.6311 29.434L38.4678 28.7584ZM13.8442 11.0595C13.8442 11.051 13.8524 11.0341 13.8524 11.0173L14.1142 10.004L16.4293 11.7519C16.6093 11.887 16.7893 12.0221 16.9774 12.1657C17.501 12.5625 18.0491 12.9679 18.5808 13.3901C18.818 13.5758 19.0962 13.9474 19.1044 14.378C19.1207 15.3491 19.1207 16.3371 19.1125 17.2913C19.1125 17.5868 19.1125 17.8739 19.1125 18.1695V19.0476L18.2618 18.8703C18.1881 18.8619 18.0573 18.845 17.9182 18.7605L17.7873 18.6845C16.822 18.1103 15.8158 17.5193 14.8341 16.9282C14.6132 16.7931 14.3351 16.4975 14.2942 16.1091C14.1306 14.6736 13.9833 13.2212 13.8361 11.811L13.8033 11.4563C13.7788 11.2706 13.8279 11.1355 13.8442 11.0595ZM13.2552 23.16C12.1018 22.6449 10.932 22.1129 9.80304 21.5978L9.18132 21.3191C9.09133 21.2769 9.02589 21.2347 8.9768 21.1925C8.96044 21.184 8.94408 21.1671 8.91954 21.1502L7.90515 20.4578L9.00135 19.9005C9.05043 19.8752 9.09951 19.8498 9.14042 19.8245C9.2304 19.7738 9.32039 19.7316 9.41856 19.6894C9.78668 19.5205 10.1548 19.3516 10.5229 19.1912C11.3737 18.8028 12.249 18.4059 13.0998 18.009C13.3861 17.8739 13.8361 17.7304 14.376 18.0681C14.9977 18.4566 15.644 18.8365 16.2657 19.2081C16.552 19.377 16.8302 19.5459 17.1165 19.7147C17.2065 19.7654 17.2883 19.8245 17.3701 19.8836C17.411 19.909 17.4519 19.9427 17.501 19.9765L18.4254 20.6183L16.9856 21.488C16.6338 21.6991 16.2902 21.9102 15.9548 22.1129L15.6522 22.2987C15.2022 22.5689 14.7441 22.8475 14.2778 23.1008C14.1224 23.1853 13.9097 23.2528 13.6725 23.2528C13.5252 23.236 13.3861 23.2191 13.2552 23.16ZM19.1125 26.6812C19.1044 26.9767 18.9817 27.4158 18.6544 27.6607C17.64 28.446 16.5929 29.2229 15.5867 29.9828L15.0223 30.405C14.8586 30.5317 14.6869 30.5486 14.6214 30.5486C14.6132 30.5486 14.605 30.5486 14.5887 30.5486L13.697 30.6837L13.8933 28.8007C13.9833 27.9478 14.0733 27.1034 14.1633 26.259C14.1797 26.1407 14.196 26.0225 14.2124 25.9212C14.2369 25.7439 14.2615 25.5834 14.2615 25.4483C14.2287 24.5026 14.9077 24.1141 15.1286 23.9875C15.8158 23.5991 16.4948 23.1937 17.2147 22.7631C17.501 22.5942 17.7873 22.4169 18.09 22.2395L19.1289 21.6231V24.2155C19.1289 24.4181 19.1289 24.6292 19.1289 24.8319C19.1207 25.4483 19.1207 26.0647 19.1125 26.6812ZM20.3396 14.3189C20.3396 14.0065 20.5114 13.6603 20.7568 13.4745C21.7631 12.7061 22.7693 11.9461 23.8246 11.1439L25.7797 9.66618L25.6488 11.2452C25.6407 11.3888 25.6243 11.5155 25.6161 11.6421C25.5916 11.9039 25.5752 12.1488 25.5507 12.3936C25.4361 13.5083 25.2971 14.7749 25.1498 15.9993C25.1171 16.3033 24.9535 16.7002 24.6263 16.9028C23.8082 17.4095 22.982 17.8992 22.1148 18.4143C21.8694 18.5579 21.624 18.7099 21.3704 18.8619L20.3233 19.4867V17.4348C20.3315 16.354 20.3315 15.3407 20.3396 14.3189ZM22.3521 28.8429C22.2212 28.75 22.0985 28.6487 21.9676 28.5558C21.5913 28.2771 21.1986 27.9816 20.8223 27.6776C20.5932 27.4918 20.3396 27.154 20.3396 26.7572C20.3233 25.7692 20.3315 24.7897 20.3315 23.7679C20.3315 23.4808 20.3315 23.1937 20.3315 22.9066V21.7836L21.3213 22.2564C21.3622 22.2733 21.3949 22.2902 21.4277 22.3071C21.5095 22.3409 21.5994 22.3831 21.6894 22.4338C22.0003 22.6195 22.3112 22.8053 22.6302 22.9911C23.2437 23.3626 23.89 23.7426 24.5199 24.1057C24.9289 24.3421 25.1416 24.6968 25.1907 25.1866C25.2889 26.2083 25.4034 27.2554 25.5179 28.2602C25.5588 28.6571 25.6079 29.0455 25.6488 29.4424C25.657 29.5269 25.6652 29.6029 25.6652 29.6957C25.6652 29.7464 25.6734 29.8055 25.6734 29.8731L25.7552 31.393L22.3521 28.8429ZM25.8124 23.1937C25.4689 23.1937 25.1253 23.084 24.7817 22.856C24.1681 22.4506 23.5301 22.0791 22.8674 21.6907C22.5893 21.5302 22.303 21.3613 22.0248 21.1925L21.1004 20.6352L21.9676 19.985C22.0085 19.9596 22.0412 19.9343 22.0657 19.909C22.1394 19.8498 22.2212 19.7907 22.3112 19.7316L22.5157 19.6134C23.3746 19.0983 24.2663 18.5663 25.1498 18.0512C25.4116 17.8992 25.7961 17.7557 26.1642 17.9161C27.3095 18.4228 28.4384 18.9379 29.6328 19.4867L31.9642 20.5507L30.5245 21.2094C30.1318 21.3867 29.7473 21.564 29.3628 21.7329C28.4302 22.1551 27.5467 22.552 26.6796 22.9742C26.3769 23.1262 26.0906 23.1937 25.8124 23.1937Z" fill="white" stroke="#0D9A37" stroke-width="0.2" mask="url(#path-1-inside-1_3_920)"/>
</svg>
