<svg width="47" height="42" viewBox="0 0 47 42" fill="none" xmlns="http://www.w3.org/2000/svg">
<g clip-path="url(#clip0_3_908)">
<path d="M12.6496 8.69715C10.14 6.94335 9.49242 4.527 9.59361 1.83783C9.59361 1.56502 9.93765 1.09734 10.1805 1.03888C12.8924 0.571198 16.3531 2.11065 17.6484 4.35162C17.9722 4.89724 18.1746 5.52082 18.3567 5.93004C19.3079 5.05314 20.1781 3.98137 21.3115 3.33831C22.3031 2.77319 23.5781 2.63679 24.7519 2.38346C24.9948 2.325 25.2984 2.65627 25.5817 2.81217C25.2984 2.96806 25.0353 3.26036 24.7519 3.27985C22.1412 3.43574 20.2793 4.56597 19.2674 6.92386C19.146 7.21616 19.0853 7.52795 18.9638 7.89819C24.3472 8.30741 28.7186 10.4315 31.9972 14.4457C35.2555 18.4405 36.2877 23.0004 35.4984 28.1254C36.0448 28.1254 36.5103 28.1254 36.9757 28.1254C39.8698 28.1449 42.7841 28.2033 45.6781 28.1838C46.5484 28.1838 46.8519 28.3982 46.8317 29.2751C46.7508 35.0432 41.7924 40.6358 35.7615 41.6881C32.5841 42.2337 29.5281 41.883 26.6138 40.4799C26.29 40.3241 25.7638 40.2851 25.4198 40.441C14.896 44.8645 3.21861 39.1938 0.769797 28.4372C-1.05163 20.5256 3.4817 12.3217 11.3948 9.18432C11.7591 9.02842 12.1436 8.89202 12.6496 8.69715ZM34.3448 28.1449C36.8138 19.0056 28.7996 8.81407 18.9031 9.02842C18.5996 9.652 18.3365 10.2171 18.0734 10.7822C17.8507 10.4704 17.6281 10.1781 17.365 9.80789C16.8591 9.76892 16.2317 9.67148 15.5841 9.652C14.6936 9.63251 13.7424 9.45713 12.9329 9.71046C4.37218 12.2827 -0.444489 21.0322 2.00432 29.353C4.27099 37.0308 12.1031 41.9999 20.2996 40.8892C21.8579 40.6748 23.3758 40.1487 25.1567 39.72C24.6305 39.2913 24.3877 39.0769 24.1246 38.882C21.0686 36.3683 19.4293 33.1919 19.1865 29.3336C19.146 28.5541 19.3484 28.2228 20.2186 28.2228C22.7888 28.2423 25.3388 28.1644 27.9091 28.1449C30.0746 28.1254 32.2198 28.1449 34.3448 28.1449ZM40.9424 35.8811C39.04 34.3222 37.2388 32.8412 35.5186 31.4186C34.7698 31.7499 34.1424 32.0422 33.5555 32.2955C33.5555 34.5755 33.5555 36.8359 33.5555 39.1549C36.4496 38.9795 38.8377 37.9272 40.9424 35.8811ZM32.5234 39.1159C32.5234 37.401 32.4829 35.7642 32.5436 34.1273C32.5841 32.9776 32.6043 31.9448 31.0865 31.672C30.9043 31.633 30.7424 31.4771 30.54 31.3602C28.7186 32.8801 26.9174 34.3611 25.1162 35.8616C26.9377 37.8298 29.7305 39.0574 32.5234 39.1159ZM20.1377 29.2166C20.6031 34.0883 22.9305 37.7323 27.4638 39.7979C32.2198 41.9804 36.8746 41.4348 41.0234 38.3169C44.0591 36.037 45.6579 32.9776 45.8198 29.2361C44.7877 28.9243 44.8484 29.5674 44.7877 30.0741C44.0591 36.719 37.1174 41.3763 30.3579 39.8564C26.4115 38.9795 21.7567 35.7057 21.0888 29.5479C21.0686 29.431 21.0281 29.3141 20.9674 29.1387C20.7246 29.1387 20.4615 29.1777 20.1377 29.2166ZM24.4484 35.1796C26.1888 33.7375 27.8281 32.4125 29.4269 31.0289C29.6091 30.873 29.771 30.4443 29.69 30.2494C29.5281 29.8402 29.2246 29.1777 28.9412 29.1777C26.6948 29.0997 24.4484 29.1192 22.0805 29.1192C22.2424 31.4186 22.9912 33.3673 24.4484 35.1796ZM43.8567 29.1192C41.5496 29.1192 39.3031 29.0997 37.0567 29.1387C36.49 29.1387 36.0043 30.5612 36.4293 30.912C38.1091 32.3345 39.8293 33.7375 41.5293 35.1406C42.946 33.6011 43.796 31.4186 43.8567 29.1192ZM10.6662 2.77319C10.4234 6.22234 13.4388 9.08688 16.6769 8.67766C16.5758 8.56074 16.515 8.44382 16.4341 8.36588C14.5722 6.55361 12.69 4.74135 10.6662 2.77319ZM17.5269 7.66435C17.7496 4.93622 15.4424 1.93527 11.6984 2.13013C13.621 3.96188 15.6043 5.85209 17.5269 7.66435ZM35.6198 29.1971C33.8388 29.1971 32.1591 29.1971 30.4591 29.1971C30.7829 30.4833 31.6127 31.1653 32.8472 31.2238C34.2638 31.2627 35.1138 30.6781 35.6198 29.1971Z" fill="white"/>
<path d="M18.2759 17.2711C17.8914 17.4854 17.6283 17.7388 17.4259 17.7193C17.2235 17.6803 17.0414 17.388 16.8593 17.1931C17.0819 16.9983 17.2843 16.706 17.5271 16.667C17.7093 16.628 17.9521 16.9788 18.2759 17.2711Z" fill="white"/>
<path d="M11.0307 22.0843C10.6462 22.3376 10.4033 22.6104 10.2212 22.5715C9.99857 22.5325 9.67476 22.2207 9.695 22.0453C9.71523 21.8504 10.039 21.5581 10.2414 21.5192C10.4438 21.4997 10.6664 21.792 11.0307 22.0843Z" fill="white"/>
<path d="M8.96643 16.589C8.70334 16.2188 8.39976 15.9655 8.46048 15.8096C8.54143 15.5757 8.86524 15.4198 9.06762 15.225C9.22953 15.4198 9.51286 15.6342 9.5331 15.8291C9.5331 16.0434 9.24976 16.2383 8.96643 16.589Z" fill="white"/>
<path d="M6.09265 27.5016C6.51765 27.2677 6.76051 26.9949 6.96289 27.0339C7.16527 27.0729 7.32718 27.3847 7.50932 27.5795C7.30694 27.7549 7.10456 28.0472 6.90218 28.0472C6.72003 28.0472 6.49741 27.7744 6.09265 27.5016Z" fill="white"/>
<path d="M24.6307 13.4322C24.8735 13.8024 25.1366 14.0363 25.0961 14.2117C25.0557 14.426 24.7521 14.5819 24.5497 14.7768C24.3473 14.5624 24.0438 14.3676 24.0033 14.1337C23.9831 13.9973 24.3271 13.7635 24.6307 13.4322Z" fill="white"/>
<path d="M12.589 30.3661C12.8521 30.7363 13.1557 30.9702 13.1152 31.165C13.095 31.3599 12.7509 31.5353 12.5485 31.7107C12.3664 31.5158 12.0628 31.3404 12.0223 31.1456C12.0223 30.9507 12.3057 30.7363 12.589 30.3661Z" fill="white"/>
<path d="M5.20212 22.6299C4.83784 22.8832 4.63546 23.1755 4.43308 23.1561C4.2307 23.1366 3.92712 22.8248 3.92712 22.6494C3.92712 22.4545 4.21046 22.1233 4.41284 22.1038C4.59498 22.0843 4.83784 22.3766 5.20212 22.6299Z" fill="white"/>
<path d="M14.6331 11.0159C14.9164 11.3861 15.1795 11.581 15.1997 11.7953C15.22 11.9707 14.8962 12.3215 14.7747 12.302C14.5319 12.263 14.2081 12.0487 14.1676 11.8538C14.1271 11.6589 14.3902 11.4056 14.6331 11.0159Z" fill="white"/>
</g>
<defs>
<clipPath id="clip0_3_908">
<rect width="46.4667" height="41" fill="white" transform="translate(0.365234 0.960693)"/>
</clipPath>
</defs>
</svg>
