<svg width="66" height="68" viewBox="0 0 66 68" fill="none" xmlns="http://www.w3.org/2000/svg">
<rect x="0.398438" y="0.933594" width="65.2051" height="66.5924" rx="12" fill="#F15A2B"/>
<path d="M20.8447 37.2814V35.9117H15.4517V36.6607L13.5684 35.2162L15.3982 33.8144V34.4886H20.8447V33.1189H16.7571V31.0323L11.332 35.2269L16.8213 39.4321V37.2814H20.8447Z" fill="white"/>
<path d="M33.5032 21.9796C40.8009 21.9689 46.9108 28.0468 46.6647 35.644C46.4399 42.61 40.6724 48.4845 33.2892 48.3989C26.0557 48.3133 20.1812 42.396 20.2347 35.0662C20.2989 27.7899 26.2697 21.9154 33.5032 21.9796ZM29.5441 34.6168C30.5178 34.6168 31.4915 34.6168 32.4546 34.6168C32.5509 34.6168 32.6472 34.6168 32.7542 34.6168C32.8612 34.6168 32.9147 34.5526 32.9254 34.4456C32.9254 34.4028 32.9254 34.3493 32.9254 34.3065C32.9254 33.2578 32.9254 32.2092 32.9254 31.1606C32.9254 30.9359 32.8933 30.9038 32.6686 30.8931C32.2941 30.861 31.9302 30.8289 31.5557 30.7861C31.0742 30.7219 30.5927 30.6576 30.1112 30.572C29.6832 30.4864 29.2552 30.3794 28.8271 30.251C28.4205 30.1333 28.0246 29.9728 27.6287 29.8337C27.4896 29.7802 27.3826 29.823 27.3291 29.9621C27.297 30.037 27.2649 30.1119 27.2328 30.1868C27.0937 30.5185 26.9439 30.8503 26.8262 31.182C26.6871 31.5672 26.5801 31.9631 26.4624 32.359C26.259 33.0224 26.1734 33.7073 26.0985 34.3921C26.0771 34.5847 26.152 34.6489 26.3447 34.6489C26.4731 34.6489 26.6122 34.6382 26.7406 34.6382C27.6822 34.6168 28.6131 34.6168 29.5441 34.6168ZM34.3699 32.7228H34.3592C34.3592 33.2578 34.3592 33.7929 34.3592 34.3279C34.3592 34.5847 34.402 34.6275 34.6695 34.6275C36.6491 34.6275 38.6287 34.6275 40.6082 34.6382C40.7153 34.6382 40.7688 34.5954 40.7795 34.4884C40.7795 34.4242 40.7795 34.3707 40.7795 34.3065C40.7367 34.0069 40.7153 33.7073 40.651 33.4183C40.5333 32.8512 40.4156 32.2734 40.2551 31.7277C40.0839 31.182 39.8485 30.6469 39.6452 30.1119C39.581 29.9514 39.4847 29.9086 39.3135 29.9728C39.1851 30.0156 39.0567 30.0798 38.9176 30.1226C38.6394 30.2082 38.3719 30.2831 38.0937 30.3473C37.5372 30.4757 36.9808 30.6255 36.4137 30.7112C35.8038 30.8075 35.1939 30.8396 34.5732 30.9038C34.402 30.9252 34.3592 30.9573 34.3592 31.1285C34.3699 31.6528 34.3699 32.1878 34.3699 32.7228ZM29.5441 36.1255C28.9769 36.1255 28.4098 36.1255 27.832 36.1255C27.3719 36.1255 26.9118 36.1362 26.441 36.1255C26.1627 36.1255 26.1092 36.1683 26.1627 36.4466C26.2269 36.8211 26.2804 37.2063 26.3661 37.5808C26.4731 38.0409 26.6122 38.501 26.7406 38.9611C26.7834 39.1109 26.8369 39.2607 26.9011 39.4106C27.0188 39.7102 27.1579 39.9991 27.2756 40.2987C27.404 40.6197 27.3933 40.609 27.725 40.4913C28.1958 40.3308 28.6666 40.1596 29.1588 40.0419C29.7581 39.8921 30.368 39.7744 30.9779 39.6781C31.5343 39.5925 32.0907 39.5604 32.6472 39.5069C32.8826 39.4855 32.9254 39.4534 32.9254 39.2072C32.9254 38.3191 32.9254 37.431 32.9254 36.5322C32.9254 36.4466 32.9254 36.3717 32.9254 36.286C32.9147 36.1897 32.8719 36.1362 32.7649 36.1362C32.7221 36.1362 32.6686 36.1362 32.6258 36.1362C31.5985 36.1255 30.5713 36.1255 29.5441 36.1255ZM37.58 36.1362C37.58 36.1362 37.58 36.1255 37.58 36.1362C36.5956 36.1255 35.6219 36.1255 34.6374 36.1255C34.4127 36.1255 34.3592 36.179 34.3592 36.3931C34.3592 37.3347 34.3592 38.2763 34.3592 39.2179C34.3592 39.4427 34.4127 39.4962 34.6374 39.5069C34.9263 39.5176 35.2153 39.5283 35.4935 39.5604C36.5528 39.6781 37.5907 39.9028 38.618 40.2024C38.8427 40.2666 39.0674 40.3522 39.2921 40.4378C39.4526 40.502 39.5489 40.4806 39.6238 40.3094C39.6666 40.2131 39.7094 40.1168 39.7415 40.0205C39.8699 39.6995 40.009 39.3892 40.116 39.0681C40.2765 38.5759 40.4263 38.073 40.544 37.5701C40.6403 37.1742 40.6938 36.7676 40.7581 36.3609C40.7795 36.2004 40.7153 36.1362 40.5547 36.1362C40.4049 36.1362 40.2444 36.1362 40.0946 36.1362C39.26 36.1362 38.4254 36.1362 37.58 36.1362ZM23.1773 34.6275C23.5947 34.6275 24.012 34.6275 24.4186 34.6275C24.6219 34.6275 24.6754 34.5847 24.6968 34.3814C24.7824 33.5896 24.9001 32.7977 25.0927 32.0166C25.2746 31.2997 25.5207 30.6148 25.7882 29.93C25.8524 29.7588 25.938 29.5876 26.0236 29.4164C26.1199 29.2452 26.0878 29.1382 25.9059 29.0419C25.6705 28.9242 25.4351 28.7958 25.2104 28.6567C24.8894 28.4534 24.5791 28.2287 24.2688 28.0147C24.1832 27.9612 24.0976 27.9505 24.0441 28.0361C23.8301 28.3464 23.6054 28.6567 23.402 28.9777C23.1987 29.3094 23.0275 29.6411 22.8456 29.9835C22.7065 30.251 22.5781 30.5292 22.4711 30.8075C22.332 31.182 22.225 31.5565 22.0966 31.931C21.8933 32.5195 21.8077 33.1401 21.7221 33.7501C21.69 33.9534 21.6793 34.1567 21.6686 34.36C21.6579 34.5526 21.7114 34.6061 21.904 34.6061C22.332 34.6275 22.7493 34.6275 23.1773 34.6275ZM43.6579 34.6275C44.1073 34.6275 44.5674 34.6275 45.0168 34.6275C45.1666 34.6275 45.2415 34.5633 45.2415 34.4135C45.2415 34.3386 45.2308 34.2744 45.2201 34.1995C45.1666 33.5682 45.0703 32.9368 44.9098 32.3162C44.8242 31.9952 44.7386 31.6742 44.6316 31.3532C44.5139 31.0108 44.3641 30.6791 44.225 30.3473C44.1073 30.0798 43.9682 29.8123 43.8291 29.5555C43.7007 29.3201 43.5722 29.0847 43.4224 28.86C43.2833 28.646 43.1228 28.432 42.973 28.218C42.9195 28.1431 42.8553 28.1324 42.7911 28.1966C42.7055 28.2608 42.6306 28.325 42.545 28.3785C42.0421 28.6674 41.5499 28.9456 41.047 29.2345C40.9079 29.3094 40.8758 29.4164 40.94 29.5555C41.0363 29.7588 41.1326 29.9728 41.2182 30.1868C41.3573 30.5506 41.4964 30.9145 41.6034 31.289C41.7532 31.7919 41.8923 32.2948 41.9886 32.7977C42.0849 33.322 42.1384 33.8678 42.2026 34.4028C42.224 34.5847 42.2989 34.6382 42.4701 34.6382C42.866 34.6275 43.2619 34.6275 43.6579 34.6275ZM23.1773 36.1148V36.1255C23.1131 36.1255 23.0596 36.1255 22.9954 36.1255C22.6316 36.1255 22.2678 36.1255 21.904 36.1255C21.7221 36.1255 21.6793 36.1683 21.69 36.3502C21.69 36.3823 21.7007 36.4145 21.7007 36.4573C21.7328 36.6927 21.7756 36.9281 21.8077 37.1635C21.9147 37.8697 22.0966 38.5652 22.3534 39.2286C22.5567 39.753 22.8135 40.2559 23.0596 40.7695C23.3164 41.3152 23.6696 41.7967 24.012 42.289C24.0762 42.3853 24.1618 42.396 24.2581 42.3425C24.3223 42.3104 24.3651 42.2462 24.4293 42.2141C24.9429 41.9037 25.4458 41.5934 25.9594 41.2831C26.0878 41.2082 26.1199 41.144 26.0557 41.0156C25.938 40.7374 25.7989 40.4699 25.6919 40.1917C25.5528 39.8386 25.4244 39.4748 25.3067 39.1216C25.2104 38.8327 25.1355 38.5438 25.0713 38.2442C24.9857 37.9018 24.9108 37.5487 24.8466 37.2063C24.7931 36.9388 24.7717 36.6606 24.7396 36.3931C24.7075 36.1897 24.6433 36.1255 24.4935 36.1255C24.0548 36.1148 23.6161 36.1148 23.1773 36.1148ZM32.9254 43.7228H32.9361C32.9361 42.8454 32.9361 41.9679 32.9361 41.0905C32.9361 40.9514 32.8826 40.8872 32.7435 40.8979C32.583 40.8979 32.4225 40.8979 32.2513 40.9193C31.8232 40.9621 31.4059 41.0156 30.9779 41.0798C30.6248 41.1333 30.261 41.2189 29.9079 41.2938C29.6083 41.3687 29.3087 41.4436 29.009 41.5399C28.7522 41.6148 28.4954 41.7111 28.2386 41.8074C28.153 41.8395 28.1102 41.9037 28.1744 42C28.3777 42.2997 28.5703 42.61 28.7843 42.8989C29.1053 43.3269 29.4478 43.7442 29.7902 44.1401C30.2075 44.6323 30.689 45.0711 31.1919 45.467C31.5236 45.7238 31.8874 45.9592 32.2406 46.1946C32.4011 46.3016 32.5723 46.3765 32.7328 46.4621C32.8505 46.5263 32.904 46.4942 32.904 46.3444C32.904 46.3123 32.904 46.2802 32.904 46.2588C32.9254 45.4242 32.9254 44.5788 32.9254 43.7228ZM32.7007 29.5127C32.8719 29.4913 32.9147 29.4485 32.9254 29.288C32.9254 29.2024 32.9254 29.1168 32.9254 29.0312C32.9254 27.4368 32.9254 25.8425 32.9254 24.2481C32.9254 24.1946 32.9361 24.1411 32.9254 24.0983C32.9147 24.0341 32.9147 23.9271 32.8826 23.9164C32.8184 23.895 32.7328 23.9057 32.6686 23.9378C32.4546 24.0555 32.2406 24.1946 32.0265 24.323C31.5236 24.6226 31.0742 24.9865 30.6462 25.3717C29.8009 26.1314 29.0839 26.9981 28.4633 27.9398C28.367 28.0789 28.2707 28.218 28.1851 28.3678C28.1209 28.4855 28.1423 28.539 28.26 28.5818C28.3884 28.6246 28.5168 28.6781 28.6452 28.7209C29.3087 28.9349 29.9828 29.1382 30.6783 29.2345C31.3524 29.3415 32.0265 29.4271 32.7007 29.5127ZM42.4487 36.1469C42.2454 36.1255 42.1919 36.1897 42.1598 36.3931C42.1384 36.6392 42.1063 36.8853 42.0635 37.1314C42.01 37.4631 41.9351 37.7948 41.8602 38.1265C41.796 38.4154 41.7104 38.7043 41.6355 38.9932C41.5499 39.2715 41.4643 39.5497 41.3573 39.8172C41.2396 40.1275 41.1326 40.4378 40.9828 40.7267C40.833 41.0263 40.8437 41.0905 41.1433 41.2189C41.154 41.2189 41.1647 41.2296 41.1754 41.2296C41.4108 41.358 41.6569 41.4864 41.8923 41.6255C42.1705 41.7967 42.438 41.9893 42.7162 42.1606C42.8339 42.2355 42.9088 42.2248 42.9837 42.107C43.2512 41.7004 43.5294 41.3045 43.7649 40.8765C44.0324 40.395 44.2785 39.9028 44.4711 39.3892C44.6637 38.8862 44.8242 38.3619 44.9526 37.8376C45.0703 37.3668 45.1131 36.8746 45.188 36.3931C45.2201 36.179 45.1452 36.1148 44.9419 36.1362C44.8991 36.1362 44.867 36.1469 44.8242 36.1469C44.0324 36.1469 43.2405 36.1469 42.4487 36.1469ZM34.3592 26.7627C34.3592 26.7627 34.3699 26.7627 34.3592 26.7627C34.3592 27.5973 34.3592 28.4213 34.3592 29.2559C34.3592 29.4592 34.4234 29.5234 34.6267 29.502C35.0441 29.4592 35.4507 29.4164 35.868 29.3629C36.8203 29.2452 37.7512 28.9991 38.6715 28.7102C38.832 28.6567 38.8534 28.5604 38.7571 28.4213C38.6608 28.2715 38.5538 28.1217 38.4575 27.9719C38.1686 27.5652 37.8904 27.1479 37.58 26.7627C37.0236 26.0779 36.4244 25.4466 35.7182 24.9222C35.3544 24.6547 34.9691 24.3979 34.5946 24.1411C34.4341 24.0341 34.3592 24.0769 34.3592 24.2802C34.3592 25.1042 34.3592 25.9281 34.3592 26.7627ZM34.3699 43.573C34.3592 44.4076 34.3592 45.253 34.3592 46.0876C34.3592 46.1411 34.3913 46.2481 34.4127 46.2588C34.4876 46.2695 34.5732 46.2588 34.6374 46.2267C34.8835 46.0769 35.119 45.9164 35.3437 45.7452C35.9643 45.2851 36.5421 44.7928 37.045 44.215C37.4623 43.7335 37.8475 43.2306 38.2328 42.7277C38.4254 42.4709 38.5966 42.1927 38.7571 41.9251C38.832 41.8074 38.8106 41.7539 38.6822 41.7111C38.3933 41.6148 38.1044 41.5078 37.8047 41.4329C37.1627 41.2938 36.5314 41.1547 35.8787 41.0477C35.44 40.9728 34.9906 40.9514 34.5518 40.9086C34.3806 40.8979 34.3378 40.9514 34.3378 41.1119C34.3699 41.9251 34.3699 42.7491 34.3699 43.573ZM41.9244 27.0195C41.8923 26.966 41.8709 26.9125 41.8388 26.8697C41.4108 26.4952 40.9828 26.11 40.5333 25.7462C40.2123 25.4894 39.8699 25.2754 39.5168 25.0614C39.1851 24.858 38.832 24.6654 38.4789 24.4942C38.1686 24.3444 37.8475 24.216 37.5265 24.0876C37.3446 24.0127 37.1734 23.9378 36.9915 23.8843C36.9487 23.8736 36.8845 23.9057 36.831 23.9164C36.8524 23.9592 36.8631 24.0127 36.8952 24.0448C36.9808 24.1304 37.0878 24.2053 37.1734 24.2909C37.7512 24.8045 38.2649 25.361 38.7571 25.9602C39.26 26.5701 39.6987 27.2335 40.1053 27.9077C40.2016 28.0682 40.223 28.0789 40.3835 27.9933C40.5975 27.8863 40.8116 27.7685 41.0256 27.6401C41.3038 27.4796 41.5713 27.3084 41.8495 27.1479C41.8816 27.1158 41.8923 27.073 41.9244 27.0195ZM41.9244 43.3697C41.8816 43.3269 41.8495 43.2841 41.8174 43.2627C41.3573 42.9845 40.8865 42.7063 40.4156 42.4388C40.2123 42.3211 40.2016 42.3211 40.0732 42.5351C40.0518 42.5672 40.0197 42.5993 39.9983 42.6421C39.6559 43.1557 39.3242 43.6693 38.9604 44.1615C38.3719 44.9426 37.7191 45.6703 36.9487 46.2695C36.9059 46.3016 36.8738 46.3551 36.8524 46.4086C36.8417 46.43 36.831 46.4728 36.8524 46.4835C36.8631 46.4942 36.9059 46.5049 36.938 46.4942C37.2055 46.3979 37.473 46.323 37.7298 46.2053C38.1258 46.0341 38.5003 45.8415 38.8855 45.6596C39.474 45.3921 39.9983 45.0283 40.5119 44.643C40.9721 44.3006 41.3787 43.894 41.8174 43.5195C41.8495 43.4874 41.8816 43.4232 41.9244 43.3697ZM30.0898 46.4942C30.1005 46.4835 30.1005 46.4621 30.1112 46.4514C30.0577 46.3765 30.0042 46.3016 29.9293 46.2374C29.8223 46.1411 29.7046 46.0555 29.6083 45.9592C28.8592 45.2637 28.1744 44.5039 27.5966 43.6586C27.3505 43.2948 27.1044 42.931 26.869 42.5565C26.7941 42.4388 26.7299 42.4174 26.6122 42.4923C26.5373 42.5351 26.4731 42.5779 26.4089 42.6207C26.0129 42.8668 25.617 43.1022 25.2211 43.359C25.082 43.4553 25.082 43.4981 25.2104 43.6158C25.6919 44.0652 26.1734 44.5146 26.7406 44.8677C27.0295 45.0497 27.3077 45.253 27.5966 45.4242C27.9497 45.6168 28.3028 45.7987 28.6773 45.9592C29.1053 46.1411 29.5548 46.3016 29.9828 46.4728C30.0149 46.5049 30.0577 46.4942 30.0898 46.4942ZM25.1141 26.8697C25.1569 26.9232 25.189 26.966 25.2318 27.0088C25.2746 27.0409 25.3174 27.0623 25.3602 27.0837C25.7882 27.3405 26.2055 27.5973 26.6229 27.8542C26.7299 27.9184 26.7941 27.8863 26.869 27.7792C27.1686 27.3298 27.4468 26.8697 27.7785 26.4417C28.1744 25.9281 28.6024 25.4252 29.0411 24.9437C29.3408 24.6226 29.6832 24.3444 30.0042 24.0448C30.0363 24.0127 30.047 23.9592 30.0684 23.9164C30.0149 23.9057 29.9614 23.895 29.9186 23.895C29.8865 23.895 29.8544 23.9164 29.8223 23.9271C29.6083 24.0127 29.3943 24.0876 29.1909 24.1732C28.8806 24.3016 28.5703 24.4193 28.2814 24.5691C27.9497 24.7296 27.6394 24.9222 27.3291 25.1042C27.0509 25.2754 26.762 25.4359 26.5052 25.6392C26.0664 25.9816 25.6384 26.3561 25.2211 26.7092C25.1783 26.752 25.1569 26.8055 25.1141 26.8697Z" fill="white"/>
<path d="M46.2168 33.1831V34.5528H51.6098V33.8037L53.493 35.2483L51.6633 36.65V35.9866H46.2168V37.3456H50.3043V39.4321L55.7294 35.2483L50.2401 31.0323V33.1831H46.2168Z" fill="white"/>
<path d="M26.8587 46.0771L25.8956 45.1141L22.0863 48.9234L22.6213 49.4584L20.2672 49.7688L20.5562 47.4789L21.0377 47.9497L24.8898 44.0976L23.9268 43.1345L21.0377 46.0236L19.561 44.547L18.6836 51.3524L25.5425 50.4429L24.0124 48.9234L26.8587 46.0771Z" fill="white"/>
<path d="M40.0957 23.9592L41.0587 24.9223L44.8681 21.1129L44.3331 20.5886L46.6871 20.2783L46.3982 22.5575L45.9167 22.0867L42.0646 25.9388L43.0276 26.9018L45.9167 24.0127L47.3934 25.4894L48.2708 18.684L41.4119 19.5935L42.942 21.1129L40.0957 23.9592Z" fill="white"/>
<path d="M24.1835 26.5381L25.1465 25.5643L21.3372 21.755L20.8022 22.29L20.4919 19.936L22.7817 20.2249L22.3109 20.7064L26.1631 24.5585L27.1261 23.5955L24.237 20.7064L25.7136 19.2297L18.9082 18.3523L19.8177 25.2112L21.3372 23.6918L24.1835 26.5381Z" fill="white"/>
<path d="M43.1965 42.8668L42.2335 43.8299L46.0428 47.6392L46.5778 47.1149L46.8881 49.4583L44.5983 49.1693L45.0691 48.6878L41.2169 44.8357L40.2539 45.8094L43.143 48.6878L41.6664 50.1645L48.4718 51.0419L47.5623 44.1937L46.0428 45.7131L43.1965 42.8668Z" fill="white"/>
</svg>
