<svg width="23" height="22" viewBox="0 0 23 22" fill="none" xmlns="http://www.w3.org/2000/svg">
<path fill-rule="evenodd" clip-rule="evenodd" d="M20.9483 20.8643V18.6689V12.2946V10.3643H21.4258C21.9529 10.3643 22.3803 10.0188 22.3803 9.49161V7.06778C22.3803 6.81626 22.288 6.575 22.1109 6.39626L19.994 4.25115V1.77339C19.994 1.24625 19.5527 0.818848 19.0256 0.818848H3.78053C3.25338 0.818848 2.81215 1.24625 2.81215 1.77339V4.25115L0.695202 6.39626C0.518134 6.575 0.425781 6.81626 0.425781 7.06778V9.49161C0.425781 10.0188 0.853179 10.3643 1.38033 10.3643H1.85742V12.2946V18.6689V20.8643C1.85742 21.3906 2.30096 21.8174 2.82693 21.8188C2.82783 21.8189 2.82873 21.8189 2.82963 21.8189H12.5782C12.5787 21.8189 12.5792 21.8189 12.5797 21.8189C13.1062 21.818 13.5506 21.3909 13.5506 20.8643V18.6689V15.853H15.7637L15.7642 20.9085C15.7642 21.4347 16.1901 21.8175 16.7161 21.8188C16.7169 21.8189 16.7178 21.8189 16.7187 21.8189H19.9924C19.9929 21.8189 19.9934 21.8189 19.9939 21.8189C20.5203 21.818 20.9483 21.3909 20.9483 20.8643ZM3.76651 10.3643V12.2946V19.9098H11.6415V14.8104V14.8103C11.6415 14.2832 12.051 13.9438 12.5782 13.9438H16.7183C16.9994 13.9438 17.2335 14.0403 17.3908 14.2104C17.5286 14.3592 17.6074 14.5643 17.6074 14.8103C17.6074 14.8103 17.6074 14.8104 17.6074 14.8104V19.9098H19.0392V12.2946V10.3643H3.76651ZM2.33398 8.45507H20.4704V7.46019L18.5085 5.59143H4.29581L2.33398 7.46019V8.45507ZM18.0863 3.92121H4.72266V2.72803H18.0863V3.92121Z" fill="#333333"/>
</svg>
