<svg width="40" height="38" viewBox="0 0 40 38" fill="none" xmlns="http://www.w3.org/2000/svg">
<path d="M34.2974 28.7062C34.6303 27.9571 35.1297 27.1247 36.2118 27.0415C36.3782 27.0415 36.5447 26.9583 36.6279 26.7918C38.3759 25.7098 39.2082 24.2115 39.0417 22.2972C38.8753 20.466 37.8764 19.1343 35.8788 18.1354C35.2962 17.8857 34.7968 17.3031 34.6303 16.8037C33.9644 14.9725 32.9656 13.3911 31.7171 11.9761C31.5506 11.8096 31.3842 11.5599 31.1345 11.3102L30.5518 10.6444L30.968 10.4779C31.0512 10.3947 31.2177 10.3947 31.2177 10.3947C31.3842 10.3114 31.5507 10.3114 31.6339 10.2282C37.0441 9.14615 36.9609 4.1521 36.7112 1.98801C36.7112 1.4886 36.5447 0.905963 35.6291 0.989198L34.9633 1.07243C33.798 1.2389 32.6327 1.32213 31.4674 1.73831C29.4698 2.40418 28.3877 3.90239 28.0548 6.31619C27.8883 7.39823 27.8883 7.89764 27.4722 8.14734C27.056 8.39704 26.6398 8.14734 25.641 7.8144C25.5578 7.8144 25.5578 7.8144 25.4746 7.73117C25.3913 7.73117 25.3913 7.73117 25.3081 7.64793C21.3128 6.23295 17.4008 6.39942 13.5721 8.06411C13.0727 8.23057 12.7397 8.39704 12.4068 8.23057C12.0738 8.06411 11.9906 7.64793 11.9074 7.06529C11.8241 6.23295 11.6577 5.40061 11.408 4.56827C10.4924 1.73831 7.41273 1.07243 5.08217 1.07243C4.666 1.07243 4.24983 1.07243 3.9169 1.15567C3.75043 1.15567 3.25102 1.73831 3.25102 2.07124C3.16779 3.07005 3.25102 4.23533 3.41749 5.40061C3.66719 7.48147 4.91571 8.97968 6.99656 9.72879C7.41273 9.89526 7.91214 10.0617 8.32831 10.2282L9.16065 10.4779V10.7276C9.16065 10.8108 9.16065 10.8108 9.16065 10.8108C9.16065 10.8941 9.16065 11.0605 9.07742 11.1438C8.99418 11.227 8.91095 11.3102 8.82771 11.3935C8.74448 11.4767 8.66124 11.6432 8.57801 11.7264C8.32831 12.1426 8.07861 12.5588 7.8289 12.9749C6.99656 14.2234 6.16422 15.5552 5.49834 16.8869C5.16541 17.4696 4.83247 17.969 4.08336 18.3019C2.16898 19.1343 1.17017 20.466 1.0037 22.3804C0.83723 24.5445 1.75281 26.1259 3.50072 26.7918C5.16541 27.4577 5.83128 28.5397 6.41392 29.8715C6.66362 30.3709 6.91333 30.787 7.24626 31.2032C11.2415 37.2793 19.5649 39.6931 26.3901 36.6967C29.9692 35.1152 32.7159 32.3685 34.2974 28.7062ZM30.3854 3.73593C31.3842 2.65388 32.7992 2.07124 34.5471 2.07124C34.9633 2.07124 35.2962 2.07124 35.4627 2.32094C35.7124 2.57065 35.7956 3.07005 35.7124 3.98563C35.6291 8.14734 32.7992 9.06292 30.3854 9.31262C30.3021 9.31262 30.2189 9.31262 30.1357 9.31262C29.8027 9.31262 29.553 9.22938 29.3866 9.06291C29.1369 8.81321 28.9704 8.48028 28.9704 7.98087C28.8872 6.31619 29.3866 4.81797 30.3854 3.73593ZM20.8134 8.06411C20.9799 7.89764 21.3128 7.73117 22.062 7.89764C23.8099 8.39704 25.7243 8.97968 27.3889 9.81202C29.2201 10.7276 30.8015 12.2258 32.2998 14.4731C32.4662 14.7228 32.6327 15.2222 32.4662 15.5552C32.383 15.8049 32.0501 15.8881 31.8836 15.9714C31.8004 15.9714 31.8004 15.9714 31.8004 15.9714H31.7171H31.6339C28.2213 15.5552 25.1416 14.9725 22.8111 12.642C21.9787 11.8096 21.4793 10.6444 20.8967 9.56232L20.8134 9.31262C20.5637 8.56351 20.647 8.23057 20.8134 8.06411ZM4.1666 3.81916C4.1666 2.98682 4.1666 2.48741 4.49953 2.23771C4.83247 1.98801 5.33188 1.98801 6.08098 2.07124C9.49359 2.57065 11.1583 4.56827 11.075 7.98087C11.075 8.31381 10.9918 8.81321 10.6589 9.06291C10.4924 9.22938 10.2427 9.31262 9.90976 9.31262C9.82652 9.31262 9.82652 9.31262 9.74329 9.31262C6.16422 8.97968 4.33307 7.23176 4.1666 3.81916ZM7.49597 15.3887C7.5792 15.3055 7.5792 15.139 7.66243 15.0558C7.74567 14.8061 7.8289 14.4731 7.99537 14.2234C10.1595 10.9773 13.3224 8.89645 17.4841 7.98087C17.5673 7.98087 17.7338 7.98087 17.817 7.89764C18.4829 7.8144 18.9823 7.8144 19.232 8.14734C19.4817 8.48028 19.3985 8.97968 19.232 9.64555C18.4829 12.0593 16.735 13.724 13.9882 14.8061C12.9062 15.2222 11.7409 15.4719 10.6589 15.8049C10.1595 15.8881 9.74329 16.0546 9.32712 16.1378H9.24388L7.49597 15.8049V15.3887ZM19.7314 36.8631C14.4876 36.8631 10.4092 34.4493 7.49597 29.705C7.16303 29.2888 6.99656 28.7894 6.74686 28.29C6.58039 27.8738 6.33069 27.4577 6.16422 27.0415C5.99775 26.7086 5.58158 26.4589 5.24864 26.3756C3.33426 25.9595 2.00251 24.6277 1.91927 22.963C1.75281 21.2983 3.00132 19.7169 4.83247 19.1343C5.58158 18.9678 5.91452 18.7181 6.16422 17.969C6.33069 17.4696 7.24626 17.1366 7.74567 17.1366C10.4924 16.8869 13.3224 16.4708 15.8194 14.9725C16.6517 14.4731 17.4841 13.724 18.1499 12.9749C18.4829 12.642 18.8158 12.3923 19.1488 12.0593C19.3152 11.8929 19.4817 11.7264 19.5649 11.6432C19.6482 11.5599 19.6482 11.5599 19.6482 11.4767L19.8146 11.227L20.0643 11.3935C20.4805 11.8096 20.8967 12.1426 21.3128 12.5588C22.1452 13.3911 22.9775 14.1402 23.8931 14.7228C26.5566 16.4708 29.7195 16.8037 32.2165 16.9702C32.9656 17.0534 33.798 17.1366 34.0477 18.3019C34.1309 18.4684 34.4638 18.7181 34.7135 18.8013L34.88 18.9678C35.1297 19.1343 35.3794 19.3007 35.7124 19.384C36.295 19.6337 36.7944 19.9666 37.2106 20.3828C38.0429 21.3816 38.2926 22.6301 37.8764 23.7121C37.4603 24.8774 36.4615 25.793 35.1297 26.0427C34.2141 26.2092 33.798 26.7086 33.465 27.5409C31.2177 33.1176 27.056 36.1973 21.1464 36.6134C20.7302 36.8631 20.2308 36.8631 19.7314 36.8631Z" fill="white"/>
<path d="M14.9883 28.7061C14.9051 28.8726 14.9883 29.2888 15.0716 29.4552C15.571 31.5361 17.5686 33.0343 19.9824 33.0343H20.0656C22.5626 33.0343 24.5603 31.5361 25.0597 29.2888C25.2261 28.4564 25.0597 28.2067 24.7267 28.1235C24.5603 28.0403 24.3938 28.0403 24.3106 28.1235C24.1441 28.2067 24.0609 28.6229 23.9776 28.8726V28.9558C23.7279 30.3708 22.8123 31.2864 21.3141 31.7026C20.0656 32.1187 18.6506 31.869 17.5686 31.1199C16.5698 30.4541 15.9871 29.5385 15.9039 28.3732C15.9039 28.29 15.6542 28.0403 15.4877 27.957C15.4045 28.2067 15.1548 28.4564 14.9883 28.7061Z" fill="white"/>
<path d="M26.3896 19.3008C24.8914 19.3008 23.4764 20.5493 23.4764 21.7978C23.4764 21.9643 23.6429 22.214 23.8094 22.4637L23.8926 22.5469C24.1423 22.3804 24.3088 22.214 24.5585 21.9643V21.881C24.5585 21.7978 24.5585 21.7146 24.6417 21.6313C24.8914 21.0487 25.3076 20.5493 25.8902 20.4661C26.0567 20.4661 26.1399 20.3828 26.3064 20.3828C26.7226 20.3828 27.0555 20.5493 27.3884 20.799C27.6381 21.0487 27.8046 21.2984 27.9711 21.6313C28.0543 21.7978 28.1376 21.9643 28.304 22.1307C28.7202 22.7134 28.9699 22.7134 28.9699 22.7134C29.0531 22.7134 29.2196 22.4637 29.3028 22.2972L29.3861 22.214C29.3861 21.5481 29.0531 20.799 28.5537 20.2996C27.9711 19.6337 27.222 19.3008 26.3896 19.3008Z" fill="white"/>
<path d="M13.6555 19.3008C12.1573 19.3008 10.8255 20.4661 10.7423 21.7146C10.7423 22.0475 10.992 22.5469 11.1585 22.6301C11.3249 22.7134 11.4082 22.7134 11.4082 22.6301C11.5747 22.5469 11.6579 22.2972 11.7411 22.0475V21.9643C11.7411 21.7978 11.8244 21.6313 11.9076 21.4649C11.9908 21.3816 12.1573 21.2152 12.2405 21.1319C12.6567 20.799 12.9896 20.3828 13.489 20.3828C13.9884 20.2996 14.4878 20.7158 14.904 21.1319C14.9873 21.2152 15.0705 21.2984 15.1537 21.2984C15.3202 21.4649 15.4034 21.6313 15.4034 21.7978C15.4034 21.881 15.4867 21.9643 15.4867 22.0475C15.6531 22.214 15.8196 22.3804 16.0693 22.5469L16.1525 22.4637C16.319 22.2972 16.4855 22.0475 16.4855 21.881C16.4855 21.2984 16.2358 20.6325 15.7364 20.2164C15.237 19.6337 14.4878 19.3008 13.6555 19.3008Z" fill="white"/>
</svg>
