<svg width="219" height="66" viewBox="0 0 219 66" fill="none" xmlns="http://www.w3.org/2000/svg">
<path d="M10.0781 0.427734L21.5375 11.8871H53.4907V43.8879L64.9501 55.3473V0.427734H10.0781Z" fill="#0D9A37"/>
<path d="M0.425781 11.8871V64.9522H53.4909V43.8878L21.5377 11.8871H0.425781ZM43.4104 57.2016H8.84202V21.4921H11.267V54.7291H43.4104V57.2016V57.2016Z" fill="#2C2C2C"/>
<path d="M94.29 31.4301C94.813 30.5266 95.3361 29.6232 95.8591 28.7198C98.3792 24.2026 100.899 19.6854 103.467 15.1682C103.61 14.8829 104.133 14.5976 104.466 14.5976C106.272 14.55 108.127 14.5976 109.934 14.55C110.552 14.55 110.79 14.6927 110.79 15.3584C110.79 23.2516 110.79 31.0972 110.742 38.9904C110.742 39.2282 110.457 39.7512 110.267 39.7512C108.65 39.7988 106.986 39.7988 105.226 39.7988C105.226 34.0453 105.226 28.4345 105.226 22.8236C105.179 22.8236 105.084 22.7761 105.036 22.7761C104.275 24.1075 103.515 25.4864 102.754 26.8178C100.519 30.8595 98.2366 34.9012 96.0018 38.9429C95.6689 39.561 95.2885 39.7988 94.5753 39.7988C92.8159 39.7512 91.1042 39.7512 89.3448 39.7988C88.6792 39.7988 88.4414 39.6086 88.4414 38.8953C88.4414 31.0972 88.4414 23.2516 88.4414 15.4535C88.4414 14.6927 88.7267 14.5025 89.3924 14.55C90.6287 14.5976 91.9125 14.5976 93.1488 14.55C94.0047 14.5025 94.1473 14.8353 94.1473 15.5961C94.0998 20.4937 94.1473 25.4389 94.1473 30.3364C94.1473 30.6693 94.1473 31.0497 94.1473 31.3825C94.1473 31.3825 94.1949 31.4301 94.29 31.4301Z" fill="#0D9A37"/>
<path d="M119.775 28.6245C119.775 32.0005 119.775 35.3765 119.775 38.8001C119.775 39.5609 119.538 39.7986 118.777 39.7986C117.398 39.7511 115.971 39.7986 114.545 39.7986C114.545 33.3319 114.545 27.0554 114.545 20.6362C114.878 20.5887 115.211 20.5887 115.543 20.5887C117.255 20.5887 118.967 20.6362 120.679 20.5887C121.487 20.5411 121.772 20.874 122.01 21.5872C123.151 24.8206 124.34 28.0539 125.529 31.2873C125.576 31.4299 125.624 31.5726 125.767 31.8579C126.052 31.1446 126.242 30.6216 126.432 30.0986C127.478 27.198 128.524 24.2975 129.57 21.4446C129.761 20.9215 129.998 20.6362 130.617 20.6362C132.519 20.6838 134.421 20.6838 136.275 20.6362C136.846 20.6362 137.083 20.8264 137.083 21.4446C137.083 27.3407 137.083 33.2368 137.083 39.1329C137.083 39.7511 136.846 39.9413 136.275 39.8937C135.134 39.8462 133.993 39.8462 132.899 39.8937C132.091 39.9413 131.805 39.656 131.805 38.8001C131.853 35.5192 131.805 32.2858 131.805 29.0049C131.805 28.9098 131.805 28.7672 131.805 28.6721C131.758 28.6721 131.71 28.6245 131.615 28.6245C130.902 30.5741 130.189 32.476 129.523 34.4256C128.952 35.9947 128.334 37.5638 127.811 39.1329C127.621 39.7035 127.336 39.8462 126.765 39.8937C124.007 39.9413 124.007 39.9413 123.056 37.3261C122.105 34.6158 121.107 31.953 120.108 29.2427C120.061 29.0525 119.965 28.8623 119.87 28.6721C119.87 28.577 119.823 28.6245 119.775 28.6245Z" fill="#0D9A37"/>
<path d="M181.543 46.8359C181.543 38.0392 181.543 29.3377 181.543 20.5411C182.922 20.5411 184.253 20.5411 185.585 20.5411C185.775 20.5411 186.013 20.8264 186.108 21.0641C186.298 21.4921 186.345 21.9676 186.488 22.4906C186.678 22.3955 186.773 22.3479 186.869 22.3004C191.528 18.3538 197.995 20.2082 199.754 26.1043C200.753 29.4328 200.658 32.7613 199.089 35.9946C196.854 40.702 190.245 41.5103 187.106 38.3245C187.059 38.277 186.964 38.2294 186.773 38.0868C186.726 38.3721 186.726 38.5623 186.726 38.8C186.726 41.13 186.678 43.4599 186.726 45.7422C186.726 46.503 186.536 46.8359 185.727 46.7883C184.396 46.7883 183.017 46.8359 181.543 46.8359ZM186.631 30.5264C186.821 31.3348 187.011 32.4284 187.439 33.4745C188.01 34.9485 189.294 35.5191 190.768 35.5667C192.194 35.6142 193.478 35.0912 194.239 33.7598C195.332 31.8578 195.38 29.8132 194.762 27.7686C194.191 25.8666 192.717 24.8205 190.91 24.8681C189.056 24.9156 187.582 26.0092 187.059 27.9112C186.821 28.672 186.821 29.4328 186.631 30.5264Z" fill="#0D9A37"/>
<path d="M160.143 30.4315C160.095 27.1506 160.856 24.3927 163.329 22.3005C167.085 19.1623 175.311 19.3525 178.022 25.201C179.828 29.1476 179.163 34.9011 176.405 37.659C173.98 40.084 170.984 40.5595 167.751 40.1315C163.043 39.4659 159.953 35.8521 160.143 30.4315ZM173.837 30.4315C173.742 29.6231 173.695 28.9099 173.552 28.2442C173.124 26.2947 171.602 25.0108 169.7 24.9157C167.798 24.8206 166.277 25.9618 165.706 27.9114C165.278 29.3854 165.278 30.907 165.659 32.4285C166.182 34.4732 167.561 35.6144 169.463 35.6619C171.317 35.7095 172.791 34.7109 173.409 32.7614C173.647 31.9531 173.695 31.0972 173.837 30.4315Z" fill="#0D9A37"/>
<path d="M140.648 20.5891C140.981 20.5891 141.314 20.5415 141.647 20.5415C146.592 20.5415 151.537 20.5415 156.482 20.5415C157.386 20.5415 157.671 20.7793 157.671 21.7302C157.624 27.3886 157.624 33.047 157.671 38.6578C157.671 39.5613 157.433 39.8466 156.53 39.799C155.484 39.7515 154.438 39.7515 153.439 39.799C152.631 39.8466 152.393 39.5613 152.393 38.7529C152.441 34.7112 152.393 30.622 152.393 26.5803C152.393 26.1999 152.393 25.867 152.393 25.4391C150.206 25.4391 148.114 25.4391 145.879 25.4391C145.879 25.7244 145.879 26.0572 145.879 26.3901C145.879 30.4793 145.831 34.5686 145.879 38.6578C145.879 39.5613 145.641 39.8466 144.738 39.799C143.406 39.7515 142.075 39.799 140.648 39.799C140.648 33.3798 140.648 27.0558 140.648 20.5891Z" fill="#0D9A37"/>
<path d="M212.21 25.3911C212.21 30.1936 212.21 34.901 212.21 39.751C210.546 39.751 208.977 39.7986 207.408 39.7035C207.218 39.7035 206.932 39.1329 206.932 38.8476C206.885 35.424 206.932 31.9529 206.932 28.5294C206.932 27.5308 206.932 26.5323 206.932 25.3911C205.268 25.3911 203.699 25.3436 202.13 25.3911C201.274 25.4387 200.894 25.2009 200.989 24.2499C201.036 23.394 201.036 22.4906 200.989 21.5872C200.941 20.7313 201.227 20.4935 202.082 20.4935C205.506 20.5411 208.977 20.4935 212.401 20.4935C214.017 20.4935 215.634 20.4935 217.251 20.4935C217.916 20.4935 218.249 20.6837 218.202 21.397C218.154 22.3955 218.154 23.394 218.202 24.3926C218.249 25.1534 217.916 25.3436 217.203 25.296C215.586 25.3436 213.922 25.3911 212.21 25.3911Z" fill="#0D9A37"/>
<path d="M98.8538 52.1614H91.0557V65.4277H88.916V50.307H98.8538V52.1614Z" fill="#0D9A37"/>
<path d="M108.982 61.6238H100.946L99.2817 65.4277H97.0469L103.894 50.307H106.034L112.928 65.4277H110.646L108.982 61.6238ZM108.221 59.8644L104.94 52.4467L101.659 59.8644H108.221Z" fill="#0D9A37"/>
<path d="M126.575 51.6861C127.716 52.6371 128.239 53.9209 128.239 55.5376C128.239 57.1543 127.668 58.4857 126.575 59.3891C125.434 60.3401 123.912 60.8156 121.963 60.8156H118.206V65.3803H116.066V50.2596H121.963C123.912 50.2596 125.481 50.7351 126.575 51.6861ZM125.053 58.0577C125.766 57.4871 126.147 56.6313 126.147 55.5376C126.147 54.444 125.766 53.5881 125.053 53.0175C124.34 52.4469 123.294 52.1616 121.915 52.1616H118.254V58.9136H121.915C123.246 58.9136 124.292 58.6283 125.053 58.0577Z" fill="#0D9A37"/>
<path d="M140.935 61.6238H132.899L131.235 65.4277H129L135.847 50.307H137.987L144.881 65.4277H142.599L140.935 61.6238ZM140.174 59.8644L136.893 52.4467L133.612 59.8644H140.174Z" fill="#0D9A37"/>
<path d="M161.051 50.2596V65.3803H158.912V58.6283H150.21V65.3803H148.07V50.2596H150.21V56.7739H158.912V50.2596H161.051Z" fill="#0D9A37"/>
<path d="M176.693 52.1616H171.51V65.4279H169.37V52.1616H164.188V50.2596H176.693V52.1616V52.1616Z" fill="#0D9A37"/>
</svg>
