<svg width="50" height="25" viewBox="0 0 50 25" fill="none" xmlns="http://www.w3.org/2000/svg">
<path d="M19.8736 0.0475285C21.4285 0.0475285 20.9348 0.0475285 22.4898 0.0475285C24.7735 0 26.8629 0.570342 28.758 1.80608C30.1671 2.75665 31.2847 3.94487 32.0622 5.51331C32.3051 6.03612 32.5481 6.55894 32.7424 7.08175C32.8396 7.41445 33.0826 7.55703 33.4227 7.55703C34.7347 7.55703 35.7065 8.12738 36.5325 9.03042C36.6783 9.22053 37.0184 9.26806 37.2614 9.31559C37.9417 9.36312 38.5733 9.31559 39.2536 9.36312C39.6909 9.41065 39.9825 9.22053 40.274 8.93536C40.8571 8.31749 41.4402 7.65209 42.1691 7.17681C43.9183 5.94106 46.5908 6.41635 47.6598 8.12738C48.3401 9.22053 48.1457 10.3612 47.7084 11.4544C47.7084 11.5019 47.6598 11.5019 47.6598 11.5494C47.1253 12.2148 47.2225 12.8327 47.6598 13.5456C48.2429 14.5437 48.2915 15.6844 47.8542 16.73C47.4655 17.6331 46.6394 18.2034 45.6676 18.4411C43.4324 19.0114 41.8289 17.9658 40.517 16.3973C40.1282 15.9221 39.7395 15.6844 39.1564 15.7319C38.9621 15.7795 38.7677 15.7795 38.5733 15.7319C37.5043 15.5894 36.6297 15.827 35.9008 16.6825C35.3663 17.2529 34.5403 17.443 33.7628 17.443C33.2283 17.443 32.9854 17.6331 32.791 18.1559C31.7706 21.0076 29.8756 23.0989 26.9115 24.2395C25.6482 24.7624 24.3362 24.9525 23.0243 24.9525C16.9018 24.9525 12.8279 24.9525 6.7055 24.9525C5.87945 24.9525 5.102 24.9525 4.27596 25C2.67246 25 1.02037 23.2414 0.58305 21.8631C0.0971419 20.2947 0.291505 18.7262 0.340096 17.1103C0.388687 15.9696 0.340096 14.8289 0.194324 13.6882C-0.0972216 11.0266 0.437278 8.60266 1.895 6.36882C3.06118 4.65779 4.5675 3.37452 6.51114 2.61407C6.99704 2.42395 7.53154 2.28137 8.01745 2.23384C9.23222 2.04373 10.3498 1.52091 11.4188 0.95057C12.5364 0.380228 13.654 0 14.9659 0C16.5209 0.0475285 18.2215 0 19.8736 0.0475285C19.8736 0 19.8736 0 19.8736 0.0475285ZM17.687 24.0019C20.1166 24.0019 20.5461 24.0019 22.9757 23.9544C24.5792 23.9544 26.0855 23.5266 27.446 22.7662C29.4382 21.6255 30.896 20.0095 31.5762 17.8232C31.8678 16.8251 32.3051 16.4449 33.4227 16.4924C34.8804 16.5399 36.241 15.0665 36.2896 13.6407C36.2896 12.8802 36.3382 12.1198 36.241 11.3593C36.1924 10.8365 35.9494 10.3137 35.6579 9.8384C34.9776 8.84031 33.9572 8.46008 32.791 8.5076C32.2079 8.55513 31.8678 8.36502 31.7706 7.74715C31.6734 7.27186 31.4791 6.84411 31.2847 6.41635C30.5558 4.89544 29.584 3.61217 28.1263 2.6616C26.8629 1.85361 25.5024 1.14068 23.9475 1.09316C21.4693 1.04563 20.9912 0.998099 18.5131 0.998099C18.3673 0.998099 18.1729 1.09316 18.0272 1.14068C18.0758 1.28327 18.1729 1.47338 18.2215 1.61597C18.3187 1.75856 18.4645 1.90114 18.5617 2.09125C19.4363 3.61217 19.4363 5.22814 19.3877 6.89163C19.3391 8.31749 19.2905 9.79087 19.4849 11.2167C19.6793 12.6901 19.5335 14.116 19.1933 15.4943C18.8532 16.9202 18.1244 18.1559 17.2497 19.3441C16.1321 20.77 14.723 21.8156 13.0223 22.3859C11.9047 22.7662 10.7385 23.0513 9.57236 23.384C9.42659 23.4316 9.28082 23.6217 9.13504 23.7643C9.28082 23.8118 9.47518 23.9068 9.62095 23.9068C12.342 24.0019 15.0145 24.0019 17.687 24.0019ZM18.5131 5.89354C18.5617 5.89354 18.5617 5.89354 18.6103 5.84601C18.4159 4.99049 18.3673 4.13498 18.0758 3.327C17.687 2.28137 16.9582 1.47338 15.7434 1.14068C14.3829 0.760456 13.2167 1.18821 12.0991 1.75856C10.7871 2.42395 9.47518 3.04183 8.01745 3.327C6.89986 3.51711 5.97664 3.9924 5.102 4.61027C3.93582 5.41825 3.10978 6.46388 2.4295 7.60456C1.65205 8.88783 1.16614 10.2662 1.16614 11.7395C1.11755 12.6426 1.3605 13.5456 1.4091 14.4487C1.45769 15.5418 1.50628 16.6825 1.3605 17.7757C1.21473 19.154 1.16614 20.5323 1.74923 21.8156C2.81823 24.1445 4.95623 24.5722 7.19141 23.5266C8.64913 22.8612 10.0097 22.0532 11.6618 21.7681C12.3906 21.6255 13.1195 21.4354 13.7512 21.0551C17.1525 19.0114 18.8046 16.0646 18.6589 12.1673C18.6103 10.5038 18.0758 8.88783 18.5131 7.22433C18.4645 6.84411 18.4645 6.36882 18.5131 5.89354ZM38.9135 10.2662C38.5247 10.2662 38.136 10.2662 37.7473 10.2662C37.31 10.2662 37.2128 10.4563 37.2128 10.884C37.2614 11.9772 37.2614 13.0703 37.2128 14.1635C37.2128 14.5913 37.31 14.7814 37.7473 14.7338C38.4276 14.7338 39.0592 14.7338 39.7395 14.7338C40.1768 14.7338 40.4684 14.8764 40.7599 15.2091C41.4888 16.1122 42.2662 16.9677 43.4324 17.443C44.8416 18.0133 47.0767 16.9202 46.8824 15.2567C46.7852 14.4011 46.4936 13.6882 45.9591 13.0228C45.7162 12.6901 45.6676 12.4525 45.9106 12.0722C46.2021 11.597 46.4451 11.1692 46.6394 10.6939C46.9796 9.88593 47.0281 9.07795 46.3479 8.36502C45.6676 7.60456 44.55 7.27186 43.6754 7.50951C42.5578 7.79468 41.6346 8.46008 41.0515 9.41065C40.5656 10.2186 39.9825 10.4087 39.1078 10.2662C39.1078 10.2662 39.0107 10.2662 38.9135 10.2662Z" fill="white"/>
<path d="M17.1525 5.94108C17.1039 6.41636 17.0068 6.89165 16.9582 7.31941C16.7638 8.55515 16.8124 9.79089 17.0553 11.0742C17.3469 12.6901 17.2497 14.3061 16.5694 15.8745C15.9378 17.443 14.9659 18.6787 13.5082 19.5818C12.7794 20.0095 11.9533 20.3422 11.1759 20.4848C9.57236 20.8175 8.21181 21.5304 6.75409 22.1958C5.83086 22.6236 4.81045 23.0989 3.83864 22.4335C3.40132 22.1008 2.91541 21.6255 2.81823 21.1502C2.62386 20.2947 2.52668 19.3441 2.62386 18.4411C2.76964 16.7301 2.86682 15.0666 2.47809 13.4031C2.18655 12.2148 2.47809 11.0266 2.81823 9.88595C3.20696 8.50762 3.93582 7.31941 5.00482 6.32131C5.92804 5.46579 6.94845 4.89545 8.2604 4.65781C9.66954 4.37264 11.0301 3.89735 12.2934 3.1369C13.0709 2.66161 13.9455 2.37644 14.8688 2.42397C15.792 2.4715 16.4237 2.89925 16.7152 3.65971C16.861 4.08747 17.0068 4.56275 17.1039 5.03804C17.1039 5.32321 17.1039 5.60838 17.1525 5.94108C17.1039 5.94108 17.1525 5.94108 17.1525 5.94108ZM15.8892 5.89355C15.9378 5.89355 15.9378 5.89355 15.9864 5.89355C15.9864 5.75096 15.9864 5.60838 15.9864 5.41827C15.9378 4.84792 15.792 4.75287 15.2575 5.08557C14.9659 5.27568 14.723 5.56085 14.4314 5.79849C13.7026 6.36884 13.0223 6.98671 12.2934 7.50952C11.8075 7.84222 11.2244 8.07986 10.7385 8.36503C10.6414 8.41256 10.4956 8.60268 10.5442 8.74526C10.5442 8.84032 10.7385 8.93538 10.8843 8.9829C11.9533 9.22055 12.6336 10.0285 12.7308 11.1217C12.8279 12.2624 12.5364 13.2605 12.0019 14.2586C11.0787 15.8745 9.91249 17.2529 8.21181 18.1084C7.33718 18.5361 6.51113 19.0114 5.83086 19.7719C5.39354 20.2472 4.85904 20.5799 4.37314 20.9601C4.27595 21.0551 4.13018 21.1977 4.17877 21.2928C4.22736 21.3878 4.37314 21.578 4.47032 21.578C5.00482 21.5304 5.58791 21.578 6.02522 21.3403C7.48295 20.6749 8.89209 19.9145 10.447 19.5818C10.9329 19.4867 11.4188 19.3916 11.9047 19.2015C13.3139 18.6787 14.3829 17.6806 15.0631 16.3974C15.8892 14.8764 16.4723 13.308 16.0349 11.5494C15.9864 11.2643 15.9378 10.9791 15.9378 10.6939C15.8892 9.12549 15.8892 7.50952 15.8892 5.89355ZM8.89209 16.3974C8.89209 16.3498 8.84349 16.3023 8.84349 16.2072C8.64913 16.1597 8.50336 16.1122 8.309 16.0647C8.01745 15.9221 7.67731 15.827 7.43436 15.6369C6.51113 14.8289 6.41395 13.7833 6.55972 12.6426C6.7055 11.6445 7.24 10.789 7.7745 9.981C8.64913 8.6502 9.76672 7.60458 11.1759 6.89165C12.1477 6.41636 12.9737 5.84602 13.7026 5.08557C14.0913 4.65781 14.5772 4.37264 15.0631 4.03994C15.2089 3.94488 15.3061 3.8023 15.4519 3.70724C15.2575 3.56465 15.0631 3.32701 14.8688 3.37454C14.2857 3.4696 13.654 3.61218 13.1195 3.89735C11.6618 4.61028 10.204 5.27568 8.60054 5.60838C8.16322 5.70344 7.67731 5.79849 7.28859 5.98861C4.85904 7.17682 3.15836 10.2186 3.44991 12.8327C3.69286 14.6863 3.88723 16.5875 3.54709 18.4411C3.4985 18.8213 3.4985 19.2015 3.4985 19.5818C3.4985 19.7243 3.54709 19.962 3.69286 20.0095C3.79005 20.057 4.033 19.962 4.13018 19.8669C4.32454 19.7719 4.47032 19.6293 4.61609 19.4392C5.49073 18.5361 6.41395 17.7282 7.58013 17.2053C8.11463 17.0152 8.45477 16.6825 8.89209 16.3974ZM11.7589 11.5019C11.7104 11.2643 11.6132 10.9316 11.4674 10.5989C11.1759 9.981 10.447 9.74336 9.81531 10.0285C8.2604 10.7415 7.43436 12.1673 7.58013 13.8308C7.62872 14.7814 8.69772 15.4468 9.52377 15.019C10.8843 14.3061 11.6132 13.1654 11.7589 11.5019Z" fill="white"/>
</svg>
