<svg width="40" height="36" viewBox="0 0 40 36" fill="none" xmlns="http://www.w3.org/2000/svg">
<g clip-path="url(#clip0_50_195)">
<path d="M38.7661 17.2116C38.2297 13.8269 36.5437 11.2885 33.7847 9.75002C30.0296 7.75002 26.0445 6.82695 22.6725 6.13464C22.2893 6.05772 22.0594 5.90387 21.7529 5.59618C21.5229 5.36541 21.3697 5.05772 21.1398 4.82695C20.45 4.05772 19.7603 3.21156 18.9939 2.51926C16.6949 0.596178 13.9359 0.903871 12.02 1.28849C10.1041 1.6731 8.80132 2.90387 8.26486 4.82695C8.03496 5.6731 7.88168 6.51925 7.72841 7.44233V7.59618C7.65177 7.98079 7.57514 8.13464 7.19196 8.36541C3.20687 10.75 1.13769 14.1346 0.984417 18.4423C0.831145 22.3654 1.98069 26.1346 2.97696 29.4423C3.20687 30.0577 3.51341 30.8269 4.35641 31.2116C4.58632 31.2885 4.7396 31.3654 4.9695 31.4423C5.50596 31.6731 5.96578 31.9039 6.50223 32.0577C7.72841 32.4423 9.03123 32.8269 10.2574 33.2116C11.2537 33.5193 12.25 33.8269 13.2462 34.1346C13.8593 34.2885 14.0892 33.9808 14.3191 33.75C15.3154 32.5193 16.3883 31.2885 17.3846 30.1346C17.9977 29.4423 18.6108 28.6731 19.3005 27.9808L19.7603 27.4423C19.8369 27.5193 19.8369 27.6731 19.9136 27.75L20.7566 30.1346C21.3697 31.75 21.9061 33.3654 22.5192 35.0577C22.6725 35.4423 22.9024 36.0577 23.6688 36.0577H23.7454C26.8875 35.8269 29.5698 35.2116 31.9455 34.1346C35.7773 32.3654 38.0764 29.3654 38.7661 25.2116C39.1493 22.5193 39.1493 19.9039 38.7661 17.2116ZM14.9322 16.3654C15.392 17.0577 15.7752 17.8269 16.235 18.5193V18.5962L15.6986 18.3654C14.779 17.9039 13.936 17.5193 13.093 17.0577L12.25 16.6731C10.8705 15.9808 9.49104 15.2885 8.18823 14.5962C8.03496 14.4423 7.88168 14.2116 7.88168 14.1346C8.11159 12.5193 8.26486 10.9039 8.57141 9.21156L8.64805 8.51926C9.03123 9.59618 9.64432 10.3654 10.4107 10.9808C12.4032 12.3654 13.706 14.3654 14.9322 16.3654ZM7.26859 10.5193C7.19196 11.2116 7.03868 11.9039 6.96205 12.5962C6.88541 12.9808 6.88541 13.4423 6.88541 13.8269C6.88541 13.9808 6.88541 14.2116 6.88541 14.3654C6.88541 14.9808 7.11532 15.3654 7.65177 15.6731C10.8705 17.2116 13.706 18.6731 16.3117 19.9808C16.8481 20.2885 17.3079 20.1346 17.8444 19.9039C18.8407 19.4423 19.9136 18.9039 20.9865 18.3654C20.9099 18.4423 20.8332 18.5193 20.6799 18.5962L18.9939 20.1346C16.7715 22.1346 14.4724 24.2116 12.25 26.2885C11.8668 26.6731 11.6369 26.75 11.1004 26.5193C10.4107 26.2116 9.64432 25.9039 8.95459 25.5962C8.03496 25.2116 7.11532 24.8269 6.27232 24.3654C4.66296 23.5193 3.43678 22.4423 2.59378 21.0577C1.75078 19.6731 1.59751 18.0577 2.2106 16.2116C3.0536 13.5962 4.66296 11.5193 7.11532 9.90387C7.11532 9.90387 7.19196 9.82695 7.26859 9.82695V10.5193ZM23.6688 33.9808C23.822 33.3654 23.9753 32.8269 23.9753 32.2116C24.0519 31.0577 24.5884 30.75 25.5847 30.5193C29.1866 29.5962 31.9455 28.3654 34.2446 26.5962C36.1605 25.1346 37.4633 23.2885 38.153 21.2116C38.0764 23.5193 37.7698 25.9039 36.6203 28.1346C35.5474 30.2116 33.7847 31.6731 31.1025 32.9039C29.0333 33.8269 26.6576 34.3654 23.8987 34.5962C23.822 34.5962 23.6688 34.5962 23.5155 34.5962C23.5921 34.3654 23.5921 34.1346 23.6688 33.9808ZM36.467 22.2116C35.0109 24.5962 32.7885 26.3654 29.6464 27.6731C28.5735 28.1346 27.4239 28.4423 26.351 28.8269C25.7379 29.0577 25.1248 29.2116 24.5884 29.4423C24.3585 29.4423 24.2818 29.4423 24.2818 29.4423C24.2818 29.4423 24.2052 29.3654 24.1286 29.1346C23.5921 26.5962 22.979 24.1346 22.4426 21.5962L21.9061 19.3654C21.9061 19.2116 21.8295 19.0577 21.8295 18.9808C21.7529 18.6731 21.5996 18.4423 21.4463 18.3654H21.3697H21.293C23.1323 17.5193 24.9716 16.5962 26.9641 15.6731C27.4239 15.4423 27.7305 15.2885 27.8071 15.0577C27.8838 14.8269 27.7305 14.5193 27.5006 14.1346C26.5809 12.75 25.6613 11.2885 24.7417 9.90387L23.4389 7.90387C23.3622 7.82695 23.2856 7.6731 23.2856 7.59618C23.6688 7.6731 24.1286 7.82695 24.5118 7.90387C25.5847 8.13464 26.7342 8.44233 27.8838 8.75002C30.3361 9.44233 32.0988 10.1346 33.7081 11.0577C35.7773 12.2116 37.2334 13.9808 37.7698 15.9808C38.153 17.9039 37.6932 20.1346 36.467 22.2116ZM26.351 14.2116C26.351 14.2116 26.351 14.2885 26.4277 14.2885H26.351C26.1978 14.3654 25.9678 14.4423 25.8146 14.5193L24.1286 15.3654C21.9828 16.3654 19.8369 17.4423 17.6911 18.4423C17.3079 18.5962 17.3079 18.5962 17.078 18.2885C16.5416 17.3654 16.0051 16.5193 15.4687 15.6731C15.0089 14.9808 14.549 14.2116 14.0892 13.5193C13.093 11.9808 11.7901 10.75 10.6406 9.82695C9.1845 8.6731 8.72468 6.82695 9.41441 4.98079C9.64432 4.28849 10.1808 3.75002 10.7939 3.28849C11.5602 2.75002 12.9397 2.44233 14.3958 2.44233C16.1584 2.44233 18.0743 2.90387 19.0706 4.05772C19.3005 4.28849 19.4538 4.51926 19.6837 4.6731C20.5267 5.59618 21.3697 6.51926 22.0594 7.51926C23.1323 9.05772 24.1286 10.6731 25.1248 12.2885C25.5847 12.9039 25.9678 13.5193 26.351 14.2116ZM11.0238 27.75C9.95086 29.8269 9.95086 30.0577 10.2574 31.9808C10.1041 31.9039 9.95086 31.9039 9.87423 31.8269C9.33777 31.6731 8.80132 31.5193 8.26486 31.2885C7.03868 30.8269 5.73587 30.3654 4.50969 29.8269C4.20314 29.6731 3.8966 29.3654 3.81996 29.0577C2.97696 26.5962 2.44051 23.9808 2.05733 21.4423C4.04987 24.8269 7.26859 26.3654 11.0238 27.75ZM18.764 26.5193L17.7678 27.75C16.3883 29.3654 15.0089 30.9039 13.706 32.5193C13.3995 32.8269 13.2462 32.9039 12.7864 32.75C11.9434 32.3654 11.407 31.9039 11.2537 31.3654C11.0238 30.8269 11.177 30.1346 11.5602 29.3654C11.8668 28.75 12.3266 28.2116 12.7864 27.75C14.8556 25.8269 17.0014 23.9039 19.0706 21.9808L20.9865 20.2116C21.0631 20.1346 21.1398 20.0577 21.2164 19.9808V20.0577C21.293 20.3654 21.3697 20.5962 21.4463 20.9039L21.5996 21.5193C22.2127 24.0577 22.7491 26.5962 23.2856 29.1346C23.3622 29.4423 23.3622 29.8269 23.2856 30.2116C23.1323 31.0577 22.979 31.8269 22.8258 32.6731L22.7491 33.2885L19.8369 25.2885L19.2239 25.9808C19.0706 26.1346 18.9173 26.2885 18.764 26.5193Z" fill="white"/>
<path d="M17.4612 9.98078C16.3116 9.82694 15.5453 8.75001 15.6986 7.67309C15.8518 6.59617 16.8481 5.82694 17.9976 5.98078C19.0706 6.13463 19.9902 7.21155 19.8369 8.28848C19.607 9.28848 18.6107 10.1346 17.4612 9.98078ZM17.6145 9.13463C18.3808 9.21155 18.9939 8.75002 19.1472 8.13463C19.2238 7.44232 18.764 6.90386 17.9976 6.75001C17.3079 6.67309 16.5416 7.13463 16.4649 7.75002C16.3116 8.3654 16.8481 9.05771 17.6145 9.13463Z" fill="white"/>
<path d="M14.1658 11.5962C14.319 10.75 14.9321 10.0577 15.4686 10.1346C16.005 10.2116 16.4649 10.9808 16.4649 11.75C16.4649 12.5962 15.7751 13.3654 15.162 13.3654C14.4723 13.2885 14.0125 12.4423 14.1658 11.5962ZM15.9284 11.8269C15.6985 11.5192 15.5452 11.2885 15.3919 11.0577C15.162 11.2885 14.9321 11.5192 14.8555 11.75C14.7789 11.9808 15.0854 12.2885 15.162 12.5192C15.3919 12.2885 15.6219 12.0577 15.9284 11.8269Z" fill="white"/>
<path d="M22.136 11.2116C22.2126 11.2116 22.3659 11.2885 22.4425 11.2885C23.0556 11.5193 23.4388 11.9808 23.3622 12.5193C23.2855 12.9808 22.7491 13.3654 22.136 13.2885C21.8295 13.2885 21.5229 13.2116 21.293 13.1346C20.6799 12.9039 20.2967 12.3654 20.3734 11.9039C20.45 11.4423 21.0631 11.1346 21.6762 11.1346C21.8295 11.2116 21.9061 11.2116 22.136 11.2116ZM22.4425 12.5193C22.4425 12.4423 22.4425 12.3654 22.4425 12.2885C21.9061 11.9039 21.6762 11.9039 21.2164 12.4423C21.6762 12.4423 22.0594 12.4423 22.4425 12.5193Z" fill="white"/>
</g>
<defs>
<clipPath id="clip0_50_195">
<rect width="38.0882" height="35" fill="white" transform="translate(0.984375 0.980835)"/>
</clipPath>
</defs>
</svg>
