<svg width="42" height="40" viewBox="0 0 42 40" fill="none" xmlns="http://www.w3.org/2000/svg">
<g clip-path="url(#clip0_3_934)">
<mask id="path-1-outside-1_3_934" maskUnits="userSpaceOnUse" x="-0.0494385" y="-0.940186" width="42" height="41" fill="black">
<rect fill="white" x="-0.0494385" y="-0.940186" width="42" height="41"/>
<path d="M21.6225 0.401545C20.465 0.785992 19.2646 1.21316 18.15 1.72575C16.9925 2.28106 15.6207 2.92181 14.3346 3.77613C13.0914 4.58774 11.8481 5.57022 10.4763 6.80899C7.51829 9.41469 5.33192 12.1485 3.70287 15.2241C3.10269 16.4202 2.54538 17.5735 2.15955 18.6841C1.68798 20.0083 1.34502 21.0762 1.17354 22.1014C0.916325 23.5965 0.873455 25.1343 1.0878 26.6721C1.30215 28.2526 1.85946 29.7049 2.75973 31.0291C4.0887 32.9514 6.01784 34.4892 8.67577 35.6852C10.2191 36.3687 11.6338 36.7958 13.0485 36.9667C14.2917 37.0949 15.2777 37.1376 16.1351 37.0949C16.2637 37.0949 16.3495 37.0521 16.4781 37.0521C16.6496 37.0094 16.8639 37.0094 17.0783 37.0094C17.507 37.0094 17.9785 37.1376 18.3644 37.6502C18.3644 37.6929 18.493 37.7356 18.5358 37.7356C18.6216 37.7783 18.7073 37.821 18.7502 37.8638C20.0792 38.6754 21.4939 39.1025 22.9514 39.1025C22.9514 39.1025 22.9514 39.1025 22.9943 39.1025C24.5376 39.1025 26.1667 38.7608 27.8815 38.0773C29.2104 37.5647 30.4537 36.8813 31.6969 36.027C33.7547 34.6173 35.5981 32.8659 37.1842 30.8156C38.0845 29.6622 38.8562 28.2953 39.4992 27.0992C39.9279 26.3303 40.3137 25.476 40.5281 24.6217C40.6996 24.0237 40.8282 23.3402 40.9139 22.6995C40.9568 22.4432 40.9997 22.1869 41.0425 21.9733C41.1283 21.4607 40.8282 21.2044 40.5281 21.0762C40.3566 20.9908 40.1851 20.9054 40.0137 20.8627C39.6707 20.6918 39.3277 20.5636 39.0276 20.4782C38.7704 20.3928 38.5561 20.3073 38.2989 20.2646C37.4843 20.0083 36.6698 19.7093 35.8553 19.6239C33.8404 19.3676 31.7826 19.0686 29.7678 19.3676C29.5105 19.4103 29.2962 19.3676 29.1247 19.2394C28.9532 19.1113 28.9104 18.8977 28.9104 18.5987C28.9104 18.1715 28.9104 17.7444 28.9104 17.3172V16.5056H29.0818L28.8246 14.9251C28.6531 13.5155 28.4817 12.1058 28.3102 10.6962C28.0958 9.20111 27.6671 7.6206 26.9383 5.69837C26.1667 3.6907 25.0949 1.89662 23.8088 0.316112C23.7231 0.187963 23.4659 0.0598145 23.3373 0.0598145C22.8228 0.0598145 22.3513 0.145247 21.9226 0.316112L21.6225 0.401545ZM28.5674 21.0762C28.6531 20.3928 28.9532 20.0938 29.5963 20.0083C30.0678 19.9656 30.5394 19.9229 31.0538 19.9229L31.6969 19.8802C33.5403 19.8802 35.3837 20.1365 37.3986 20.6491C37.9988 20.8199 38.5989 21.0335 39.1563 21.2471C39.3277 21.3325 39.4992 21.3753 39.6707 21.4607C40.2709 21.717 40.5281 22.1869 40.3137 22.7849C40.228 23.0839 40.0994 23.3829 40.0137 23.7247C39.7993 24.4935 39.5421 25.3052 39.1991 26.0741C38.6418 27.2701 37.9988 28.4234 37.3129 29.4486C35.8553 31.5845 34.0119 33.464 31.8684 35.0445C30.2393 36.2405 28.8246 37.0521 27.4099 37.5647C26.1238 38.0346 24.752 38.4618 23.2944 38.4618C22.8657 38.4618 22.4799 38.4191 22.0512 38.3336C21.1938 38.1628 20.2506 37.9492 19.4361 37.3939C19.2646 37.2657 19.0503 37.0521 19.0074 36.7958C18.9645 36.4541 19.3504 36.2405 19.5219 36.1978C21.0223 35.5998 22.3941 34.6173 23.8088 33.0368C24.9663 31.7553 25.9095 30.1321 26.6811 28.2953C27.2384 26.9711 27.71 25.5615 28.1387 24.0237C28.353 23.0412 28.4817 22.016 28.5674 21.0762ZM22.78 0.956857C22.9943 1.04229 23.1229 1.25587 23.2515 1.55489C23.423 2.06748 23.5945 2.53736 23.8088 3.00724C24.1089 3.73342 24.3661 4.4596 24.5805 5.22849C25.2664 7.70604 25.5665 9.88457 25.4808 11.9349C25.4808 12.1058 25.5665 12.3621 25.6951 12.4903C25.7809 12.4903 25.9095 12.4903 25.9952 12.4475C26.0809 12.4048 26.1667 12.234 26.1667 12.1485C26.1238 11.1661 26.0381 10.1836 25.9952 9.24382L25.9523 8.85938C25.9095 8.51764 25.9095 8.17591 25.8666 7.83418L25.8237 7.15072L26.5096 6.93714L26.5954 7.19344C26.6383 7.27887 26.6811 7.40702 26.724 7.49245C26.8526 7.74875 26.9812 7.96233 27.0241 8.26135C27.1956 9.03024 27.4099 9.88457 27.4956 10.7389C27.5385 11.2088 27.6243 11.6787 27.6671 12.1485C27.8815 13.6009 28.053 15.096 28.053 16.5483C28.053 18.7268 27.7529 20.8627 27.4528 22.6995C27.1956 24.1518 26.8097 25.6469 26.2096 27.142C25.8237 28.1672 25.2664 29.1069 24.7091 30.0467C24.5805 30.2602 24.4519 30.4738 24.3233 30.6874C23.423 32.2679 22.1798 33.5921 20.5936 34.6173C19.6076 35.2581 18.4072 35.9415 16.9925 36.1124C16.7353 36.1551 16.521 36.1978 16.2637 36.2833C16.1351 36.326 16.0065 36.3687 15.8779 36.3687L15.6207 36.4114L15.3206 35.8134L15.4492 35.6425C15.4921 35.5998 15.4921 35.5571 15.535 35.5571C15.6207 35.4716 15.7064 35.3435 15.8779 35.2581C17.5927 34.4037 19.0932 33.0795 20.2506 31.2854C20.8508 30.3884 21.6225 29.1496 22.2227 27.8681C22.8657 26.5012 23.4659 24.9634 24.0661 23.2548C24.3661 22.315 24.5805 21.3753 24.7948 20.3928C24.8377 20.1365 24.9235 19.9229 24.9663 19.6666C25.1378 19.0259 25.2664 18.3424 25.395 17.6589C25.4808 17.3172 25.5236 16.9755 25.6094 16.6337C25.6522 16.5056 25.6951 16.1211 25.3522 16.0784C25.2235 16.0357 25.0521 16.0357 24.9663 16.4629C24.8806 16.7192 24.8377 17.0182 24.7948 17.3172C24.752 17.5308 24.7091 17.7017 24.6662 17.9152C24.4519 18.855 24.2375 19.8375 24.0232 20.8199C23.8517 21.4607 23.7231 22.0587 23.5087 22.6567L23.2944 23.2548C22.9086 24.4081 22.4799 25.5615 22.0083 26.6721C21.5367 27.74 21.0223 28.8079 20.4221 29.7904C19.2646 31.6699 17.8499 33.165 16.2209 34.2329C14.3346 35.4716 12.5769 35.8561 10.8621 35.5144C9.79039 35.3008 8.76151 34.8309 7.90412 34.4464C6.23219 33.6348 4.81748 32.4815 3.66 30.9864C2.07381 28.936 1.38789 26.5012 1.60224 23.5111C1.73085 22.016 2.03094 20.5209 2.58825 19.1113C3.10269 17.7017 3.74574 16.3774 4.43166 15.1387C6.18932 11.9777 8.50429 9.20111 11.248 6.89442C12.6198 5.74108 14.0774 4.67318 15.6207 3.6907C16.6067 3.04996 17.7213 2.58008 18.7502 2.1102L19.1789 1.93933C19.8648 1.64032 20.5936 1.38402 21.2795 1.12772C21.4939 1.04229 21.7082 0.999573 21.9226 0.914141C22.2227 0.914141 22.5227 0.828708 22.78 0.956857Z"/>
</mask>
<path d="M21.6225 0.401545C20.465 0.785992 19.2646 1.21316 18.15 1.72575C16.9925 2.28106 15.6207 2.92181 14.3346 3.77613C13.0914 4.58774 11.8481 5.57022 10.4763 6.80899C7.51829 9.41469 5.33192 12.1485 3.70287 15.2241C3.10269 16.4202 2.54538 17.5735 2.15955 18.6841C1.68798 20.0083 1.34502 21.0762 1.17354 22.1014C0.916325 23.5965 0.873455 25.1343 1.0878 26.6721C1.30215 28.2526 1.85946 29.7049 2.75973 31.0291C4.0887 32.9514 6.01784 34.4892 8.67577 35.6852C10.2191 36.3687 11.6338 36.7958 13.0485 36.9667C14.2917 37.0949 15.2777 37.1376 16.1351 37.0949C16.2637 37.0949 16.3495 37.0521 16.4781 37.0521C16.6496 37.0094 16.8639 37.0094 17.0783 37.0094C17.507 37.0094 17.9785 37.1376 18.3644 37.6502C18.3644 37.6929 18.493 37.7356 18.5358 37.7356C18.6216 37.7783 18.7073 37.821 18.7502 37.8638C20.0792 38.6754 21.4939 39.1025 22.9514 39.1025C22.9514 39.1025 22.9514 39.1025 22.9943 39.1025C24.5376 39.1025 26.1667 38.7608 27.8815 38.0773C29.2104 37.5647 30.4537 36.8813 31.6969 36.027C33.7547 34.6173 35.5981 32.8659 37.1842 30.8156C38.0845 29.6622 38.8562 28.2953 39.4992 27.0992C39.9279 26.3303 40.3137 25.476 40.5281 24.6217C40.6996 24.0237 40.8282 23.3402 40.9139 22.6995C40.9568 22.4432 40.9997 22.1869 41.0425 21.9733C41.1283 21.4607 40.8282 21.2044 40.5281 21.0762C40.3566 20.9908 40.1851 20.9054 40.0137 20.8627C39.6707 20.6918 39.3277 20.5636 39.0276 20.4782C38.7704 20.3928 38.5561 20.3073 38.2989 20.2646C37.4843 20.0083 36.6698 19.7093 35.8553 19.6239C33.8404 19.3676 31.7826 19.0686 29.7678 19.3676C29.5105 19.4103 29.2962 19.3676 29.1247 19.2394C28.9532 19.1113 28.9104 18.8977 28.9104 18.5987C28.9104 18.1715 28.9104 17.7444 28.9104 17.3172V16.5056H29.0818L28.8246 14.9251C28.6531 13.5155 28.4817 12.1058 28.3102 10.6962C28.0958 9.20111 27.6671 7.6206 26.9383 5.69837C26.1667 3.6907 25.0949 1.89662 23.8088 0.316112C23.7231 0.187963 23.4659 0.0598145 23.3373 0.0598145C22.8228 0.0598145 22.3513 0.145247 21.9226 0.316112L21.6225 0.401545ZM28.5674 21.0762C28.6531 20.3928 28.9532 20.0938 29.5963 20.0083C30.0678 19.9656 30.5394 19.9229 31.0538 19.9229L31.6969 19.8802C33.5403 19.8802 35.3837 20.1365 37.3986 20.6491C37.9988 20.8199 38.5989 21.0335 39.1563 21.2471C39.3277 21.3325 39.4992 21.3753 39.6707 21.4607C40.2709 21.717 40.5281 22.1869 40.3137 22.7849C40.228 23.0839 40.0994 23.3829 40.0137 23.7247C39.7993 24.4935 39.5421 25.3052 39.1991 26.0741C38.6418 27.2701 37.9988 28.4234 37.3129 29.4486C35.8553 31.5845 34.0119 33.464 31.8684 35.0445C30.2393 36.2405 28.8246 37.0521 27.4099 37.5647C26.1238 38.0346 24.752 38.4618 23.2944 38.4618C22.8657 38.4618 22.4799 38.4191 22.0512 38.3336C21.1938 38.1628 20.2506 37.9492 19.4361 37.3939C19.2646 37.2657 19.0503 37.0521 19.0074 36.7958C18.9645 36.4541 19.3504 36.2405 19.5219 36.1978C21.0223 35.5998 22.3941 34.6173 23.8088 33.0368C24.9663 31.7553 25.9095 30.1321 26.6811 28.2953C27.2384 26.9711 27.71 25.5615 28.1387 24.0237C28.353 23.0412 28.4817 22.016 28.5674 21.0762ZM22.78 0.956857C22.9943 1.04229 23.1229 1.25587 23.2515 1.55489C23.423 2.06748 23.5945 2.53736 23.8088 3.00724C24.1089 3.73342 24.3661 4.4596 24.5805 5.22849C25.2664 7.70604 25.5665 9.88457 25.4808 11.9349C25.4808 12.1058 25.5665 12.3621 25.6951 12.4903C25.7809 12.4903 25.9095 12.4903 25.9952 12.4475C26.0809 12.4048 26.1667 12.234 26.1667 12.1485C26.1238 11.1661 26.0381 10.1836 25.9952 9.24382L25.9523 8.85938C25.9095 8.51764 25.9095 8.17591 25.8666 7.83418L25.8237 7.15072L26.5096 6.93714L26.5954 7.19344C26.6383 7.27887 26.6811 7.40702 26.724 7.49245C26.8526 7.74875 26.9812 7.96233 27.0241 8.26135C27.1956 9.03024 27.4099 9.88457 27.4956 10.7389C27.5385 11.2088 27.6243 11.6787 27.6671 12.1485C27.8815 13.6009 28.053 15.096 28.053 16.5483C28.053 18.7268 27.7529 20.8627 27.4528 22.6995C27.1956 24.1518 26.8097 25.6469 26.2096 27.142C25.8237 28.1672 25.2664 29.1069 24.7091 30.0467C24.5805 30.2602 24.4519 30.4738 24.3233 30.6874C23.423 32.2679 22.1798 33.5921 20.5936 34.6173C19.6076 35.2581 18.4072 35.9415 16.9925 36.1124C16.7353 36.1551 16.521 36.1978 16.2637 36.2833C16.1351 36.326 16.0065 36.3687 15.8779 36.3687L15.6207 36.4114L15.3206 35.8134L15.4492 35.6425C15.4921 35.5998 15.4921 35.5571 15.535 35.5571C15.6207 35.4716 15.7064 35.3435 15.8779 35.2581C17.5927 34.4037 19.0932 33.0795 20.2506 31.2854C20.8508 30.3884 21.6225 29.1496 22.2227 27.8681C22.8657 26.5012 23.4659 24.9634 24.0661 23.2548C24.3661 22.315 24.5805 21.3753 24.7948 20.3928C24.8377 20.1365 24.9235 19.9229 24.9663 19.6666C25.1378 19.0259 25.2664 18.3424 25.395 17.6589C25.4808 17.3172 25.5236 16.9755 25.6094 16.6337C25.6522 16.5056 25.6951 16.1211 25.3522 16.0784C25.2235 16.0357 25.0521 16.0357 24.9663 16.4629C24.8806 16.7192 24.8377 17.0182 24.7948 17.3172C24.752 17.5308 24.7091 17.7017 24.6662 17.9152C24.4519 18.855 24.2375 19.8375 24.0232 20.8199C23.8517 21.4607 23.7231 22.0587 23.5087 22.6567L23.2944 23.2548C22.9086 24.4081 22.4799 25.5615 22.0083 26.6721C21.5367 27.74 21.0223 28.8079 20.4221 29.7904C19.2646 31.6699 17.8499 33.165 16.2209 34.2329C14.3346 35.4716 12.5769 35.8561 10.8621 35.5144C9.79039 35.3008 8.76151 34.8309 7.90412 34.4464C6.23219 33.6348 4.81748 32.4815 3.66 30.9864C2.07381 28.936 1.38789 26.5012 1.60224 23.5111C1.73085 22.016 2.03094 20.5209 2.58825 19.1113C3.10269 17.7017 3.74574 16.3774 4.43166 15.1387C6.18932 11.9777 8.50429 9.20111 11.248 6.89442C12.6198 5.74108 14.0774 4.67318 15.6207 3.6907C16.6067 3.04996 17.7213 2.58008 18.7502 2.1102L19.1789 1.93933C19.8648 1.64032 20.5936 1.38402 21.2795 1.12772C21.4939 1.04229 21.7082 0.999573 21.9226 0.914141C22.2227 0.914141 22.5227 0.828708 22.78 0.956857Z" fill="white"/>
<path d="M21.6225 0.401545C20.465 0.785992 19.2646 1.21316 18.15 1.72575C16.9925 2.28106 15.6207 2.92181 14.3346 3.77613C13.0914 4.58774 11.8481 5.57022 10.4763 6.80899C7.51829 9.41469 5.33192 12.1485 3.70287 15.2241C3.10269 16.4202 2.54538 17.5735 2.15955 18.6841C1.68798 20.0083 1.34502 21.0762 1.17354 22.1014C0.916325 23.5965 0.873455 25.1343 1.0878 26.6721C1.30215 28.2526 1.85946 29.7049 2.75973 31.0291C4.0887 32.9514 6.01784 34.4892 8.67577 35.6852C10.2191 36.3687 11.6338 36.7958 13.0485 36.9667C14.2917 37.0949 15.2777 37.1376 16.1351 37.0949C16.2637 37.0949 16.3495 37.0521 16.4781 37.0521C16.6496 37.0094 16.8639 37.0094 17.0783 37.0094C17.507 37.0094 17.9785 37.1376 18.3644 37.6502C18.3644 37.6929 18.493 37.7356 18.5358 37.7356C18.6216 37.7783 18.7073 37.821 18.7502 37.8638C20.0792 38.6754 21.4939 39.1025 22.9514 39.1025C22.9514 39.1025 22.9514 39.1025 22.9943 39.1025C24.5376 39.1025 26.1667 38.7608 27.8815 38.0773C29.2104 37.5647 30.4537 36.8813 31.6969 36.027C33.7547 34.6173 35.5981 32.8659 37.1842 30.8156C38.0845 29.6622 38.8562 28.2953 39.4992 27.0992C39.9279 26.3303 40.3137 25.476 40.5281 24.6217C40.6996 24.0237 40.8282 23.3402 40.9139 22.6995C40.9568 22.4432 40.9997 22.1869 41.0425 21.9733C41.1283 21.4607 40.8282 21.2044 40.5281 21.0762C40.3566 20.9908 40.1851 20.9054 40.0137 20.8627C39.6707 20.6918 39.3277 20.5636 39.0276 20.4782C38.7704 20.3928 38.5561 20.3073 38.2989 20.2646C37.4843 20.0083 36.6698 19.7093 35.8553 19.6239C33.8404 19.3676 31.7826 19.0686 29.7678 19.3676C29.5105 19.4103 29.2962 19.3676 29.1247 19.2394C28.9532 19.1113 28.9104 18.8977 28.9104 18.5987C28.9104 18.1715 28.9104 17.7444 28.9104 17.3172V16.5056H29.0818L28.8246 14.9251C28.6531 13.5155 28.4817 12.1058 28.3102 10.6962C28.0958 9.20111 27.6671 7.6206 26.9383 5.69837C26.1667 3.6907 25.0949 1.89662 23.8088 0.316112C23.7231 0.187963 23.4659 0.0598145 23.3373 0.0598145C22.8228 0.0598145 22.3513 0.145247 21.9226 0.316112L21.6225 0.401545ZM28.5674 21.0762C28.6531 20.3928 28.9532 20.0938 29.5963 20.0083C30.0678 19.9656 30.5394 19.9229 31.0538 19.9229L31.6969 19.8802C33.5403 19.8802 35.3837 20.1365 37.3986 20.6491C37.9988 20.8199 38.5989 21.0335 39.1563 21.2471C39.3277 21.3325 39.4992 21.3753 39.6707 21.4607C40.2709 21.717 40.5281 22.1869 40.3137 22.7849C40.228 23.0839 40.0994 23.3829 40.0137 23.7247C39.7993 24.4935 39.5421 25.3052 39.1991 26.0741C38.6418 27.2701 37.9988 28.4234 37.3129 29.4486C35.8553 31.5845 34.0119 33.464 31.8684 35.0445C30.2393 36.2405 28.8246 37.0521 27.4099 37.5647C26.1238 38.0346 24.752 38.4618 23.2944 38.4618C22.8657 38.4618 22.4799 38.4191 22.0512 38.3336C21.1938 38.1628 20.2506 37.9492 19.4361 37.3939C19.2646 37.2657 19.0503 37.0521 19.0074 36.7958C18.9645 36.4541 19.3504 36.2405 19.5219 36.1978C21.0223 35.5998 22.3941 34.6173 23.8088 33.0368C24.9663 31.7553 25.9095 30.1321 26.6811 28.2953C27.2384 26.9711 27.71 25.5615 28.1387 24.0237C28.353 23.0412 28.4817 22.016 28.5674 21.0762ZM22.78 0.956857C22.9943 1.04229 23.1229 1.25587 23.2515 1.55489C23.423 2.06748 23.5945 2.53736 23.8088 3.00724C24.1089 3.73342 24.3661 4.4596 24.5805 5.22849C25.2664 7.70604 25.5665 9.88457 25.4808 11.9349C25.4808 12.1058 25.5665 12.3621 25.6951 12.4903C25.7809 12.4903 25.9095 12.4903 25.9952 12.4475C26.0809 12.4048 26.1667 12.234 26.1667 12.1485C26.1238 11.1661 26.0381 10.1836 25.9952 9.24382L25.9523 8.85938C25.9095 8.51764 25.9095 8.17591 25.8666 7.83418L25.8237 7.15072L26.5096 6.93714L26.5954 7.19344C26.6383 7.27887 26.6811 7.40702 26.724 7.49245C26.8526 7.74875 26.9812 7.96233 27.0241 8.26135C27.1956 9.03024 27.4099 9.88457 27.4956 10.7389C27.5385 11.2088 27.6243 11.6787 27.6671 12.1485C27.8815 13.6009 28.053 15.096 28.053 16.5483C28.053 18.7268 27.7529 20.8627 27.4528 22.6995C27.1956 24.1518 26.8097 25.6469 26.2096 27.142C25.8237 28.1672 25.2664 29.1069 24.7091 30.0467C24.5805 30.2602 24.4519 30.4738 24.3233 30.6874C23.423 32.2679 22.1798 33.5921 20.5936 34.6173C19.6076 35.2581 18.4072 35.9415 16.9925 36.1124C16.7353 36.1551 16.521 36.1978 16.2637 36.2833C16.1351 36.326 16.0065 36.3687 15.8779 36.3687L15.6207 36.4114L15.3206 35.8134L15.4492 35.6425C15.4921 35.5998 15.4921 35.5571 15.535 35.5571C15.6207 35.4716 15.7064 35.3435 15.8779 35.2581C17.5927 34.4037 19.0932 33.0795 20.2506 31.2854C20.8508 30.3884 21.6225 29.1496 22.2227 27.8681C22.8657 26.5012 23.4659 24.9634 24.0661 23.2548C24.3661 22.315 24.5805 21.3753 24.7948 20.3928C24.8377 20.1365 24.9235 19.9229 24.9663 19.6666C25.1378 19.0259 25.2664 18.3424 25.395 17.6589C25.4808 17.3172 25.5236 16.9755 25.6094 16.6337C25.6522 16.5056 25.6951 16.1211 25.3522 16.0784C25.2235 16.0357 25.0521 16.0357 24.9663 16.4629C24.8806 16.7192 24.8377 17.0182 24.7948 17.3172C24.752 17.5308 24.7091 17.7017 24.6662 17.9152C24.4519 18.855 24.2375 19.8375 24.0232 20.8199C23.8517 21.4607 23.7231 22.0587 23.5087 22.6567L23.2944 23.2548C22.9086 24.4081 22.4799 25.5615 22.0083 26.6721C21.5367 27.74 21.0223 28.8079 20.4221 29.7904C19.2646 31.6699 17.8499 33.165 16.2209 34.2329C14.3346 35.4716 12.5769 35.8561 10.8621 35.5144C9.79039 35.3008 8.76151 34.8309 7.90412 34.4464C6.23219 33.6348 4.81748 32.4815 3.66 30.9864C2.07381 28.936 1.38789 26.5012 1.60224 23.5111C1.73085 22.016 2.03094 20.5209 2.58825 19.1113C3.10269 17.7017 3.74574 16.3774 4.43166 15.1387C6.18932 11.9777 8.50429 9.20111 11.248 6.89442C12.6198 5.74108 14.0774 4.67318 15.6207 3.6907C16.6067 3.04996 17.7213 2.58008 18.7502 2.1102L19.1789 1.93933C19.8648 1.64032 20.5936 1.38402 21.2795 1.12772C21.4939 1.04229 21.7082 0.999573 21.9226 0.914141C22.2227 0.914141 22.5227 0.828708 22.78 0.956857Z" stroke="white" stroke-width="0.2" mask="url(#path-1-outside-1_3_934)"/>
<path d="M15.449 29.2351C15.2347 29.5768 14.9775 29.8331 14.7202 30.0894C14.5059 30.303 14.2915 30.5166 14.1629 30.7302C14.0772 30.8583 13.9915 31.1146 13.9915 31.3282C14.0343 31.3709 14.1201 31.4136 14.1629 31.4136C14.2058 31.4136 14.2058 31.4563 14.2487 31.4563C14.2915 31.4563 14.2915 31.4136 14.3344 31.4136C14.463 31.3282 14.5916 31.2855 14.6774 31.2C15.9206 30.1321 16.8637 28.7225 17.6354 26.843C17.764 26.5867 17.6354 26.4585 17.4639 26.3731C17.2924 26.2877 17.121 26.2877 16.9495 26.6294C16.8637 26.8002 16.7351 27.0138 16.6494 27.1847C16.2636 27.9109 15.8777 28.5943 15.449 29.2351Z" fill="white"/>
<path d="M19.5645 13.3873L19.736 12.7893C19.736 12.7466 19.736 12.7466 19.6931 12.7039C19.6931 12.6611 19.6502 12.5757 19.6074 12.533C19.5216 12.4476 19.393 12.4048 19.3073 12.4048C19.1358 12.4903 19.0072 12.6611 18.9214 12.832C18.6213 13.6009 18.3641 14.4125 18.1069 15.1814C18.0212 15.4804 17.8926 15.7794 17.8068 16.0357C17.7639 16.2066 17.6782 16.3775 17.6353 16.5483C17.4639 16.9755 17.3353 17.3599 17.2495 17.7871C17.2495 17.8725 17.3353 18.0861 17.3781 18.1715C17.421 18.1715 17.6353 18.1288 17.8497 18.0007C17.8926 17.958 17.9354 17.7871 17.9783 17.7017L18.0212 17.6162C18.3641 16.6765 18.7071 15.7794 19.0072 14.8397C19.2644 14.4125 19.4359 13.8999 19.5645 13.3873Z" fill="white"/>
<path d="M14.7202 22.8276C14.5059 23.2975 14.2486 23.8101 14.0343 24.28C13.9057 24.579 13.7342 24.878 13.5627 25.177C13.5198 25.2625 13.477 25.3906 13.3912 25.476C13.4341 25.5188 13.4341 25.5615 13.477 25.5615C13.5198 25.6469 13.6485 25.7751 13.6913 25.8178C13.8628 25.7751 14.12 25.6469 14.2058 25.5188C14.8059 24.3654 15.3633 23.2121 15.9206 22.0587L16.4779 20.9481C16.5636 20.7773 16.5636 20.6918 16.2635 20.4782C16.1778 20.3928 16.1349 20.3928 15.9206 20.6064C15.7919 20.7773 15.6205 20.9481 15.5347 21.1617C15.2346 21.6743 14.9774 22.2296 14.7202 22.8276Z" fill="white"/>
<path d="M16.2635 13.43C16.1778 13.3873 16.1349 13.3446 16.092 13.3446C16.0492 13.3446 16.0492 13.3446 16.0492 13.3446C15.9634 13.3873 15.8348 13.4728 15.7491 13.6863L15.449 14.1989C14.9774 15.0533 14.463 15.9503 14.0343 16.8473C13.8199 17.2745 13.6485 17.7017 13.477 18.2997C13.4341 18.3851 13.477 18.4706 13.5199 18.556C13.5627 18.6414 13.6913 18.6841 13.8199 18.6841L13.8628 18.6414C13.9914 18.556 14.12 18.4278 14.2058 18.2997C14.6345 17.4454 15.0632 16.6338 15.4919 15.7794C15.792 15.1814 16.092 14.5834 16.3921 14.0281C16.5636 13.6009 16.435 13.5155 16.2635 13.43Z" fill="white"/>
<path d="M19.1787 23.7674C19.2644 23.7247 19.3931 23.6392 19.5645 23.3402C20.4219 21.9733 20.8935 20.4355 21.0221 18.6414C21.0221 18.4706 20.9792 18.257 20.8506 18.1716C20.8078 18.1288 20.7649 18.0861 20.722 18.0861C20.5505 18.0861 20.3791 18.3424 20.3362 18.6414C20.3362 18.6841 20.3362 18.7269 20.3362 18.7696C20.2933 18.9832 20.2504 19.1967 20.2076 19.4103C20.1218 19.9229 20.0361 20.4782 19.8646 20.9908C19.6931 21.4607 19.4788 21.9306 19.2644 22.3578C19.093 22.6568 18.9644 22.9558 18.8357 23.2548C18.7929 23.3829 18.7929 23.5538 18.8357 23.6392C18.8357 23.7247 19.093 23.8101 19.1787 23.7674Z" fill="white"/>
<path d="M11.5049 21.8879C11.4192 21.8452 11.2477 21.717 10.9905 22.0587C10.9048 22.1442 10.8619 22.2723 10.819 22.4432V22.4859C10.7333 22.6995 10.6047 22.9131 10.5189 23.1266C10.2617 23.682 10.0045 24.2373 9.79014 24.7926C9.61866 25.2197 9.44718 25.7323 9.31857 26.2022C9.2757 26.4158 9.18996 26.5867 9.14709 26.8002C9.14709 26.843 9.18996 26.843 9.18996 26.8857C9.2757 27.0138 9.36144 27.142 9.44718 27.142C9.7044 27.2274 9.83301 27.0138 9.87588 26.843C9.91875 26.7575 9.91875 26.6294 9.96162 26.5012C10.0045 26.3304 10.0474 26.1595 10.0902 25.9886L10.1331 25.8605C10.6047 24.7071 11.0762 23.5538 11.6335 22.4005C11.7622 22.1442 11.7193 22.016 11.5049 21.8879Z" fill="white"/>
<path d="M12.7911 12.7465C11.5478 13.729 10.6904 15.0532 10.0903 17.1036C10.0474 17.189 10.0903 17.2318 10.1331 17.3172C10.2189 17.4026 10.3475 17.4881 10.519 17.5308C10.6047 17.4453 10.7333 17.3599 10.7333 17.2745C11.1191 16.2066 11.4621 15.2241 12.1909 14.4125C12.4052 14.1562 12.6196 13.9426 12.8339 13.6863C12.9625 13.5154 13.0912 13.3873 13.2626 13.2164C13.3912 13.0883 13.4341 13.0456 13.2198 12.832C13.0912 12.7038 13.0483 12.6611 12.9625 12.6611C12.9197 12.6184 12.8339 12.6611 12.7911 12.7465Z" fill="white"/>
<path d="M13.6056 7.91962C13.3056 8.09048 12.9626 8.21863 12.7054 8.47493C11.8051 9.24382 10.7762 10.1836 10.2189 11.5078C10.176 11.6359 10.1332 11.7214 10.1332 11.8068C10.2189 11.8922 10.3475 11.9777 10.4761 12.1058L10.519 12.1485C10.519 12.1485 10.519 12.1485 10.5619 12.1058C10.6905 11.9777 10.7762 11.8922 10.862 11.8068C11.0334 11.5932 11.2049 11.3369 11.3335 11.1233C11.6336 10.6535 11.9766 10.1836 12.3624 9.79914C12.6625 9.45741 13.0483 9.20111 13.3913 8.94481C13.5628 8.81666 13.7342 8.68851 13.9057 8.56036C14.2916 8.26135 14.2058 8.1332 14.1201 8.04777C14.0343 7.83419 13.8629 7.79147 13.6056 7.91962Z" fill="white"/>
<path d="M8.16117 13.729C7.81821 14.1562 7.38951 14.626 7.08942 15.1386C6.48925 16.1211 6.14629 17.1036 6.06055 18.1715C6.14629 18.556 6.2749 18.556 6.36064 18.556C6.44638 18.556 6.66073 18.5987 6.78934 18.0861C6.8322 17.9579 6.8322 17.8298 6.8322 17.7016C6.8322 17.488 6.87507 17.3172 6.96081 17.1036C7.38951 15.9503 7.94682 15.0105 8.67561 14.1989C8.93283 13.8999 8.84709 13.729 8.71848 13.5581C8.63274 13.4727 8.547 13.43 8.50413 13.43C8.41839 13.5154 8.28978 13.6009 8.16117 13.729Z" fill="white"/>
<path d="M15.6205 6.80902C15.5347 6.89446 15.5347 7.10804 15.5776 7.19347C15.6205 7.23619 15.7491 7.32162 15.8348 7.40705L15.8777 7.44977L15.9206 7.40705C16.0492 7.32162 16.1778 7.19347 16.2635 7.10804C17.2924 5.91198 18.4499 5.10037 19.8217 4.67321C20.1647 4.54506 20.1647 4.33148 20.1647 4.20333C20.1647 4.1179 20.1218 4.07518 20.0361 4.03246C19.9932 3.98975 19.9075 3.98975 19.8646 3.98975C19.8217 3.98975 19.736 3.98975 19.6931 4.03246C19.0929 4.24604 18.4928 4.54506 17.764 4.88679C16.9494 5.31395 16.2635 5.91198 15.6205 6.80902Z" fill="white"/>
<path d="M5.28884 20.6064C5.24597 20.521 5.2031 20.4355 5.07449 20.3928C5.03162 20.3928 4.98875 20.3501 4.94588 20.3501C4.86014 20.3501 4.73153 20.4355 4.60292 20.7345C4.00274 21.9306 3.74552 23.0412 3.83126 24.0237V24.3227C3.83126 24.4936 3.83126 24.6217 3.83126 24.7499C3.83126 24.9635 3.83126 25.1343 3.87413 25.3479C3.917 25.7751 4.21709 25.8178 4.30283 25.8605C4.38857 25.8605 4.60292 25.6042 4.56005 25.3052C4.56005 25.2625 4.56005 25.177 4.56005 25.1343V25.0062C4.38857 23.5111 4.64579 22.1869 5.24597 21.0763C5.28884 20.9054 5.33171 20.7345 5.28884 20.6064Z" fill="white"/>
<path d="M8.58978 19.4957C7.81813 20.8199 7.4323 22.1014 7.34656 23.4683V23.7674C7.34656 24.1518 7.56091 24.4081 7.68952 24.4508C7.73239 24.4508 7.77526 24.4508 7.861 24.4081C7.98961 24.28 8.03248 24.0664 8.03248 23.8528C8.07535 22.3577 8.50404 20.9481 9.40431 19.6666C9.53292 19.4957 9.49005 19.453 9.36144 19.3249C9.2757 19.2394 9.18996 19.154 9.01848 19.154C8.88987 19.0686 8.71839 19.2394 8.58978 19.4957Z" fill="white"/>
<path d="M21.9223 9.15839C21.6651 9.15839 21.6222 9.4574 21.5793 9.67098C21.5793 9.7137 21.5793 9.75641 21.5793 9.84185C21.5793 9.92728 21.5793 9.97 21.5793 10.0554L21.5365 10.9098C21.4936 12.0204 21.4079 13.131 21.365 14.2416C21.365 14.4979 21.4507 14.6688 21.708 14.7115C21.7937 14.7115 21.9223 14.7542 22.0509 14.3698C22.0938 14.2416 22.0938 14.1135 22.0938 13.9853C22.1366 13.43 22.1795 12.8747 22.2224 12.3194L22.2653 11.4224H22.3081V11.1233C22.3081 10.6535 22.3081 10.1836 22.3081 9.7137C22.3081 9.41468 22.0938 9.15839 21.9223 9.15839Z" fill="white"/>
<path d="M19.4788 6.80902C19.393 6.80902 19.3073 6.93717 19.2215 6.97989C18.75 7.70606 18.2355 8.43224 17.764 9.20113C17.4639 9.71373 17.1638 10.269 16.9066 10.8244C16.8637 10.9098 16.8208 10.9952 16.9066 11.1234C16.9494 11.2088 17.078 11.2942 17.2495 11.2942L17.2924 11.2515C17.421 11.1234 17.5925 10.9525 17.7211 10.7816C17.764 10.7389 17.8068 10.6535 17.8497 10.5253C17.8926 10.4399 17.9354 10.3545 17.9783 10.269L18.407 9.54287C18.8357 8.81669 19.3073 8.04779 19.8217 7.32162C19.9932 7.0226 19.9932 6.97989 19.736 6.80902C19.6502 6.80902 19.5645 6.80902 19.4788 6.80902Z" fill="white"/>
<path d="M7.30375 31.3709C7.38949 31.3709 7.38949 31.3282 7.43236 31.2854C7.47523 31.2 7.47523 31.1146 7.43236 30.9864C7.00366 29.6622 6.6607 28.1244 6.91792 26.4158C6.91792 26.3303 6.83218 26.1595 6.74644 26.1168C6.70357 26.1168 6.48922 26.1595 6.36061 26.2876C6.31774 26.3303 6.232 26.5012 6.18913 26.7148C6.14626 26.9711 6.14626 27.1847 6.18913 27.441C6.18913 27.5691 6.18913 27.6545 6.18913 27.7827V28.039H6.10339L6.18913 28.5516C6.31774 29.3205 6.48922 30.1321 6.61783 30.901C6.6607 31.0291 6.70357 31.1573 6.74644 31.1573C7.04653 31.3709 7.21801 31.4136 7.30375 31.3709Z" fill="white"/>
<path d="M10.2617 32.2252C10.9476 31.2427 11.5907 30.2176 12.1908 29.2351L12.2766 29.1069C12.3194 29.0642 12.3623 28.9788 12.3623 28.8506C12.3623 28.8079 12.3623 28.8079 12.4052 28.7652C12.4052 28.7225 12.3623 28.7225 12.3623 28.6798C12.3194 28.5943 12.2766 28.5089 12.2337 28.4662C12.2337 28.4662 12.2337 28.4662 12.1908 28.4662C12.1051 28.4662 11.9765 28.5089 11.7621 28.5943C11.7193 28.6371 11.6335 28.7652 11.5478 28.8506L11.5049 28.8933C11.2477 29.3205 10.9905 29.705 10.7333 30.1321C10.3903 30.6447 10.0902 31.1573 9.74726 31.7126C9.49004 32.0971 9.61865 32.3107 9.79013 32.4388C9.833 32.4815 9.91874 32.5242 9.96161 32.5242C10.0902 32.4815 10.2188 32.2679 10.2617 32.2252Z" fill="white"/>
<path d="M34.0974 29.2778C34.0116 29.235 33.9688 29.1923 33.9259 29.1923C33.8402 29.1923 33.7544 29.3632 33.6687 29.4486L33.5829 29.5341C32.6827 30.7301 31.7824 31.5844 30.7107 32.1397C30.6678 32.1825 30.5821 32.2679 30.5392 32.3106C30.5821 32.5242 30.6678 32.6951 30.7964 32.7378C30.8393 32.7805 30.925 32.7805 30.9679 32.7805L31.268 32.6096C31.6967 32.396 32.1254 32.1397 32.4255 31.8407C32.9399 31.3709 33.4115 30.8155 33.8402 30.2602L34.0974 29.9185C34.1831 29.7904 34.3117 29.6195 34.3117 29.4913C34.3546 29.4913 34.2689 29.4059 34.0974 29.2778Z" fill="white"/>
<path d="M35.3834 27.7827C35.5121 27.6546 35.5978 27.5691 35.7264 27.441C36.0265 27.142 36.3266 26.8857 36.4981 26.5439C36.8839 25.9032 37.184 25.2625 37.4841 24.5363C37.6127 24.28 37.6984 24.0664 37.827 23.8101C37.7842 23.7674 37.7413 23.7247 37.6984 23.6819C37.6127 23.5538 37.4841 23.4257 37.3983 23.3829C37.3555 23.3829 37.184 23.4684 37.0554 23.5965C36.9696 23.6819 36.8839 23.9382 36.841 24.1091C36.5838 25.0916 36.1122 25.9459 35.3406 26.7148C35.1691 26.8857 35.0405 27.0565 34.9119 27.2274C34.8261 27.3128 34.8261 27.3556 35.0834 27.6546C35.1691 27.74 35.212 27.7827 35.2548 27.7827C35.2977 27.8681 35.3406 27.8254 35.3834 27.7827Z" fill="white"/>
<path d="M33.24 25.6896C32.7256 26.544 32.1254 27.4837 31.1823 28.1672C31.1394 28.2099 31.0536 28.2526 31.0108 28.2953C30.7964 28.4235 30.6249 28.5516 30.4963 28.7225C30.4106 28.8079 30.4535 28.8934 30.4535 28.9788C30.4963 29.0642 30.6249 29.1924 30.7964 29.1924C30.8393 29.1924 30.8393 29.1497 30.8822 29.1497C31.0108 29.1069 31.1823 29.0215 31.3109 28.9361C32.4255 28.1672 33.1971 27.2274 33.7544 26.1168C34.0117 25.6042 33.8831 25.5188 33.6687 25.3906C33.6258 25.3479 33.583 25.3479 33.5401 25.3479C33.4972 25.3479 33.4115 25.4333 33.24 25.6896Z" fill="white"/>
<path d="M27.8385 31.0719C26.9811 31.5845 26.1237 32.097 25.2663 32.5669C25.009 32.6951 25.0519 32.7805 25.0948 32.9087C25.1377 33.0368 25.2234 33.165 25.352 33.2504L25.5235 33.2077C25.7378 33.1222 25.9093 33.0368 26.1237 32.9941C27.2383 32.6096 28.2243 31.9262 29.0817 30.8583C29.296 30.602 29.2532 30.4738 29.1246 30.3457C29.0388 30.2602 28.9959 30.2175 28.9102 30.2175C28.8245 30.2175 28.7387 30.2602 28.6101 30.3884C28.5244 30.4738 28.4386 30.5593 28.3958 30.6447C28.1385 30.7728 28.0099 30.9437 27.8385 31.0719Z" fill="white"/>
<path d="M28.9958 34.4891C29.1245 34.361 29.2102 34.1901 28.953 33.9765C28.9101 33.9338 28.8672 33.8911 28.7815 33.8911C28.6958 33.8911 28.61 33.9338 28.4814 34.062C27.3668 35.0017 26.2522 35.5571 25.0947 35.7279C24.7517 35.7706 24.7089 35.8988 24.7089 36.1551C24.7089 36.3259 24.7517 36.4541 25.1376 36.4541C26.7666 36.1124 28.0527 35.4716 28.9958 34.4891Z" fill="white"/>
</g>
<defs>
<clipPath id="clip0_3_934">
<rect width="40.0833" height="39" fill="white" transform="translate(0.958984 0.0598145)"/>
</clipPath>
</defs>
</svg>
