<svg width="20" height="20" viewBox="0 0 20 20" fill="none" xmlns="http://www.w3.org/2000/svg">
<path d="M18.9673 13.63L14.7922 11.8487C14.6139 11.773 14.4156 11.7571 14.2274 11.8032C14.0391 11.8494 13.8711 11.9552 13.7484 12.1047L11.8995 14.3536C8.99768 12.9916 6.66241 10.6668 5.29424 7.77807L7.55327 5.93741C7.70375 5.81556 7.81026 5.64823 7.85667 5.46074C7.90308 5.27326 7.88687 5.07582 7.81049 4.89832L6.02116 0.741989C5.93733 0.550652 5.78906 0.394432 5.60192 0.300267C5.41478 0.206101 5.2005 0.179892 4.99602 0.226158L1.11915 1.1168C0.92201 1.16212 0.746125 1.27262 0.620197 1.43026C0.49427 1.58791 0.425736 1.78339 0.425781 1.98481C0.425781 11.5036 8.17581 19.2039 17.7226 19.2039C17.925 19.204 18.1215 19.1358 18.2799 19.0105C18.4383 18.8851 18.5494 18.71 18.5949 18.5137L19.4896 14.6542C19.5358 14.4497 19.5089 14.2355 19.4135 14.0485C19.3182 13.8616 19.1604 13.7136 18.9673 13.63Z" fill="#333333"/>
</svg>
