<svg width="22" height="25" viewBox="0 0 22 25" fill="none" xmlns="http://www.w3.org/2000/svg">
<g clip-path="url(#clip0_313_25)">
<path d="M20.9835 6.5187C19.1193 4.68439 17.2359 2.8116 15.4104 1.00294L15.1524 0.746389C15.1202 0.714321 15.0944 0.675839 15.0621 0.630943C15.0428 0.605288 15.0234 0.579634 15.0041 0.553979L14.9138 0.444946H4.34823L4.30953 0.457774C4.26437 0.470601 4.21922 0.483428 4.17407 0.496256C4.07087 0.52191 3.96766 0.553979 3.86446 0.586047C2.62601 0.970868 1.82617 2.08685 1.82617 3.4209C1.82617 5.24238 1.82617 7.06387 1.82617 8.88535V9.16114H3.98701V8.88535C3.98701 7.09594 3.98701 5.30652 3.98701 3.51069C3.98701 3.16435 4.07087 2.94628 4.25792 2.77953C4.39983 2.65767 4.58044 2.59353 4.8191 2.59353C7.83137 2.58712 10.8436 2.58712 13.8559 2.5807C13.8559 2.59994 13.8559 2.61918 13.8559 2.63843C13.8559 2.96552 13.8559 3.29903 13.8559 3.62613C13.8559 4.38936 13.8559 5.17824 13.8817 5.9543C13.914 6.94201 14.7912 7.80144 15.791 7.83351C16.5392 7.85275 17.3004 7.85275 18.0422 7.84634C18.3647 7.84634 18.6872 7.84634 19.0097 7.84634H19.0871C19.0935 9.98209 19.1 11.8741 19.1064 13.7405C19.1129 16.1841 19.1193 18.57 19.1322 21.3664C19.1322 21.6807 19.0613 21.918 18.9129 22.0591C18.7646 22.2066 18.5324 22.2771 18.2099 22.2771C13.7785 22.2771 9.35364 22.2771 4.9223 22.2771C4.28372 22.2771 3.99346 21.9949 3.99346 21.36C3.99346 21.1419 3.99346 20.9174 3.99346 20.6865V20.1093H1.82617V20.3787C1.82617 20.4941 1.82617 20.6096 1.82617 20.7186C1.82617 20.9944 1.82617 21.2702 1.82617 21.5524C1.84552 22.5144 2.25189 23.2905 3.03882 23.8677C3.54839 24.2397 4.14182 24.4193 4.86425 24.4193C4.86425 24.4193 4.86425 24.4193 4.8707 24.4193C7.23795 24.4193 9.6052 24.4193 11.9724 24.4193C14.0688 24.4193 16.1587 24.4193 18.255 24.4193C18.4937 24.4193 18.7194 24.4001 18.9258 24.368C20.2094 24.1499 21.2221 23.0083 21.2866 21.7127C21.2931 21.5716 21.2995 21.4241 21.2995 21.2638V18.2878C21.2995 14.5358 21.2995 11.3033 21.306 7.23704C21.2995 6.96125 21.2028 6.73035 20.9835 6.5187Z" fill="#333333"/>
<path d="M9.38623 16.6331C9.38623 15.376 9.38623 14.1317 9.38623 12.8939C10.1087 12.6566 11.0117 12.8939 11.4374 13.4262C11.8889 13.9906 11.9212 15.1772 11.5084 15.8763C11.1407 16.4984 10.2957 16.8062 9.38623 16.6331Z" fill="#333333"/>
<path d="M4.31607 14.6064C4.31607 14.0227 4.30962 13.5096 4.32252 13.0029C4.32252 12.9388 4.43217 12.8233 4.50312 12.8169C4.72888 12.7977 4.96754 12.7913 5.1933 12.8298C5.61902 12.9067 5.85123 13.1697 5.88993 13.5673C5.92863 13.9714 5.72222 14.369 5.32876 14.4845C5.0127 14.5679 4.67728 14.5679 4.31607 14.6064Z" fill="#333333"/>
<path d="M21.1449 10.662C21.1449 9.66143 20.7063 9.13551 19.7968 9.03931H1.85856C1.20063 9.1291 0.697511 9.63578 0.66526 10.3028C0.639459 10.8159 0.652359 11.329 0.652359 11.8421C0.652359 14.0035 0.68461 16.1649 0.639459 18.3263C0.620108 19.3076 0.955522 20.0003 1.89081 20.1542H19.8484C20.6934 20.0195 21.1707 19.4102 21.1642 18.4995C21.1255 15.8827 21.1513 13.2723 21.1449 10.662ZM6.16734 15.3119C5.69002 15.5428 5.18045 15.5941 4.65798 15.5877C4.55477 15.5877 4.45157 15.5877 4.32256 15.5877C4.32256 16.2675 4.32256 16.9345 4.32256 17.6208C3.87104 17.6208 3.45178 17.6208 3.01316 17.6208C3.01316 15.7288 3.01316 13.8432 3.01316 11.9126C4.07745 11.81 5.14175 11.624 6.18024 12.0409C6.87042 12.3167 7.18003 12.8811 7.18648 13.6058C7.19293 14.3755 6.87687 14.9655 6.16734 15.3119ZM13.2046 14.6898C13.1465 16.4471 12.2241 17.4541 10.3987 17.6401C9.63759 17.717 8.86355 17.6529 8.07017 17.6529C8.07017 15.7352 8.07017 13.8432 8.07017 11.919C9.03126 11.8036 9.9859 11.7266 10.9405 11.8998C12.437 12.182 13.2497 13.1825 13.2046 14.6898ZM17.6424 12.9132C16.907 12.9132 16.1846 12.9132 15.4235 12.9132C15.4235 13.375 15.4235 13.7918 15.4235 14.2472C15.7718 14.2472 16.1201 14.2472 16.462 14.2472C16.7974 14.2472 17.1328 14.2472 17.4876 14.2472C17.4876 14.6 17.4876 14.9335 17.4876 15.2991C16.8167 15.2991 16.133 15.2991 15.4235 15.2991C15.4235 16.0879 15.4235 16.8512 15.4235 17.6272C14.9655 17.6272 14.5398 17.6272 14.1012 17.6272C14.1012 15.7095 14.1012 13.8047 14.1012 11.8742C15.2751 11.8742 16.4491 11.8742 17.6424 11.8742C17.6424 12.2077 17.6424 12.5476 17.6424 12.9132Z" fill="#333333"/>
</g>
<defs>
<clipPath id="clip0_313_25">
<rect width="20.6667" height="24" fill="white" transform="translate(0.632812 0.444946)"/>
</clipPath>
</defs>
</svg>
