<svg width="20" height="20" viewBox="0 0 20 20" fill="none" xmlns="http://www.w3.org/2000/svg">
<path d="M18.6607 13.8538L14.4856 12.0726C14.3072 11.9969 14.109 11.9809 13.9208 12.0271C13.7325 12.0733 13.5644 12.1791 13.4418 12.3286L11.5928 14.5775C8.69104 13.2155 6.35577 10.8907 4.9876 8.00194L7.24663 6.16128C7.39711 6.03944 7.50362 5.87211 7.55003 5.68462C7.59644 5.49713 7.58023 5.2997 7.50385 5.1222L5.71452 0.965866C5.63069 0.774529 5.48242 0.618309 5.29528 0.524143C5.10814 0.429978 4.89385 0.403768 4.68938 0.450035L0.812505 1.34068C0.615369 1.386 0.439484 1.4965 0.313557 1.65414C0.187629 1.81179 0.119095 2.00727 0.119141 2.20868C0.119141 11.7274 7.86917 19.4278 17.416 19.4278C17.6184 19.4279 17.8148 19.3597 17.9732 19.2344C18.1317 19.109 18.2427 18.9338 18.2883 18.7375L19.1829 14.8781C19.2291 14.6735 19.2022 14.4594 19.1069 14.2724C19.0116 14.0855 18.8538 13.9375 18.6607 13.8538Z" fill="white"/>
</svg>
