<svg width="36" height="40" viewBox="0 0 36 40" fill="none" xmlns="http://www.w3.org/2000/svg">
<g clip-path="url(#clip0_51_211)">
<path d="M9.03271 4.0221C9.8618 2.65194 11.0836 2.34255 12.48 2.43094C13.4836 2.47514 14.3127 2.20995 14.9236 1.41437C16.5382 -0.662979 18.6763 -0.0441946 20.1163 1.01658C20.5963 1.37017 20.9891 1.81216 21.3818 2.16575C22.2109 2.03315 23.0836 1.76796 23.9127 1.72376C25.0473 1.67956 25.92 2.20995 26.4 3.27072C26.7054 3.88951 27.1418 4.2873 27.7963 4.55249C29.1054 4.99448 29.8473 6.01105 30.1963 7.33702C30.24 7.55802 30.2836 7.77901 30.3709 7.91161C31.5054 9.19337 32.0291 10.7403 32.16 12.4199C34.2545 12.1547 35.6073 13.2597 35.8254 15.4696C35.9127 16.1326 35.7818 16.7956 35.6945 17.4144C35.5636 18.6077 35.3454 19.8011 35.1709 20.9945C35.1273 21.2597 35.1709 21.6133 35.3454 21.7459C36 22.3646 35.9563 23.1602 35.8691 23.9558C35.8254 24.3536 35.7382 24.7514 35.5636 25.0608C34.2982 27.5359 33.2945 30.232 31.7236 32.4862C28.9745 36.4641 25.0036 38.3204 20.1163 37.9669C19.7236 37.9227 19.2873 37.8785 18.8945 37.8343C17.9345 37.6575 17.1054 37.9669 16.5818 38.8508C15.8836 40.0442 14.9236 40.1768 13.6145 40C11.4327 39.6906 9.73089 38.6298 8.20362 37.1713C7.50544 36.5083 7.41817 35.7127 7.67998 34.8729C7.9418 33.9448 7.9418 33.5912 7.06907 33.2818C4.45089 32.3536 3.27271 30.0995 2.13817 27.8453C1.09089 25.7238 0.261802 23.558 0.0872564 21.2155C-0.261835 17.3702 0.610892 13.7017 2.70544 10.4751C3.70907 8.97238 4.97453 7.60221 6.10907 6.23205C6.63271 5.61326 7.24362 5.17128 7.41817 4.2431C7.54907 3.62431 7.98544 3.58011 9.03271 4.0221ZM14.7054 36.9945C14.6618 36.7735 14.5745 36.5083 14.5309 36.2431C14.2691 34.6961 14.0073 33.1934 13.8327 31.6464C13.7891 31.0276 13.6582 30.5414 13.2218 30.0994C12.6109 29.4807 12.3927 28.6851 12.6109 27.8453C12.7854 27.1381 13.0473 26.4751 13.3963 25.8564C13.7891 25.1934 14.0509 24.4862 13.92 23.7348C13.7891 22.895 14.0509 22.1878 14.5309 21.5691C15.0109 20.9061 15.5345 20.3315 15.9709 19.6243C16.8 18.3425 16.6254 16.0442 15.5345 15.116C14.1818 13.9669 13.8327 12.5083 13.92 10.8287C13.9636 10.2099 13.92 9.54697 13.7891 8.92818C13.44 7.33702 12.2182 6.76243 10.8654 7.42542C10.7345 8.39779 10.6909 9.37017 10.4727 10.2983C10.08 12.0221 10.3418 13.5249 11.3454 15.0718C13.0909 17.6796 13.3527 20.5083 11.6945 23.337C11.3891 23.8674 11.0836 24.3978 10.8654 24.9282C10.4291 26.1216 10.2109 27.3149 10.9091 28.5083C11.7818 29.9669 11.6073 31.4254 10.8654 32.884C10.56 33.4586 10.3854 34.0332 10.1236 34.6077C10.0363 34.7845 9.8618 34.9171 9.68726 35.0497C9.59998 34.8287 9.3818 34.6077 9.42544 34.4309C9.59998 33.8122 9.81817 33.2376 10.08 32.663C10.6909 31.4254 10.7345 30.232 9.99271 29.0829C9.51271 28.3315 9.3818 27.4917 9.3818 26.6077C9.42544 25.2376 9.94907 24.0442 10.6036 22.895C12.0436 20.5083 11.7382 18.1216 10.4291 15.8232C9.94907 14.9392 9.42544 14.0995 8.9018 13.2155C8.85816 13.3039 8.72726 13.4365 8.63998 13.5691C7.72362 14.9834 6.5018 16.0442 4.97453 16.7956C4.62544 16.9724 4.31998 17.1934 4.01453 17.4144C3.22907 18.0774 3.18544 18.1216 3.6218 19.0939C4.31998 20.6409 4.71271 22.232 4.97453 23.9116C5.27998 26.1658 5.49817 28.4641 6.58908 30.5414C6.9818 31.337 7.50544 32.0884 8.11635 32.7072C8.72726 33.326 8.94544 33.9006 8.72726 34.6961C8.68362 34.9613 8.59635 35.1823 8.55271 35.4033C10.6473 35.8895 12.6109 36.4199 14.7054 36.9945ZM29.28 25.9006C29.4109 25.5912 29.5418 25.326 29.6291 25.0608C30.0654 23.4696 30.5018 21.8785 30.8945 20.2873C31.2436 18.7845 31.7236 17.326 32.5963 16.0442C32.7709 15.779 32.9891 15.558 33.2073 15.2928C33.2945 15.337 33.3382 15.3812 33.4254 15.4696C33.2509 15.8232 33.12 16.1326 32.9454 16.4862C32.2909 17.6796 31.8982 18.9613 31.6363 20.2873C31.2436 22.1879 30.8509 24.0442 30.24 25.8564C29.7163 27.4917 28.8873 29.0387 28.1891 30.5856C29.6727 30.7624 32.16 29.4365 32.8582 28.0663C33.3382 27.0939 33.8618 26.1658 34.2982 25.1934C34.56 24.6188 34.6909 24 34.8218 23.3812C34.8654 23.116 34.7345 22.7624 34.56 22.5856C34.1236 22.1437 34.0363 21.6575 34.1236 21.0829C34.2982 19.7569 34.5163 18.4751 34.7345 17.1934C34.9091 16.1768 34.9091 15.2044 34.3418 14.3204C33.7309 13.3923 33.2945 13.2597 32.3782 13.8785C31.5927 14.4088 30.72 14.674 29.8036 14.7624C27.5782 14.9392 27.4473 15.116 27.0545 17.4586C27.0545 17.5912 27.0545 17.6796 27.0545 17.8122C26.7927 20.7293 27.6654 23.3812 29.28 25.9006ZM22.6036 33.6796C24.6545 32.5746 26.2691 31.2486 27.5782 29.5249C28.8 27.8895 29.0618 26.3425 27.9273 24.442C26.4 21.8785 26.0945 19.0055 26.7491 16.0884C26.7491 16 26.7491 15.8674 26.7054 15.6022C26.2691 16.0442 25.8763 16.3094 25.6145 16.7072C24.3491 18.4751 22.8654 20.0221 21.0763 21.2597C20.8582 21.4365 20.6836 21.7459 20.5963 22.0553C20.16 23.7348 20.2473 25.4144 20.9018 27.0055C21.2945 28.0221 21.7745 28.9945 22.2109 29.9669C22.6036 30.8066 22.8218 31.6464 22.6036 32.5746C22.56 32.8398 22.6036 33.1934 22.6036 33.6796ZM20.0727 22.1437C16.9309 24.442 15.0545 27.5359 14.9673 31.4696C14.9236 33.6354 15.4473 35.8453 15.7091 38.0111C17.8473 36.4641 19.7236 34.7403 22.0363 33.9448C22.08 33.326 22.1673 32.8398 22.1236 32.3536C22.08 31.6464 22.0363 30.9392 21.7745 30.2762C21.4691 29.3923 20.9891 28.5967 20.64 27.7127C19.8982 25.9448 19.5054 24.1326 20.0727 22.1437ZM13.92 29.2597C14.4 28.0221 14.7927 26.9171 15.3163 25.8122C16.4509 23.4696 18.3273 21.7459 20.4218 20.2431C21.9927 19.0939 23.4327 17.8122 24.5236 16.1768C25.4836 14.8066 26.8363 14.0111 28.4073 13.6575C28.8436 13.5691 29.3236 13.4807 29.8036 13.3923C29.6291 12.1989 29.0618 11.3591 28.0145 10.9613C27.0982 10.6077 26.5309 11.3149 25.9636 11.8895C25.92 11.9337 25.8763 11.9779 25.8327 12.0221C24.5673 13.3481 23.0836 13.8785 21.3382 13.3039C20.2036 12.9503 19.2873 13.2155 18.5891 14.1437C18.4145 14.3646 18.1963 14.5856 17.9782 14.8066C17.4545 15.2928 17.3236 15.8232 17.4982 16.4862C17.8909 18.2099 17.4982 19.7569 16.32 21.0829C16.0582 21.3481 15.84 21.6133 15.6218 21.8785C15.0982 22.453 14.88 23.0718 14.9673 23.8674C15.0982 24.7956 14.8363 25.6354 14.2691 26.4309C14.0509 26.6961 13.8763 27.0497 13.7891 27.4033C13.6145 27.9779 13.3527 28.6409 13.92 29.2597ZM8.29089 4.90608C7.81089 5.56907 7.19998 6.14365 6.9818 6.80663C6.23998 9.14918 5.14907 11.2707 3.92726 13.3923C3.27271 14.5414 3.09817 15.8232 3.18544 17.1934C4.14544 16.6188 5.01817 16.1768 5.84726 15.6022C8.50907 13.7901 9.59998 11.1381 9.59998 8C9.59998 6.85083 9.29453 5.74586 8.29089 4.90608ZM30.8945 13.2155C30.9818 13.2155 31.0254 13.2155 31.1127 13.2155C31.1563 12.6851 31.3309 12.1105 31.2 11.6685C30.8509 10.6961 30.3709 9.76796 29.9345 8.83978C29.76 8.44199 29.4545 8.0884 29.3673 7.64641C29.0618 6.54144 28.4945 5.74586 27.4036 5.39227C26.5745 5.12708 26.0945 4.64089 25.7018 3.88951C24.96 2.47514 23.4327 2.16575 22.1236 3.22652C22.4727 4.2431 22.5163 5.39227 23.5636 6.09945C23.8254 6.27625 24 6.62984 24.0873 6.89503C24.4363 8.221 25.7891 8.83978 26.2254 10.0774C28.5382 9.28177 29.8909 10.2541 30.8945 13.2155ZM5.97817 8.1768C5.89089 8.1326 5.80362 8.0884 5.71635 8.0442C2.53089 11.8895 0.654529 16.2652 1.2218 21.3923C1.61453 24.9724 4.53817 30.7182 6.06544 31.2928C6.06544 31.2044 6.06544 31.116 6.0218 31.0276C5.01817 29.3481 4.66907 27.4475 4.45089 25.547C4.14544 23.1602 3.70907 20.8177 2.70544 18.6077C2.39998 17.9448 2.44362 17.0608 2.44362 16.3094C2.48726 14.6298 3.18544 13.1713 4.05817 11.8011C4.75635 10.6077 5.36726 9.37017 5.97817 8.1768ZM18.6763 36.3757C23.1273 38.0553 31.2873 34.0332 31.6363 30.0111C30.3709 30.8066 29.0182 31.2486 27.5782 31.2486C27.4036 31.2486 27.2291 31.337 27.0982 31.4254C25.0909 33.105 22.7345 34.0774 20.4218 35.1823C19.8545 35.5359 19.3309 35.9337 18.6763 36.3757ZM10.4727 6.32045C11.5636 6.09945 11.52 6.05525 12.2618 5.21547C12.5673 4.86188 13.0473 4.55249 13.4836 4.37569C14.9236 3.84531 16.4509 3.80111 17.76 4.72929C18.9818 5.61326 20.16 5.48067 21.4254 4.95028C21.2945 3.75691 20.1163 2.07735 19.0254 1.54697C17.5854 0.839783 16.8436 0.97238 15.7091 2.20995C14.88 3.13813 13.8327 3.62431 12.5673 3.58011C11.9563 3.58011 11.3018 3.66851 10.7345 3.88951C9.94907 4.1989 9.73089 4.86188 10.08 5.61326C10.2109 5.83426 10.3418 6.05525 10.4727 6.32045ZM12.8727 6.01105C12.9163 6.14365 12.9163 6.18785 12.96 6.23205C13.4836 6.67404 13.9636 7.33702 14.5745 7.55802C15.2291 7.77901 16.0145 7.46962 16.7563 7.46962C17.9782 7.46962 18.6763 8.0442 18.9818 9.23757C19.0691 9.54697 19.1127 9.85636 19.2 10.1216C19.7673 9.50277 20.2036 8.79558 20.8582 8.35359C21.4691 7.91161 22.2982 7.77901 23.04 7.46962C22.56 6.40884 21.9927 6.01105 21.0327 6.32045C19.5491 6.80663 18.3273 6.45304 17.1054 5.61326C16.0145 4.90608 14.8363 5.03868 13.7018 5.48067C13.3527 5.56906 13.0909 5.83426 12.8727 6.01105ZM19.4182 11.9337C20.2473 12.0221 21.12 12.1547 21.9491 12.2873C23.4763 12.5083 24.6109 11.9779 25.44 10.5635C25.2218 10.2541 25.0036 9.94476 24.7418 9.63536C23.5636 8.3094 21.7309 8.39779 20.7273 9.85636C20.2909 10.6077 19.8109 11.3149 19.4182 11.9337ZM14.9673 8.57459C15.3163 10.3867 14.6182 12.1105 15.7091 13.5691C16.5818 12.7735 17.4545 11.9779 18.3273 11.1823C18.24 10.6961 18.1091 10.1216 17.9782 9.54697C17.8473 9.06078 17.5854 8.66299 17.0182 8.61879C16.4073 8.53039 15.7963 8.57459 14.9673 8.57459ZM14.7491 38.895C13.44 37.2597 11.4327 37.3481 9.73089 36.7293C10.9091 38.6298 12.8727 38.6298 14.7491 38.895ZM16.6691 14.4088C17.28 13.8343 17.8909 13.2597 18.6327 12.5525C17.2363 13.0829 16.5818 13.7459 16.6691 14.4088Z" fill="white"/>
</g>
<defs>
<clipPath id="clip0_51_211">
<rect width="36" height="40" fill="white"/>
</clipPath>
</defs>
</svg>
